<svg width="1687" height="800" viewBox="0 0 1687 800" fill="none" xmlns="http://www.w3.org/2000/svg">
<path d="M108.5 4.66026C117.782 -0.698727 129.218 -0.698731 138.5 4.66025L231.909 58.5897C241.191 63.9487 246.909 73.8525 246.909 84.5705V192.429C246.909 203.147 241.191 213.051 231.909 218.41L138.5 272.34C129.218 277.699 117.782 277.699 108.5 272.34L15.0914 218.41C5.80935 213.051 0.0913773 203.147 0.0913773 192.429V84.5705C0.0913773 73.8525 5.80935 63.9487 15.0914 58.5897L108.5 4.66026Z" fill="#595AA0"/>
<path d="M1072.9 590.112C1075.67 579.759 1083.76 571.672 1094.11 568.898L1149.96 553.933C1160.32 551.159 1171.36 554.119 1178.94 561.698L1219.83 602.584C1227.41 610.163 1230.37 621.209 1227.59 631.562L1212.63 687.414C1209.85 697.766 1201.77 705.853 1191.41 708.627L1135.56 723.592C1125.21 726.366 1114.16 723.407 1106.58 715.828L1065.7 674.941C1058.12 667.363 1055.16 656.316 1057.93 645.964L1072.9 590.112Z" fill="#595AA0"/>
<path d="M731.966 257.081C741.915 261.069 748.981 270.061 750.502 280.67L773.838 443.431C775.36 454.041 771.105 464.656 762.678 471.278L633.391 572.868C624.963 579.49 613.643 581.114 603.694 577.126L451.071 515.956C441.122 511.968 434.057 502.976 432.535 492.367L409.199 329.606C407.678 318.996 411.932 308.381 420.36 301.759L549.647 200.169C558.074 193.547 569.394 191.923 579.343 195.911L731.966 257.081Z" fill="#595AA0"/>
<path d="M1747.25 385.983C1757.2 389.97 1764.26 398.962 1765.78 409.572L1797.23 628.859C1798.75 639.469 1794.49 650.084 1786.06 656.706L1611.88 793.579C1603.45 800.201 1592.13 801.824 1582.18 797.837L1376.55 715.422C1366.6 711.435 1359.54 702.443 1358.01 691.833L1326.57 472.545C1325.05 461.936 1329.31 451.321 1337.73 444.698L1511.92 307.825C1520.35 301.203 1531.67 299.58 1541.62 303.568L1747.25 385.983Z" fill="#595AA0"/>
<path d="M522.506 69.3415C525.823 70.6706 528.178 73.6679 528.685 77.2044L533.452 110.452C533.959 113.989 532.541 117.527 529.732 119.735L503.322 140.487C500.512 142.694 496.739 143.235 493.423 141.906L462.246 129.411C458.93 128.081 456.574 125.084 456.067 121.548L451.3 88.2997C450.793 84.7632 452.211 81.2249 455.021 79.0175L481.431 58.2652C484.24 56.0578 488.013 55.5168 491.329 56.8459L522.506 69.3415Z" fill="#595AA0"/>
<path d="M1626.2 125.237C1627.56 128.538 1627.06 132.317 1624.89 135.151L1604.43 161.788C1602.25 164.621 1598.73 166.078 1595.19 165.61L1561.89 161.21C1558.35 160.742 1555.32 158.42 1553.96 155.118L1541.12 124.081C1539.75 120.78 1540.25 117.001 1542.43 114.167L1562.89 87.5301C1565.07 84.6968 1568.59 83.2397 1572.13 83.7078L1605.43 88.1081C1608.97 88.5761 1611.99 90.8982 1613.36 94.1996L1626.2 125.237Z" fill="#595AA0"/>
<path d="M318.792 429.759C328.74 433.746 335.806 442.738 337.327 453.348L370.981 688.066C372.502 698.676 368.248 709.291 359.82 715.913L173.375 862.417C164.947 869.039 153.627 870.662 143.678 866.675L-76.4206 778.461C-86.3693 774.473 -93.435 765.481 -94.9561 754.872L-128.61 520.153C-130.131 509.544 -125.877 498.929 -117.449 492.307L68.9962 345.802C77.4237 339.18 88.7439 337.557 98.6926 341.545L318.792 429.759Z" fill="#595AA0"/>
</svg>
