<?xml version="1.0" encoding="UTF-8"?>
<!DOCTYPE svg PUBLIC "-//W3C//DTD SVG 1.1//EN" "http://www.w3.org/Graphics/SVG/1.1/DTD/svg11.dtd">
<svg xmlns="http://www.w3.org/2000/svg" version="1.1" width="1980px" height="770px" style="shape-rendering:geometricPrecision; text-rendering:geometricPrecision; image-rendering:optimizeQuality; fill-rule:evenodd; clip-rule:evenodd" xmlns:xlink="http://www.w3.org/1999/xlink">
<g><path style="opacity:0.98" fill="#8bc53e" d="M 1422.5,-0.5 C 1440.83,-0.5 1459.17,-0.5 1477.5,-0.5C 1543.85,12.008 1586.68,50.6747 1606,115.5C 1608.63,126.304 1611.13,137.138 1613.5,148C 1612.9,149.301 1611.9,150.135 1610.5,150.5C 1579.21,149.674 1547.88,149.174 1516.5,149C 1506.03,145.193 1498.86,138.026 1495,127.5C 1475.18,99.282 1450.02,93.4486 1419.5,110C 1412.75,115.668 1407.59,122.501 1404,130.5C 1400.52,140.911 1398.18,151.578 1397,162.5C 1393.43,211.203 1393.76,259.87 1398,308.5C 1398.88,328.644 1407.38,344.477 1423.5,356C 1466.12,371.857 1493.12,357.857 1504.5,314C 1540.17,313.333 1575.83,313.333 1611.5,314C 1608.38,359.26 1590.04,397.593 1556.5,429C 1525.76,453.97 1490.43,466.137 1450.5,465.5C 1382.91,464.971 1334.07,434.638 1304,374.5C 1294.58,350.057 1289.24,324.724 1288,298.5C 1287.33,254.167 1287.33,209.833 1288,165.5C 1289.25,139.272 1294.58,113.939 1304,89.5C 1328.48,39.4966 1367.98,9.49657 1422.5,-0.5 Z"/></g>
<g><path style="opacity:0.982" fill="#00adee" d="M -0.5,451.5 C -0.5,305.833 -0.5,160.167 -0.5,14.5C 2.04369,9.46349 6.04369,5.96349 11.5,4C 100.167,3.33333 188.833,3.33333 277.5,4C 283.693,6.19259 287.859,10.3593 290,16.5C 290.667,42.1667 290.667,67.8333 290,93.5C 286.99,99.8476 282.157,104.014 275.5,106C 222.5,106.333 169.5,106.667 116.5,107C 110.547,109.057 107.047,113.223 106,119.5C 105.333,136.5 105.333,153.5 106,170.5C 107.427,176.925 111.26,181.092 117.5,183C 161.5,183.333 205.5,183.667 249.5,184C 257.858,186.36 262.691,191.86 264,200.5C 264.95,224.875 264.617,249.208 263,273.5C 260.737,280.097 256.237,284.264 249.5,286C 205.167,286.333 160.833,286.667 116.5,287C 110.836,289.332 107.336,293.499 106,299.5C 105.667,349.167 105.333,398.833 105,448.5C 103.325,454.841 99.4918,459.341 93.5,462C 65.8333,462.667 38.1667,462.667 10.5,462C 5.64549,459.643 1.97883,456.143 -0.5,451.5 Z"/></g>
<g><path style="opacity:0.975" fill="#00adee" d="M 372.5,3.5 C 460.834,3.33334 549.167,3.5 637.5,4C 644.667,5.83333 649.167,10.3333 651,17.5C 651.667,42.5 651.667,67.5 651,92.5C 648.296,99.8728 643.13,104.373 635.5,106C 582.833,106.333 530.167,106.667 477.5,107C 471.843,108.783 468.343,112.616 467,118.5C 466.333,134.833 466.333,151.167 467,167.5C 468.743,172.91 472.243,176.744 477.5,179C 521.833,179.333 566.167,179.667 610.5,180C 617.333,182.167 621.833,186.667 624,193.5C 624.667,218.5 624.667,243.5 624,268.5C 621.985,275.057 617.818,279.557 611.5,282C 566.108,282.015 520.774,282.682 475.5,284C 471.183,286.315 468.35,289.815 467,294.5C 466.333,312.5 466.333,330.5 467,348.5C 468.934,354.767 473.1,358.601 479.5,360C 532.833,360.333 586.167,360.667 639.5,361C 645.492,363.659 649.325,368.159 651,374.5C 651.667,399.167 651.667,423.833 651,448.5C 648.913,454.519 645.08,459.019 639.5,462C 550.167,462.667 460.833,462.667 371.5,462C 364.914,459.371 360.747,454.538 359,447.5C 358.333,304.833 358.333,162.167 359,19.5C 360.495,11.4457 364.995,6.11234 372.5,3.5 Z"/></g>
<g><path style="opacity:0.982" fill="#00adee" d="M 733.5,3.5 C 756.169,3.33337 778.836,3.50004 801.5,4C 809.171,5.91633 815.671,9.74967 821,15.5C 861,82.8333 901,150.167 941,217.5C 942.333,220.167 944.333,222.167 947,223.5C 948,153.833 949,84.1667 950,14.5C 952.332,8.8356 956.499,5.3356 962.5,4C 989.167,3.33333 1015.83,3.33333 1042.5,4C 1048.64,6.14071 1052.81,10.3074 1055,16.5C 1055.67,160.833 1055.67,305.167 1055,449.5C 1052.92,455.247 1049.09,459.414 1043.5,462C 1019.83,462.667 996.167,462.667 972.5,462C 965.261,459.429 959.095,455.263 954,449.5C 913.667,381.5 873.333,313.5 833,245.5C 831.216,242.997 829.549,242.997 828,245.5C 827.99,314.224 827.323,382.891 826,451.5C 823.833,456.333 820.333,459.833 815.5,462C 787.833,462.667 760.167,462.667 732.5,462C 726.939,459.438 723.106,455.272 721,449.5C 720.333,305.5 720.333,161.5 721,17.5C 722.954,10.72 727.12,6.05332 733.5,3.5 Z"/></g>
<g><path style="opacity:0.977" fill="#00adee" d="M 1138.5,3.5 C 1165.17,3.33336 1191.84,3.50003 1218.5,4C 1224.25,6.07889 1228.41,9.91222 1231,15.5C 1231.67,160.5 1231.67,305.5 1231,450.5C 1229.17,456.333 1225.33,460.167 1219.5,462C 1191.83,462.667 1164.17,462.667 1136.5,462C 1130.51,459.341 1126.67,454.841 1125,448.5C 1124.33,304.833 1124.33,161.167 1125,17.5C 1127.18,10.5126 1131.68,5.84597 1138.5,3.5 Z"/></g>
<g><path style="opacity:0.976" fill="#00adee" d="M 1689.5,3.5 C 1778.17,3.33334 1866.83,3.5 1955.5,4C 1960.95,5.97568 1965.12,9.47568 1968,14.5C 1968.67,41.1667 1968.67,67.8333 1968,94.5C 1965.15,100.84 1960.32,104.674 1953.5,106C 1900.5,106.333 1847.5,106.667 1794.5,107C 1789.6,108.902 1786.43,112.402 1785,117.5C 1784.33,134.5 1784.33,151.5 1785,168.5C 1785.83,170.167 1786.67,171.833 1787.5,173.5C 1750.51,174.5 1713.51,174.833 1676.5,174.5C 1676.33,122.166 1676.5,69.8323 1677,17.5C 1678.93,10.7448 1683.09,6.07812 1689.5,3.5 Z"/></g>
<g><path style="opacity:0.102" fill="#b2d77d" d="M 1953.5,187.5 C 1821.83,187.5 1690.17,187.5 1558.5,187.5C 1559.26,186.732 1560.26,186.232 1561.5,186C 1691.17,185.333 1820.83,185.333 1950.5,186C 1951.74,186.232 1952.74,186.732 1953.5,187.5 Z"/></g>
<g><path style="opacity:1" fill="#8bc53e" d="M 1558.5,187.5 C 1690.17,187.5 1821.83,187.5 1953.5,187.5C 1954.5,189.833 1956.17,191.5 1958.5,192.5C 1959.08,219.583 1958.41,246.583 1956.5,273.5C 1956.17,273.5 1955.83,273.5 1955.5,273.5C 1954.85,273.196 1954.18,272.863 1953.5,272.5C 1821.64,274.496 1689.64,275.163 1557.5,274.5C 1555.09,273.089 1553.42,271.089 1552.5,268.5C 1552.19,243.122 1552.52,217.789 1553.5,192.5C 1554.17,189.833 1555.83,188.167 1558.5,187.5 Z"/></g>
<g><path style="opacity:0.553" fill="#b2d67e" d="M 1953.5,187.5 C 1956.17,188.167 1957.83,189.833 1958.5,192.5C 1956.17,191.5 1954.5,189.833 1953.5,187.5 Z"/></g>
<g><path style="opacity:0.969" fill="#a6d16a" d="M 1958.5,192.5 C 1959.22,192.918 1959.72,193.584 1960,194.5C 1960.67,218.833 1960.67,243.167 1960,267.5C 1959.06,269.727 1957.89,271.727 1956.5,273.5C 1958.41,246.583 1959.08,219.583 1958.5,192.5 Z"/></g>
<g><path style="opacity:0.592" fill="#bede93" d="M 1553.5,192.5 C 1552.52,217.789 1552.19,243.122 1552.5,268.5C 1551.71,267.391 1551.21,266.058 1551,264.5C 1550.33,242.5 1550.33,220.5 1551,198.5C 1551.04,196.026 1551.87,194.026 1553.5,192.5 Z"/></g>
<g><path style="opacity:0.999" fill="#a7d26b" d="M 1955.5,273.5 C 1954.94,274.79 1953.94,275.623 1952.5,276C 1821.5,276.667 1690.5,276.667 1559.5,276C 1558.58,275.722 1557.92,275.222 1557.5,274.5C 1689.64,275.163 1821.64,274.496 1953.5,272.5C 1954.18,272.863 1954.85,273.196 1955.5,273.5 Z"/></g>
<g><path style="opacity:0.195" fill="#79d2f6" d="M 1786.5,288.5 C 1749.76,288.173 1713.09,288.507 1676.5,289.5C 1694.49,288.167 1712.82,287.5 1731.5,287.5C 1750,287.5 1768.34,287.833 1786.5,288.5 Z"/></g>
<g><path style="opacity:0.978" fill="#00adee" d="M 1786.5,288.5 C 1786.51,290.308 1786.01,291.975 1785,293.5C 1784.33,311.833 1784.33,330.167 1785,348.5C 1786.35,353.185 1789.18,356.685 1793.5,359C 1848.12,360.317 1902.79,360.983 1957.5,361C 1962.33,363.167 1965.83,366.667 1968,371.5C 1968.67,397.833 1968.67,424.167 1968,450.5C 1966.23,455.935 1962.73,459.768 1957.5,462C 1867.09,462.995 1776.75,462.661 1686.5,461C 1681.77,458.044 1678.6,453.877 1677,448.5C 1676.5,395.501 1676.33,342.501 1676.5,289.5C 1713.09,288.507 1749.76,288.173 1786.5,288.5 Z"/></g>
<g><path style="opacity:0.927" fill="#808184" d="M 1767.5,769.5 C 1760.17,769.5 1752.83,769.5 1745.5,769.5C 1717.47,761.296 1701.97,742.629 1699,713.5C 1698.33,665.167 1698.33,616.833 1699,568.5C 1702.98,534.025 1722.14,514.692 1756.5,510.5C 1795.27,515.28 1814.61,537.28 1814.5,576.5C 1814.48,580.416 1814.15,584.25 1813.5,588C 1802.17,588.667 1790.83,588.667 1779.5,588C 1778.88,579.852 1778.05,571.685 1777,563.5C 1768.96,549.403 1757.8,546.236 1743.5,554C 1739.33,557.165 1736.83,561.332 1736,566.5C 1735.33,615.833 1735.33,665.167 1736,714.5C 1740.49,728.625 1749.99,733.792 1764.5,730C 1772.29,727.212 1776.79,721.712 1778,713.5C 1778.5,695.836 1778.67,678.17 1778.5,660.5C 1769.5,660.5 1760.5,660.5 1751.5,660.5C 1751.5,649.167 1751.5,637.833 1751.5,626.5C 1772.5,626.5 1793.5,626.5 1814.5,626.5C 1814.67,656.169 1814.5,685.835 1814,715.5C 1810.79,744.206 1795.29,762.206 1767.5,769.5 Z"/></g>
<g><path style="opacity:0.94" fill="#808184" d="M 1070.5,513.5 C 1104.5,513.333 1138.5,513.5 1172.5,514C 1173.49,525.753 1173.82,537.586 1173.5,549.5C 1151.17,549.5 1128.83,549.5 1106.5,549.5C 1106.5,573.5 1106.5,597.5 1106.5,621.5C 1125.5,621.333 1144.5,621.5 1163.5,622C 1164.49,633.753 1164.82,645.586 1164.5,657.5C 1145.17,657.5 1125.83,657.5 1106.5,657.5C 1106.5,681.5 1106.5,705.5 1106.5,729.5C 1128.83,729.5 1151.17,729.5 1173.5,729.5C 1173.5,742.167 1173.5,754.833 1173.5,767.5C 1138.69,767.993 1104.02,767.493 1069.5,766C 1070.49,681.756 1070.83,597.589 1070.5,513.5 Z"/></g>
<g><path style="opacity:0.925" fill="#808184" d="M 1215.5,513.5 C 1227.19,513.168 1238.85,513.501 1250.5,514.5C 1266.56,562.526 1282.73,610.526 1299,658.5C 1299.5,610.168 1299.67,561.834 1299.5,513.5C 1311.75,513.178 1323.91,513.512 1336,514.5C 1336.67,598.5 1336.67,682.5 1336,766.5C 1324.56,767.82 1313.06,767.82 1301.5,766.5C 1285.33,718.824 1269.16,671.157 1253,623.5C 1252.67,671.167 1252.33,718.833 1252,766.5C 1239.91,767.488 1227.75,767.822 1215.5,767.5C 1215.5,682.833 1215.5,598.167 1215.5,513.5 Z"/></g>
<g><path style="opacity:0.941" fill="#808184" d="M 1389.5,513.5 C 1423.5,513.333 1457.5,513.5 1491.5,514C 1492.49,525.753 1492.82,537.586 1492.5,549.5C 1470.17,549.5 1447.83,549.5 1425.5,549.5C 1425.5,573.5 1425.5,597.5 1425.5,621.5C 1444.5,621.333 1463.5,621.5 1482.5,622C 1483.49,633.753 1483.82,645.586 1483.5,657.5C 1464.17,657.5 1444.83,657.5 1425.5,657.5C 1425.5,681.5 1425.5,705.5 1425.5,729.5C 1447.83,729.5 1470.17,729.5 1492.5,729.5C 1492.5,742.167 1492.5,754.833 1492.5,767.5C 1458.17,767.5 1423.83,767.5 1389.5,767.5C 1389.5,682.833 1389.5,598.167 1389.5,513.5 Z"/></g>
<g><path style="opacity:0.937" fill="#808184" d="M 1535.5,513.5 C 1558.17,513.333 1580.84,513.5 1603.5,514C 1629.03,519.199 1644.2,534.699 1649,560.5C 1653.06,582.107 1652.06,603.44 1646,624.5C 1641.75,636.008 1634.41,645.008 1624,651.5C 1623.83,652.333 1623.67,653.167 1623.5,654C 1635.28,691.846 1646.95,729.679 1658.5,767.5C 1645.82,767.832 1633.15,767.499 1620.5,766.5C 1610.14,731.56 1599.98,696.56 1590,661.5C 1583.92,660.524 1577.76,660.19 1571.5,660.5C 1571.5,696.167 1571.5,731.833 1571.5,767.5C 1559.5,767.5 1547.5,767.5 1535.5,767.5C 1535.5,682.833 1535.5,598.167 1535.5,513.5 Z M 1571.5,549.5 C 1579.17,549.334 1586.84,549.5 1594.5,550C 1605.23,551.725 1611.73,557.892 1614,568.5C 1616.06,582.563 1615.73,596.563 1613,610.5C 1610.83,618 1606,622.833 1598.5,625C 1589.51,625.5 1580.51,625.666 1571.5,625.5C 1571.5,600.167 1571.5,574.833 1571.5,549.5 Z"/></g>
<g><path style="opacity:0.93" fill="#808184" d="M 1979.5,513.5 C 1979.5,515.5 1979.5,517.5 1979.5,519.5C 1964.6,565.695 1949.77,612.029 1935,658.5C 1934.5,694.832 1934.33,731.165 1934.5,767.5C 1922.5,767.5 1910.5,767.5 1898.5,767.5C 1898.67,731.832 1898.5,696.165 1898,660.5C 1883.83,615.476 1869.49,570.476 1855,525.5C 1853.64,521.595 1852.81,517.595 1852.5,513.5C 1865.08,513.178 1877.58,513.511 1890,514.5C 1898.51,546.216 1907.18,577.882 1916,609.5C 1925.35,577.626 1934.18,545.626 1942.5,513.5C 1954.83,513.5 1967.17,513.5 1979.5,513.5 Z"/></g>
</svg>
