<svg width="1331" height="784" viewBox="0 0 1331 784" fill="none" xmlns="http://www.w3.org/2000/svg">
<path d="M112.866 217.812C123.381 210.172 137.619 210.172 148.134 217.812L248.392 290.654C258.907 298.293 263.306 311.834 259.29 324.195L220.995 442.055C216.979 454.416 205.46 462.785 192.463 462.785H68.5369C55.5401 462.785 44.0214 454.416 40.0052 442.055L1.70987 324.195C-2.30636 311.834 2.09338 298.293 12.608 290.654L112.866 217.812Z" fill="#595AA0"/>
<path d="M1360.84 38.873C1372.63 44.3364 1379.57 56.772 1378.01 69.6758L1367.78 154.729C1366.23 167.633 1356.55 178.07 1343.8 180.582L1259.74 197.136C1246.99 199.648 1234.07 193.663 1227.74 182.311L1186.03 107.489C1179.7 96.1374 1181.4 82.0014 1190.24 72.4742L1248.51 9.67693C1257.35 0.149707 1271.32 -2.6017 1283.11 2.86172L1360.84 38.873Z" fill="#595AA0"/>
<path d="M1405.31 375.06C1417.82 378.608 1426.61 389.803 1427.1 402.791L1436.89 662.389C1437.38 675.377 1429.45 687.203 1417.25 691.682L1173.38 781.212C1161.18 785.691 1147.49 781.804 1139.46 771.585L978.948 567.319C970.918 557.1 970.381 542.872 977.619 532.077L1122.29 316.304C1129.53 305.509 1142.89 300.602 1155.39 304.149L1405.31 375.06Z" fill="#595AA0"/>
<path d="M164.876 71.5062C169.043 72.6887 171.976 76.4204 172.139 80.7496L173.591 119.251C173.754 123.58 171.111 127.522 167.044 129.015L130.876 142.293C126.809 143.786 122.243 142.491 119.567 139.084L95.7619 108.789C93.0852 105.383 92.9064 100.64 95.319 97.0421L116.775 65.0408C119.187 61.4424 123.643 59.8068 127.81 60.9894L164.876 71.5062Z" fill="#595AA0"/>
<path d="M840.616 599.107C844.922 598.624 849.048 600.969 850.837 604.914L866.751 640.003C868.54 643.948 867.585 648.597 864.386 651.518L835.932 677.495C832.733 680.416 828.016 680.945 824.249 678.805L790.751 659.771C786.984 657.631 785.024 653.309 785.895 649.065L793.646 611.324C794.517 607.081 798.022 603.881 802.328 603.398L840.616 599.107Z" fill="#595AA0"/>
<path d="M-166.533 -4.81198C-153.62 -3.34403 -143.12 6.27222 -140.525 19.0074L-35.1081 536.468C-32.5137 549.203 -38.4147 562.16 -49.7249 568.563L-509.283 828.725C-520.593 835.128 -534.74 833.52 -544.325 824.742L-933.765 468.07C-943.349 459.292 -946.191 445.341 -940.805 433.513L-721.933 -47.0839C-716.547 -58.9119 -704.157 -65.9262 -691.243 -64.4582L-166.533 -4.81198Z" fill="#595AA0"/>
<path d="M450.076 569.575C462.579 573.123 471.376 584.318 471.866 597.306L479.041 787.595C479.53 800.582 471.602 812.408 459.401 816.887L280.643 882.514C268.442 886.993 254.745 883.106 246.715 872.887L129.061 723.158C121.031 712.938 120.494 698.711 127.732 687.916L233.776 529.751C241.014 518.956 254.38 514.049 266.883 517.597L450.076 569.575Z" fill="#595AA0"/>
</svg>
