<svg width="14" height="15" viewBox="0 0 14 15" fill="none" xmlns="http://www.w3.org/2000/svg">
<path d="M12.4444 0.5H1.55556C1.143 0.5 0.747335 0.663888 0.455612 0.955612C0.163888 1.24733 0 1.643 0 2.05556V12.9444C0 13.357 0.163888 13.7527 0.455612 14.0444C0.747335 14.3361 1.143 14.5 1.55556 14.5H12.4444C12.857 14.5 13.2527 14.3361 13.5444 14.0444C13.8361 13.7527 14 13.357 14 12.9444V2.05556C14 1.643 13.8361 1.24733 13.5444 0.955612C13.2527 0.663888 12.857 0.5 12.4444 0.5ZM5.44444 11.3889L1.55556 7.5L2.65222 6.40333L5.44444 9.18778L11.3478 3.28444L12.4444 4.38889L5.44444 11.3889Z" fill="#6667AB"/>
</svg>
