<svg width="521" height="489" viewBox="0 0 521 489" fill="none" xmlns="http://www.w3.org/2000/svg">
<path d="M486.891 198.062V239.514C486.892 241.519 486.497 243.505 485.73 245.358C484.963 247.21 483.839 248.893 482.421 250.311C481.004 251.729 479.32 252.853 477.468 253.619C475.616 254.386 473.631 254.78 471.626 254.778H464.059C465.742 263.06 470.482 270.405 477.334 275.349C470.877 275.171 464.607 273.137 459.274 269.489C453.942 265.841 449.773 260.734 447.265 254.778H417.64C413.597 254.771 409.723 253.16 406.866 250.298C404.01 247.437 402.406 243.558 402.406 239.514V198.062C402.408 194.014 404.016 190.133 406.877 187.27C409.739 184.408 413.619 182.799 417.666 182.798H471.626C473.631 182.797 475.615 183.192 477.467 183.959C479.319 184.725 481.002 185.85 482.42 187.267C483.837 188.685 484.962 190.367 485.729 192.22C486.496 194.072 486.891 196.057 486.891 198.062ZM467.38 218.509C467.38 217.453 467.067 216.421 466.48 215.543C465.894 214.665 465.06 213.981 464.085 213.577C463.109 213.173 462.036 213.068 461.001 213.274C459.966 213.481 459.015 213.99 458.269 214.737C457.523 215.484 457.015 216.435 456.81 217.471C456.604 218.507 456.711 219.58 457.115 220.555C457.52 221.531 458.205 222.364 459.083 222.95C459.961 223.536 460.994 223.848 462.049 223.847C462.75 223.847 463.443 223.709 464.09 223.441C464.738 223.172 465.325 222.779 465.821 222.283C466.316 221.788 466.708 221.199 466.976 220.551C467.243 219.904 467.381 219.21 467.38 218.509ZM449.342 218.509C449.342 217.453 449.028 216.421 448.442 215.543C447.855 214.665 447.022 213.981 446.046 213.577C445.071 213.173 443.998 213.068 442.962 213.274C441.927 213.481 440.976 213.99 440.23 214.737C439.484 215.484 438.976 216.435 438.771 217.471C438.566 218.507 438.672 219.58 439.077 220.555C439.482 221.531 440.166 222.364 441.045 222.95C441.923 223.536 442.955 223.848 444.011 223.847C444.711 223.847 445.405 223.709 446.052 223.441C446.699 223.172 447.287 222.779 447.782 222.283C448.277 221.788 448.67 221.199 448.937 220.551C449.205 219.904 449.342 219.21 449.342 218.509ZM431.303 218.509C431.303 217.453 430.99 216.421 430.403 215.543C429.817 214.665 428.983 213.981 428.008 213.577C427.032 213.173 425.959 213.068 424.924 213.274C423.889 213.481 422.938 213.99 422.192 214.737C421.446 215.484 420.938 216.435 420.733 217.471C420.527 218.507 420.634 219.58 421.038 220.555C421.443 221.531 422.128 222.364 423.006 222.95C423.884 223.536 424.916 223.848 425.972 223.847C427.386 223.846 428.742 223.283 429.742 222.282C430.742 221.281 431.303 219.924 431.303 218.509Z" fill="#2F2F38"/>
<path d="M462.048 213.171C463.103 213.171 464.135 213.485 465.013 214.071C465.89 214.658 466.574 215.491 466.978 216.467C467.382 217.442 467.488 218.515 467.282 219.551C467.076 220.586 466.568 221.537 465.821 222.284C465.075 223.03 464.124 223.539 463.089 223.744C462.054 223.95 460.981 223.845 460.006 223.441C459.031 223.037 458.198 222.353 457.611 221.475C457.025 220.597 456.712 219.565 456.712 218.509C456.711 217.808 456.849 217.114 457.117 216.466C457.385 215.818 457.778 215.229 458.273 214.733C458.769 214.238 459.357 213.844 460.005 213.576C460.653 213.308 461.347 213.171 462.048 213.171Z" fill="#2F2F38"/>
<path d="M444.01 213.171C445.065 213.171 446.097 213.485 446.975 214.071C447.852 214.658 448.536 215.491 448.94 216.467C449.344 217.442 449.449 218.515 449.244 219.551C449.038 220.586 448.529 221.537 447.783 222.284C447.037 223.03 446.086 223.539 445.051 223.744C444.016 223.95 442.943 223.845 441.968 223.441C440.993 223.037 440.159 222.353 439.573 221.475C438.987 220.597 438.674 219.565 438.674 218.509C438.673 217.808 438.811 217.114 439.079 216.466C439.347 215.818 439.74 215.229 440.235 214.733C440.731 214.238 441.319 213.844 441.967 213.576C442.615 213.308 443.309 213.171 444.01 213.171Z" fill="#2F2F38"/>
<path d="M425.972 213.171C427.027 213.171 428.059 213.484 428.937 214.071C429.814 214.658 430.498 215.491 430.902 216.467C431.306 217.442 431.411 218.515 431.206 219.551C431 220.586 430.491 221.537 429.745 222.284C428.999 223.03 428.048 223.539 427.013 223.744C425.978 223.95 424.905 223.845 423.93 223.441C422.955 223.037 422.121 222.353 421.535 221.475C420.949 220.597 420.636 219.565 420.636 218.509C420.636 217.808 420.774 217.114 421.042 216.467C421.31 215.819 421.703 215.231 422.199 214.735C422.694 214.239 423.282 213.846 423.93 213.578C424.577 213.31 425.271 213.171 425.972 213.171Z" fill="#2F2F38"/>
<path d="M423.652 254.778V395.773H395.468V280.222H282.857V395.773H234.78C232.187 387.657 227.083 380.576 220.205 375.551C213.327 370.526 205.03 367.818 196.512 367.818C187.995 367.818 179.698 370.526 172.82 375.551C165.941 380.576 160.838 387.657 158.245 395.773H102.192V136.773L115.143 148.994L189.761 74.2076H423.652V182.798H417.639C413.597 182.806 409.723 184.418 406.868 187.279C404.012 190.141 402.407 194.019 402.406 198.062V239.514C402.406 243.562 404.013 247.445 406.875 250.308C409.737 253.17 413.618 254.778 417.665 254.778H423.652ZM373.432 258.643V211.342H326.155V258.643H373.432ZM286.56 175.285V127.994H239.284V175.285H286.56ZM199.684 175.285V127.994H152.387V175.285H199.684Z" fill="white"/>
<path d="M142.671 74.2128L114.337 102.602L102.192 91.0581V74.2128H142.671Z" fill="white"/>
<path d="M395.468 395.773H282.856V412.091H395.468V395.773Z" fill="white"/>
<path d="M395.468 280.222V395.773H282.856V280.222H395.468ZM320.426 317.359C320.427 315.948 320.01 314.567 319.226 313.393C318.443 312.219 317.329 311.303 316.025 310.762C314.721 310.222 313.286 310.08 311.902 310.355C310.518 310.63 309.246 311.31 308.248 312.308C307.25 313.307 306.571 314.579 306.296 315.963C306.021 317.348 306.162 318.783 306.703 320.087C307.243 321.392 308.159 322.506 309.332 323.29C310.506 324.073 311.886 324.491 313.298 324.49C315.188 324.489 317 323.737 318.337 322.4C319.674 321.063 320.425 319.25 320.426 317.359ZM320.426 346.157C320.427 344.745 320.01 343.364 319.226 342.19C318.443 341.016 317.329 340.1 316.025 339.56C314.721 339.019 313.286 338.877 311.902 339.152C310.518 339.427 309.246 340.107 308.248 341.106C307.25 342.104 306.571 343.376 306.296 344.761C306.021 346.145 306.162 347.581 306.703 348.885C307.243 350.189 308.159 351.303 309.332 352.087C310.506 352.871 311.886 353.288 313.298 353.287C314.235 353.287 315.163 353.101 316.029 352.742C316.894 352.382 317.68 351.856 318.342 351.192C319.004 350.528 319.529 349.741 319.887 348.874C320.244 348.007 320.428 347.079 320.426 346.141V346.157ZM320.426 374.954C320.427 373.542 320.01 372.162 319.226 370.987C318.443 369.813 317.329 368.898 316.025 368.357C314.721 367.816 313.286 367.674 311.902 367.95C310.518 368.225 309.246 368.904 308.248 369.903C307.25 370.901 306.571 372.173 306.296 373.558C306.021 374.943 306.162 376.378 306.703 377.682C307.243 378.986 308.159 380.101 309.332 380.884C310.506 381.668 311.886 382.086 313.298 382.085C315.188 382.083 317 381.332 318.337 379.995C319.674 378.658 320.425 376.845 320.426 374.954Z" fill="white"/>
<path d="M373.431 211.342H326.155V258.643H373.431V211.342Z" fill="white"/>
<path d="M313.299 310.223C314.71 310.223 316.089 310.642 317.262 311.426C318.435 312.21 319.35 313.325 319.89 314.628C320.43 315.932 320.571 317.367 320.296 318.751C320.02 320.136 319.341 321.407 318.343 322.405C317.346 323.403 316.074 324.083 314.691 324.358C313.307 324.634 311.872 324.492 310.569 323.952C309.265 323.412 308.151 322.497 307.367 321.324C306.583 320.15 306.165 318.771 306.165 317.359C306.165 315.467 306.917 313.652 308.254 312.313C309.592 310.975 311.407 310.223 313.299 310.223Z" fill="#F167B3"/>
<path d="M313.299 339.021C314.71 339.021 316.09 339.44 317.264 340.224C318.437 341.009 319.352 342.125 319.891 343.429C320.431 344.734 320.571 346.17 320.294 347.555C320.018 348.939 319.337 350.211 318.338 351.208C317.338 352.205 316.066 352.884 314.681 353.157C313.296 353.431 311.861 353.288 310.558 352.745C309.255 352.203 308.142 351.285 307.36 350.11C306.578 348.934 306.162 347.553 306.165 346.141C306.169 344.251 306.923 342.44 308.26 341.105C309.597 339.77 311.41 339.021 313.299 339.021Z" fill="#F167B3"/>
<path d="M313.299 367.844C314.71 367.844 316.089 368.262 317.262 369.046C318.435 369.83 319.35 370.945 319.89 372.249C320.43 373.553 320.571 374.988 320.296 376.372C320.02 377.756 319.341 379.028 318.343 380.026C317.346 381.024 316.074 381.703 314.691 381.979C313.307 382.254 311.872 382.113 310.569 381.573C309.265 381.032 308.151 380.118 307.367 378.944C306.583 377.771 306.165 376.391 306.165 374.98C306.165 373.087 306.917 371.272 308.254 369.934C309.592 368.596 311.407 367.844 313.299 367.844Z" fill="#F167B3"/>
<path d="M286.56 127.994H239.284V175.285H286.56V127.994Z" fill="#8282D9"/>
<path d="M250.484 418.287V454.974H213.808V444.252C219.058 441.739 223.7 438.116 227.413 433.633C231.127 429.15 233.824 423.914 235.317 418.287H250.484Z" fill="white"/>
<path d="M236.675 407.994C236.678 411.468 236.228 414.928 235.337 418.287H213.827V444.252C206.753 447.624 198.847 448.853 191.084 447.788C183.32 446.723 176.037 443.411 170.131 438.26C164.224 433.108 159.952 426.342 157.84 418.793C155.729 411.244 155.869 403.243 158.244 395.773H234.779C236.038 399.724 236.677 403.847 236.675 407.994Z" fill="white"/>
<path d="M213.827 418.287H235.337C233.843 423.914 231.147 429.15 227.433 433.633C223.719 438.116 219.077 441.739 213.827 444.252V418.287Z" fill="#2F2F38"/>
<path d="M234.78 395.773H158.245C160.838 387.657 165.941 380.576 172.82 375.551C179.698 370.526 187.995 367.818 196.512 367.818C205.03 367.818 213.327 370.526 220.205 375.551C227.083 380.576 232.187 387.657 234.78 395.773Z" fill="#8282D9"/>
<path d="M199.684 127.994H152.408V175.285H199.684V127.994Z" fill="white"/>
<path d="M176.087 40.7184L199.684 64.2605L115.142 148.994L58.0254 95.0834L81.5809 71.4637L114.336 102.602L176.087 40.7184Z" fill="#8282D9"/>
<path d="M82.7429 264.322L72.3754 267.138C68.9645 268.064 65.8552 269.866 63.3567 272.366C60.8581 274.867 59.0574 277.978 58.1337 281.39L55.339 291.724L52.5341 281.39C51.6127 277.976 49.8128 274.864 47.3139 272.364C44.815 269.863 41.7044 268.061 38.2923 267.138L27.9248 264.322L38.2923 261.506C41.7039 260.582 44.814 258.78 47.3127 256.28C49.8115 253.779 51.6117 250.668 52.5341 247.255L55.339 236.92L58.1337 247.255C59.0584 250.667 60.8594 253.777 63.3578 256.277C65.8562 258.777 68.965 260.58 72.3754 261.506L82.7429 264.322Z" fill="#2F2F38"/>
<path d="M77.0613 259.672L66.6886 262.488C63.2784 263.414 60.1699 265.216 57.6723 267.716C55.1746 270.217 53.3749 273.327 52.452 276.739L49.6522 287.074L46.8473 276.739C45.9277 273.326 44.1291 270.213 41.6309 267.712C39.1328 265.212 36.0225 263.41 32.6107 262.488L22.2432 270.006L32.6107 256.856C36.022 255.932 39.1318 254.131 41.6298 251.63C44.1278 249.129 45.9268 246.017 46.8473 242.604L49.6522 232.27L52.452 242.604C53.3758 246.016 55.1759 249.126 57.6734 251.626C60.1709 254.126 63.2789 255.929 66.6886 256.856L77.0613 259.672Z" fill="#8282D9"/>
<path d="M27.4091 216.189L22.2434 217.6C20.5368 218.058 18.9801 218.955 17.7284 220.203C16.4767 221.45 15.5738 223.004 15.1096 224.71L13.7045 229.877L12.3046 224.71C11.8395 223.004 10.9356 221.45 9.68307 220.202C8.43049 218.955 6.87296 218.057 5.16567 217.6L0 216.189L5.16567 214.783C6.87434 214.323 8.43262 213.423 9.68521 212.173C10.9378 210.923 11.8409 209.366 12.3046 207.658L13.7045 202.49L15.1096 207.658C15.5692 209.362 16.4666 210.916 17.7126 212.167C18.9586 213.417 20.5099 214.319 22.2124 214.783L27.4091 216.189Z" fill="white"/>
<path d="M73.7503 194.383L72.3504 199.55C71.8868 201.255 70.9861 202.808 69.7375 204.057C68.4889 205.306 66.9359 206.207 65.2321 206.671L60.0664 208.076L65.2321 209.487C66.9362 209.952 68.4895 210.854 69.738 212.104C70.9866 213.353 71.8871 214.908 72.3504 216.613L73.7503 221.78L75.1553 216.613C75.6158 214.907 76.5148 213.352 77.7627 212.102C79.0107 210.852 80.5641 209.95 82.2685 209.487L87.4341 208.076L82.2685 206.671C80.5645 206.209 79.0112 205.308 77.7633 204.059C76.5153 202.81 75.6162 201.255 75.1553 199.55L73.7503 194.383Z" stroke="#2F2F38" stroke-width="4" stroke-linecap="round" stroke-linejoin="round"/>
<path d="M282.857 395.773H102.192V136.773" stroke="#2F2F38" stroke-width="4" stroke-linecap="round" stroke-linejoin="round"/>
<path d="M423.653 254.778V395.773H395.469" stroke="#2F2F38" stroke-width="4" stroke-linecap="round" stroke-linejoin="round"/>
<path d="M102.192 91.0581V74.2128H142.671" stroke="#2F2F38" stroke-width="4" stroke-linecap="round" stroke-linejoin="round"/>
<path d="M189.767 74.2128H423.653V182.798" stroke="#2F2F38" stroke-width="4" stroke-linecap="round" stroke-linejoin="round"/>
<path d="M199.684 127.994H152.408V175.285H199.684V127.994Z" stroke="#2F2F38" stroke-width="4" stroke-linecap="round" stroke-linejoin="round"/>
<path d="M286.56 127.994H239.284V175.285H286.56V127.994Z" stroke="#2F2F38" stroke-width="4" stroke-linecap="round" stroke-linejoin="round"/>
<path d="M373.431 211.342H326.155V258.643H373.431V211.342Z" stroke="#2F2F38" stroke-width="4" stroke-linecap="round" stroke-linejoin="round"/>
<path d="M142.67 74.2127L176.087 40.7184L199.684 64.2605L115.142 148.994L58.0254 95.0834L81.5809 71.4637L114.336 102.602L142.67 74.2127Z" stroke="#2F2F38" stroke-width="4" stroke-linecap="round" stroke-linejoin="round"/>
<path d="M395.468 395.773V412.091H282.856V280.222H395.468V395.773Z" stroke="#2F2F38" stroke-width="4" stroke-linecap="round" stroke-linejoin="round"/>
<path d="M320.427 317.359C320.428 315.947 320.01 314.567 319.227 313.393C318.443 312.218 317.329 311.303 316.025 310.762C314.722 310.222 313.287 310.08 311.903 310.355C310.518 310.63 309.247 311.31 308.249 312.308C307.251 313.306 306.571 314.578 306.296 315.963C306.021 317.348 306.163 318.783 306.703 320.087C307.244 321.391 308.159 322.506 309.333 323.29C310.507 324.073 311.887 324.491 313.298 324.49C315.188 324.489 317.001 323.737 318.337 322.4C319.674 321.063 320.425 319.25 320.427 317.359Z" stroke="#2F2F38" stroke-width="4" stroke-linecap="round" stroke-linejoin="round"/>
<path d="M332.622 317.359H368.653" stroke="#2F2F38" stroke-width="4" stroke-linecap="round" stroke-linejoin="round"/>
<path d="M320.427 346.141C320.428 344.729 320.01 343.349 319.227 342.175C318.443 341 317.329 340.085 316.025 339.544C314.722 339.003 313.287 338.862 311.903 339.137C310.518 339.412 309.247 340.092 308.249 341.09C307.251 342.088 306.571 343.36 306.296 344.745C306.021 346.13 306.163 347.565 306.703 348.869C307.244 350.173 308.159 351.288 309.333 352.071C310.507 352.855 311.887 353.273 313.298 353.272C315.188 353.271 317.001 352.519 318.337 351.182C319.674 349.845 320.425 348.032 320.427 346.141Z" stroke="#2F2F38" stroke-width="4" stroke-linecap="round" stroke-linejoin="round"/>
<path d="M332.622 346.157H368.653" stroke="#2F2F38" stroke-width="4" stroke-linecap="round" stroke-linejoin="round"/>
<path d="M320.427 374.954C320.428 373.542 320.01 372.162 319.227 370.987C318.443 369.813 317.329 368.898 316.025 368.357C314.722 367.816 313.287 367.674 311.903 367.949C310.518 368.225 309.247 368.904 308.249 369.903C307.251 370.901 306.571 372.173 306.296 373.558C306.021 374.942 306.163 376.378 306.703 377.682C307.244 378.986 308.159 380.1 309.333 380.884C310.507 381.668 311.887 382.086 313.298 382.085C315.188 382.083 317.001 381.332 318.337 379.995C319.674 378.658 320.425 376.845 320.427 374.954Z" stroke="#2F2F38" stroke-width="4" stroke-linecap="round" stroke-linejoin="round"/>
<path d="M332.622 374.954H368.653" stroke="#2F2F38" stroke-width="4" stroke-linecap="round" stroke-linejoin="round"/>
<path d="M423.653 182.798H471.626C475.672 182.799 479.552 184.408 482.413 187.271C485.274 190.133 486.881 194.015 486.881 198.062V239.514C486.881 241.518 486.487 243.503 485.721 245.355C484.955 247.207 483.831 248.89 482.414 250.307C480.998 251.725 479.316 252.849 477.465 253.616C475.614 254.383 473.63 254.778 471.626 254.778H464.059C465.742 263.06 470.482 270.405 477.334 275.349C470.877 275.171 464.607 273.137 459.274 269.489C453.942 265.841 449.773 260.734 447.265 254.778H417.64C413.597 254.772 409.723 253.16 406.866 250.298C404.01 247.437 402.406 243.558 402.406 239.514V198.062C402.408 194.014 404.016 190.133 406.877 187.27C409.739 184.408 413.619 182.799 417.666 182.798H423.653Z" stroke="#2F2F38" stroke-width="4" stroke-linecap="round" stroke-linejoin="round"/>
<path d="M431.303 218.509C431.303 217.453 430.99 216.421 430.403 215.543C429.817 214.665 428.983 213.981 428.008 213.577C427.032 213.173 425.959 213.068 424.924 213.274C423.889 213.481 422.938 213.99 422.192 214.737C421.446 215.484 420.938 216.435 420.733 217.471C420.527 218.507 420.634 219.58 421.039 220.556C421.443 221.531 422.128 222.364 423.006 222.95C423.884 223.536 424.917 223.848 425.972 223.847C427.386 223.846 428.742 223.283 429.742 222.282C430.742 221.281 431.303 219.924 431.303 218.509Z" stroke="white" stroke-width="4" stroke-linecap="round" stroke-linejoin="round"/>
<path d="M449.342 218.509C449.342 217.453 449.029 216.421 448.443 215.543C447.856 214.665 447.022 213.981 446.047 213.577C445.072 213.173 443.998 213.068 442.963 213.274C441.928 213.481 440.977 213.99 440.231 214.737C439.485 215.484 438.977 216.435 438.772 217.471C438.567 218.507 438.673 219.58 439.078 220.556C439.482 221.531 440.167 222.364 441.045 222.95C441.923 223.536 442.956 223.848 444.011 223.847C444.712 223.847 445.405 223.709 446.052 223.441C446.7 223.172 447.288 222.779 447.783 222.283C448.278 221.788 448.67 221.199 448.938 220.552C449.206 219.904 449.343 219.21 449.342 218.509Z" stroke="white" stroke-width="4" stroke-linecap="round" stroke-linejoin="round"/>
<path d="M467.379 218.509C467.379 217.453 467.066 216.421 466.48 215.543C465.893 214.665 465.059 213.981 464.084 213.577C463.109 213.173 462.035 213.068 461 213.274C459.965 213.481 459.014 213.99 458.268 214.737C457.522 215.484 457.014 216.435 456.809 217.471C456.604 218.507 456.71 219.58 457.115 220.556C457.519 221.531 458.204 222.364 459.082 222.95C459.961 223.536 460.993 223.848 462.048 223.847C462.749 223.847 463.443 223.709 464.09 223.441C464.737 223.172 465.325 222.779 465.82 222.283C466.315 221.788 466.707 221.199 466.975 220.552C467.243 219.904 467.38 219.21 467.379 218.509Z" stroke="white" stroke-width="4" stroke-linecap="round" stroke-linejoin="round"/>
<path d="M235.338 418.287C237.676 409.443 236.924 400.066 233.208 391.709C229.491 383.351 223.033 376.513 214.902 372.328C206.771 368.142 197.455 366.86 188.496 368.694C179.537 370.527 171.473 375.366 165.638 382.409C159.803 389.452 156.548 398.278 156.412 407.424C156.275 416.57 159.265 425.489 164.887 432.703C170.509 439.918 178.425 444.996 187.325 447.096C196.225 449.196 205.576 448.193 213.828 444.252C219.088 441.753 223.738 438.134 227.454 433.649C231.169 429.164 233.86 423.921 235.338 418.287Z" stroke="#2F2F38" stroke-width="4" stroke-linecap="round" stroke-linejoin="round"/>
<path d="M235.337 418.287H250.483V454.959H213.827V418.287H235.337Z" stroke="#2F2F38" stroke-width="4" stroke-linecap="round" stroke-linejoin="round"/>
<path d="M375.544 164.992L351.58 187.273C351.391 186.709 351.12 186.176 350.774 185.692C347.825 181.532 340.185 181.899 333.728 186.503C330.899 188.438 328.635 191.09 327.167 194.187C326.888 193.934 326.609 193.67 326.346 193.376C324.704 191.609 323.597 189.412 323.156 187.041C322.714 184.669 322.955 182.221 323.851 179.982C324.541 178.231 325.619 176.659 327.002 175.383L360.739 144.018C361.73 143.101 362.655 142.115 363.508 141.067C366.055 137.95 367.957 134.358 369.104 130.499C370.251 126.64 370.619 122.592 370.187 118.589L369.489 112.234C368.109 103.582 366.287 95.007 364.029 86.5419C361.88 78.574 352.381 75.5253 345.831 80.5479C345.789 80.584 345.743 80.6151 345.702 80.6564C332.524 90.9548 317.879 97.6102 303.415 102.84C299.799 104.147 296.183 105.361 292.65 106.524C291.374 106.946 290.038 107.161 288.693 107.159C286.886 107.158 285.1 106.772 283.453 106.027C281.806 105.283 280.337 104.196 279.142 102.84C277.2 100.622 276.083 97.8022 275.98 94.8561C278.044 94.9692 280.114 94.8286 282.143 94.4375C291.849 92.5928 298.673 85.7565 297.449 79.1579C297.367 78.715 297.25 78.2796 297.098 77.8557C326.501 66.0743 349.519 47.8441 363.368 16.1429C365.301 11.6792 366.291 6.86431 366.276 2H452.027V64.0074C452.027 145.371 432.557 156.342 412.375 159.395L375.544 164.992Z" fill="#F167B3"/>
<path d="M363.503 141.062C362.651 142.109 361.726 143.095 360.734 144.012L344.721 158.894V143.909L363.503 141.062Z" fill="white"/>
<path d="M351.596 187.273L344.328 194.032C342.004 196.196 338.954 197.412 335.778 197.441C332.603 197.469 329.531 196.309 327.168 194.187C328.636 191.09 330.9 188.438 333.728 186.503C340.201 181.899 347.841 181.532 350.775 185.692C351.126 186.175 351.403 186.708 351.596 187.273Z" fill="white"/>
<path d="M344.732 143.909V158.894L326.988 175.383C325.605 176.659 324.528 178.231 323.837 179.982H267.619V102.84H279.144C280.339 104.196 281.808 105.283 283.455 106.027C285.102 106.772 286.888 107.158 288.695 107.159C290.04 107.161 291.375 106.946 292.652 106.524C296.206 105.361 299.812 104.147 303.417 102.84H344.743L344.732 143.909Z" fill="#D7CCFF"/>
<path d="M297.445 79.1578C298.685 85.7564 291.845 92.5927 282.139 94.4375C280.11 94.8285 278.04 94.9691 275.977 94.856C275.886 92.0978 276.694 89.3849 278.277 87.1252C279.861 84.8655 282.135 83.1811 284.758 82.3253C288.987 80.9474 293.104 79.4575 297.109 77.8557C297.256 78.2799 297.368 78.7154 297.445 79.1578Z" fill="white"/>
<path d="M419.009 106.798L419.453 121.726C419.75 131.669 416.397 141.377 410.027 149.016C403.657 156.655 394.711 161.696 384.879 163.188L376.046 164.532" stroke="#2F2F38" stroke-width="4" stroke-linecap="round" stroke-linejoin="round"/>
<path d="M279.136 102.84C277.746 101.256 276.769 99.3527 276.295 97.2991C275.82 95.2456 275.863 93.1063 276.418 91.0732C276.974 89.0401 278.025 87.1767 279.477 85.6499C280.93 84.1232 282.739 82.9809 284.741 82.3254C288.97 80.9475 293.087 79.4576 297.092 77.8557C326.495 66.0743 349.519 47.8441 363.368 16.1429C365.301 11.6792 366.291 6.86431 366.276 2H452.026V64.0074C452.026 145.371 432.557 156.342 412.375 159.395L375.543 164.992" stroke="#2F2F38" stroke-width="4" stroke-linecap="round" stroke-linejoin="round"/>
<path d="M394.91 110.513L395.489 115.778C396.421 124.407 395.332 133.135 392.307 141.269C389.283 149.404 384.407 156.723 378.065 162.646L344.328 194.011C342.004 196.175 338.954 197.391 335.778 197.42C332.603 197.449 329.531 196.288 327.168 194.166C326.889 193.913 326.61 193.649 326.347 193.355C324.707 191.587 323.602 189.39 323.16 187.019C322.719 184.649 322.958 182.201 323.851 179.961C324.545 178.212 325.622 176.641 327.003 175.362L360.74 143.997C361.731 143.08 362.656 142.094 363.508 141.046C366.056 137.93 367.958 134.337 369.105 130.479C370.251 126.62 370.62 122.571 370.188 118.569L369.49 112.213C368.11 103.561 366.287 94.9863 364.03 86.5212C361.881 78.5533 352.381 75.5046 345.831 80.5272C345.79 80.5633 345.744 80.5943 345.702 80.6357C332.525 90.9341 317.88 97.5844 303.416 102.819C299.8 104.126 296.184 105.34 292.651 106.503C291.374 106.925 290.038 107.14 288.694 107.139C286.887 107.137 285.1 106.751 283.454 106.007C281.807 105.262 280.337 104.175 279.143 102.819" stroke="#2F2F38" stroke-width="4" stroke-linecap="round" stroke-linejoin="round"/>
<path d="M344.731 143.909L363.504 141.062" stroke="#2F2F38" stroke-width="4" stroke-linecap="round" stroke-linejoin="round"/>
<path d="M327.168 194.187C328.636 191.09 330.9 188.438 333.728 186.503C340.201 181.899 347.841 181.532 350.775 185.692C351.12 186.176 351.392 186.709 351.581 187.273" stroke="#2F2F38" stroke-width="4" stroke-linecap="round" stroke-linejoin="round"/>
<path d="M297.094 77.8557C297.246 78.2795 297.363 78.715 297.445 79.1578C298.685 85.7564 291.846 92.5927 282.139 94.4375C280.11 94.8285 278.04 94.9691 275.977 94.856" stroke="#2F2F38" stroke-width="4" stroke-linecap="round" stroke-linejoin="round"/>
<path d="M303.417 102.84H344.732V158.899" stroke="#2F2F38" stroke-width="4" stroke-linecap="round" stroke-linejoin="round"/>
<path d="M323.847 179.982H267.619V102.84H279.144" stroke="#2F2F38" stroke-width="4" stroke-linecap="round" stroke-linejoin="round"/>
<path d="M417.691 350.275L406.792 329.089C400.836 326.195 389.693 320.599 379.527 314.44C388.18 323.405 402.788 337.93 417.691 350.275ZM423.188 306.694L426.287 306.932C430.525 307.256 434.605 308.684 438.122 311.072C441.638 313.46 444.47 316.727 446.335 320.548L465.68 360.181C466.884 362.657 468.758 364.746 471.091 366.208C473.424 367.67 476.121 368.446 478.874 368.448H518.985V460.385H432.026C407.954 460.385 397.416 443.953 388.996 430.755C382.963 421.315 377.632 413.011 367.91 408.019C370.828 407.616 373.075 406.335 374.067 404.232C376.17 399.71 371.583 393.107 363.813 389.479C361.346 388.308 358.701 387.557 355.987 387.257C357.476 384.24 360.026 381.879 363.149 380.627C366.271 379.376 369.746 379.323 372.905 380.478C394.177 388.26 403.93 403.756 411.968 416.07C411.982 416.086 411.994 416.103 412.004 416.122C412.352 416.665 412.834 417.109 413.404 417.411C413.973 417.713 414.611 417.864 415.255 417.849C415.9 417.833 416.53 417.652 417.084 417.322C417.638 416.992 418.098 416.526 418.42 415.967C424.102 405.958 424.293 391.386 407.846 377.393H407.815C406.658 376.408 405.418 375.429 404.095 374.458C377.988 353.494 352.666 325.885 351.431 324.516C349.087 321.952 347.81 318.589 347.861 315.114C347.912 311.64 349.287 308.316 351.705 305.821C353.058 309.159 356.52 312.352 361.184 314.125C367.662 316.59 374.238 315.453 376.795 311.675C373.561 308.291 371.629 306.203 371.572 306.115C369.442 303.788 366.573 302.269 363.452 301.816C362.259 299.578 361.714 297.051 361.879 294.519C362.043 291.988 362.91 289.553 364.382 287.487C366.04 290.335 369.175 292.944 373.225 294.484C380.4 297.207 387.689 295.517 389.518 290.727C389.746 290.127 389.883 289.497 389.926 288.857C403.3 297.486 422.315 306.332 422.542 306.425C422.769 306.518 422.976 306.601 423.188 306.71V306.694Z" fill="#8282D9"/>
<path d="M406.792 329.089L417.691 350.275C402.788 337.915 388.18 323.405 379.527 314.445C389.693 320.62 400.856 326.216 406.792 329.089Z" fill="white"/>
<path d="M407.815 377.346C406.575 376.385 405.335 375.407 404.096 374.411C405.418 375.383 406.658 376.361 407.815 377.346Z" fill="white"/>
<path d="M389.924 288.81C389.881 289.45 389.744 290.081 389.516 290.681C387.693 295.481 380.399 297.16 373.224 294.437C369.174 292.887 366.038 290.303 364.38 287.441C364.478 287.306 364.576 287.172 364.679 287.043C366.885 284.18 370.137 282.309 373.72 281.841C377.303 281.373 380.926 282.346 383.792 284.547C385.611 285.927 387.687 287.368 389.924 288.81Z" fill="white"/>
<path d="M363.814 389.453C371.562 393.07 376.17 399.685 374.068 404.206C373.081 406.309 370.829 407.59 367.91 407.994C366.492 407.266 365.031 406.626 363.535 406.076C361.851 405.464 360.304 404.525 358.983 403.314C357.662 402.103 356.593 400.642 355.837 399.017C355.081 397.392 354.654 395.633 354.578 393.842C354.503 392.051 354.782 390.263 355.399 388.58C355.567 388.121 355.758 387.671 355.972 387.231C358.691 387.53 361.342 388.281 363.814 389.453Z" fill="white"/>
<path d="M363.451 301.77C366.572 302.223 369.441 303.742 371.571 306.069C371.649 306.157 373.56 308.244 376.794 311.629C374.237 315.406 367.661 316.543 361.183 314.078C356.534 312.306 353.058 309.112 351.704 305.774C351.895 305.578 352.097 305.382 352.298 305.201C353.787 303.838 355.559 302.823 357.488 302.229C359.417 301.636 361.454 301.479 363.451 301.77Z" fill="white"/>
<path d="M407.845 377.367C424.292 391.36 424.101 405.932 418.419 415.941C418.097 416.5 417.637 416.966 417.083 417.296C416.529 417.626 415.899 417.807 415.254 417.823C414.61 417.838 413.972 417.687 413.403 417.385C412.833 417.083 412.351 416.639 412.003 416.096C411.993 416.077 411.981 416.06 411.967 416.044C403.929 403.73 394.176 388.234 372.904 380.452C369.744 379.299 366.271 379.354 363.149 380.605C360.027 381.856 357.476 384.215 355.986 387.231C355.772 387.671 355.581 388.121 355.413 388.58C354.795 390.262 354.515 392.05 354.589 393.841C354.663 395.632 355.089 397.39 355.843 399.016C356.597 400.642 357.665 402.103 358.985 403.315C360.304 404.528 361.85 405.468 363.533 406.081C365.03 406.631 366.491 407.271 367.909 407.999C377.636 413.026 382.962 421.32 388.995 430.735C397.441 443.932 407.953 460.364 432.025 460.364H519V368.443H478.888C476.135 368.441 473.439 367.664 471.106 366.203C468.773 364.741 466.898 362.652 465.695 360.175L446.349 320.542C444.484 316.722 441.653 313.455 438.136 311.067C434.62 308.678 430.54 307.251 426.302 306.926L423.202 306.689" stroke="#2F2F38" stroke-width="4" stroke-linecap="round" stroke-linejoin="round"/>
<path d="M404.096 374.411C405.418 375.383 406.658 376.361 407.815 377.346" stroke="#2F2F38" stroke-width="4" stroke-linecap="round" stroke-linejoin="round"/>
<path d="M379.527 314.46C388.18 323.4 402.773 337.925 417.691 350.29C422.495 354.28 427.336 358.041 432.005 361.317" stroke="#2F2F38" stroke-width="4" stroke-linecap="round" stroke-linejoin="round"/>
<path d="M407.846 377.367H407.815C406.575 376.406 405.335 375.428 404.095 374.432C377.993 353.458 352.666 325.859 351.431 324.49C349.087 321.926 347.81 318.563 347.861 315.088C347.912 311.614 349.287 308.29 351.705 305.795C351.896 305.599 352.098 305.402 352.299 305.221C354.971 302.781 358.501 301.502 362.115 301.665C365.729 301.828 369.131 303.419 371.572 306.089C371.65 306.177 378.53 313.458 379.517 314.476" stroke="#2F2F38" stroke-width="4" stroke-linecap="round" stroke-linejoin="round"/>
<path d="M417.691 350.275L406.792 329.089C400.836 326.195 389.693 320.599 379.527 314.44" stroke="#2F2F38" stroke-width="4" stroke-linecap="round" stroke-linejoin="round"/>
<path d="M364.38 287.436C364.478 287.301 364.576 287.167 364.679 287.038C366.885 284.174 370.137 282.303 373.72 281.835C377.303 281.368 380.926 282.341 383.792 284.542C385.6 285.927 387.677 287.368 389.914 288.81C403.288 297.439 422.303 306.286 422.53 306.379C422.757 306.472 422.964 306.591 423.176 306.699C425.655 308.009 427.669 310.054 428.94 312.554L454.216 361.643" stroke="#2F2F38" stroke-width="4" stroke-linecap="round" stroke-linejoin="round"/>
<path d="M363.451 301.77C362.259 299.531 361.714 297.004 361.878 294.473C362.043 291.941 362.909 289.506 364.381 287.441" stroke="#2F2F38" stroke-width="4" stroke-linecap="round" stroke-linejoin="round"/>
<path d="M376.794 311.629C374.237 315.406 367.661 316.543 361.183 314.078C356.534 312.306 353.058 309.112 351.704 305.774" stroke="#2F2F38" stroke-width="4" stroke-linecap="round" stroke-linejoin="round"/>
<path d="M389.924 288.784C389.881 289.425 389.744 290.055 389.516 290.655C387.693 295.455 380.399 297.135 373.224 294.411C369.174 292.861 366.038 290.278 364.38 287.415" stroke="#2F2F38" stroke-width="4" stroke-linecap="round" stroke-linejoin="round"/>
<path d="M355.987 387.231C358.701 387.531 361.346 388.282 363.813 389.453C371.562 393.07 376.17 399.685 374.067 404.206C373.081 406.309 370.828 407.59 367.91 407.994" stroke="#2F2F38" stroke-width="4" stroke-linecap="round" stroke-linejoin="round"/>
<path d="M162.026 208.092C161.602 208.96 161.189 209.844 160.802 210.738C153.798 226.688 153.255 244.734 159.288 261.077C165.32 277.419 177.457 290.783 193.142 298.353C208.827 305.923 226.837 307.109 243.38 301.662C259.922 296.215 273.705 284.559 281.828 269.149C282.627 267.633 283.376 266.083 284.075 264.498C291.225 248.358 291.743 230.053 285.519 213.534C279.295 197.014 266.827 183.606 250.806 176.201C234.785 168.797 216.496 167.991 199.886 173.958C183.277 179.924 169.678 192.184 162.026 208.092ZM254.667 163.617C264.406 167.832 273.217 173.928 280.597 181.555C287.977 189.182 293.78 198.19 297.674 208.064C301.568 217.938 303.477 228.484 303.29 239.097C303.104 249.709 300.826 260.181 296.587 269.912C292.349 279.643 286.233 288.442 278.59 295.805C270.946 303.168 261.926 308.95 252.046 312.82C242.165 316.691 231.618 318.573 221.009 318.36C210.4 318.146 199.937 315.842 190.22 311.577C186.855 310.109 183.591 308.417 180.452 306.513C162.994 295.87 150.227 278.993 144.731 259.294C139.235 239.595 141.421 218.544 150.847 200.396C160.273 182.247 176.235 168.355 195.507 161.528C214.779 154.701 235.924 155.448 254.667 163.617Z" fill="white"/>
<path d="M282.852 208.092C287.13 216.836 289.455 226.407 289.667 236.139C289.878 245.872 287.971 255.535 284.077 264.457C283.388 266.052 282.639 267.602 281.83 269.107H240.928V208.092H282.852Z" fill="white"/>
<path d="M210.413 208.092V270.006H163.53C158.569 260.999 155.743 250.973 155.27 240.7C154.797 230.427 156.69 220.183 160.802 210.758C161.19 209.864 161.603 208.981 162.026 208.113L210.413 208.092Z" fill="white"/>
<path d="M282.852 208.092H240.928V269.149H281.83C276.146 279.86 267.673 288.836 257.307 295.124C246.942 301.413 235.069 304.78 222.946 304.871C210.823 304.962 198.902 301.771 188.443 295.638C177.984 289.506 169.378 280.658 163.536 270.032H210.419V208.092H162.027C167.552 196.771 176.144 187.23 186.825 180.557C197.506 173.883 209.846 170.344 222.44 170.344C235.033 170.344 247.374 173.883 258.055 180.557C268.736 187.23 277.328 196.771 282.852 208.092Z" fill="#2F2F38"/>
<path d="M190.221 311.577C193.631 313.066 197.14 314.316 200.723 315.318C200.687 315.427 200.645 315.53 200.604 315.628L186.089 351.055L163.463 343.216C163.463 343.216 180.406 306.596 180.453 306.529C183.593 308.428 186.856 310.114 190.221 311.577Z" fill="white"/>
<path d="M196.424 354.641C207.246 359.173 198.873 378.623 185.334 378.623H185.292C185.101 378.622 184.915 378.681 184.758 378.79C184.601 378.899 184.482 379.054 184.417 379.234C184.351 379.414 184.342 379.609 184.392 379.794C184.441 379.978 184.547 380.143 184.693 380.266C191.408 385.831 185.985 403.854 172.053 403.854H170.916C170.534 403.855 170.16 403.963 169.836 404.166C169.513 404.369 169.253 404.659 169.086 405.003C168.92 405.347 168.853 405.731 168.895 406.111C168.936 406.49 169.083 406.851 169.32 407.151C174.811 414.101 168.328 429.091 155.796 429.091H38.9385V343.315H114.91L132.726 327.229C136.224 324.073 140.559 321.995 145.209 321.247C149.859 320.499 154.627 321.112 158.937 323.012L170.565 327.885L163.462 343.232L196.424 354.641Z" fill="#F167B3"/>
<path d="M154.107 429.092L134.478 476.972C132.935 480.579 130.035 483.434 126.405 484.921C122.775 486.408 118.706 486.407 115.076 484.918C111.447 483.43 108.549 480.573 107.007 476.965C105.465 473.357 105.404 469.287 106.836 465.635C106.914 465.449 107.017 465.216 107.1 465.03L123.728 429.092H154.107Z" fill="white"/>
<path d="M170.565 327.875L158.937 323.002C154.627 321.102 149.859 320.489 145.209 321.237C140.559 321.985 136.224 324.062 132.726 327.219L114.91 343.304H38.9385V429.081H155.796" stroke="#2F2F38" stroke-width="4" stroke-linecap="round" stroke-linejoin="round"/>
<path d="M155.797 429.092C168.329 429.092 174.812 414.106 169.321 407.151C169.084 406.851 168.937 406.491 168.895 406.111C168.854 405.731 168.92 405.347 169.087 405.003C169.253 404.659 169.513 404.369 169.837 404.166C170.161 403.963 170.535 403.855 170.917 403.854H172.053C186.001 403.854 191.43 385.831 184.694 380.266C184.547 380.143 184.442 379.978 184.393 379.794C184.343 379.609 184.352 379.414 184.417 379.234C184.483 379.054 184.602 378.899 184.758 378.79C184.915 378.681 185.102 378.622 185.293 378.623H185.334C198.873 378.623 207.247 359.173 196.425 354.641L163.463 343.222" stroke="#2F2F38" stroke-width="4" stroke-linecap="round" stroke-linejoin="round"/>
<path d="M200.723 315.323C200.687 315.432 200.646 315.535 200.604 315.633L186.089 351.06" stroke="#2F2F38" stroke-width="4" stroke-linecap="round" stroke-linejoin="round"/>
<path d="M154.107 429.092L134.478 476.972C132.935 480.579 130.035 483.434 126.405 484.921C122.775 486.408 118.706 486.407 115.076 484.918C111.447 483.43 108.549 480.573 107.007 476.965C105.465 473.357 105.404 469.287 106.836 465.635C106.914 465.449 107.017 465.216 107.1 465.03L123.728 429.092" stroke="#2F2F38" stroke-width="4" stroke-linecap="round" stroke-linejoin="round"/>
<path d="M163.463 343.222C163.463 343.222 180.406 306.601 180.453 306.534" stroke="#2F2F38" stroke-width="4" stroke-linecap="round" stroke-linejoin="round"/>
<path d="M200.723 315.318C238.923 326.009 280.109 307.221 296.396 269.846C302.58 255.643 304.546 239.96 302.06 224.669C299.574 209.379 292.741 195.127 282.376 183.617C272.011 172.106 258.554 163.823 243.61 159.756C228.667 155.69 212.869 156.012 198.103 160.684C183.338 165.357 170.229 174.181 160.342 186.105C150.455 198.028 144.208 212.547 142.346 227.926C140.485 243.305 143.089 258.895 149.846 272.834C156.603 286.773 167.228 298.472 180.453 306.534C183.592 308.438 186.856 310.13 190.221 311.598C193.632 313.077 197.141 314.32 200.723 315.318Z" stroke="#2F2F38" stroke-width="4" stroke-linecap="round" stroke-linejoin="round"/>
<path d="M281.829 269.149C282.628 267.633 283.377 266.083 284.076 264.498C291.196 248.145 291.53 229.633 285.006 213.033C278.482 196.433 265.633 183.106 249.286 175.982C216.143 161.514 177.756 175.951 162.027 208.133C161.603 209.007 161.19 209.885 160.803 210.779C153.877 226.718 153.389 244.72 159.441 261.011C165.492 277.302 177.613 290.618 193.263 298.165C208.914 305.713 226.877 306.908 243.388 301.498C259.899 296.089 273.676 284.495 281.829 269.149Z" stroke="#2F2F38" stroke-width="4" stroke-linecap="round" stroke-linejoin="round"/>
<path d="M162.022 208.092H210.414V270.006H163.526" stroke="#2F2F38" stroke-width="4" stroke-linecap="round" stroke-linejoin="round"/>
<path d="M281.83 269.123H240.928V208.092H282.852" stroke="#2F2F38" stroke-width="4" stroke-linecap="round" stroke-linejoin="round"/>
</svg>
