<svg width="206" height="205" viewBox="0 0 206 205" fill="none" xmlns="http://www.w3.org/2000/svg">
<circle cx="102.634" cy="102.5" r="102.5" fill="#FF249C"/>
<path d="M139.333 70.5051L139.335 70.5066C147.966 79.2136 153.314 90.6422 154.47 102.848C155.625 115.054 152.515 127.283 145.67 137.454C138.825 147.626 128.668 155.112 116.926 158.638C105.184 162.165 92.5822 161.515 81.2656 156.798C69.949 152.081 60.6162 143.589 54.8549 132.767C49.0936 121.944 47.2597 109.46 49.6653 97.4384C52.0708 85.4164 58.5672 74.5992 68.0492 66.8271C77.5312 59.055 89.4131 54.8081 101.673 54.8089L101.675 54.8089C108.679 54.8 115.615 56.1831 122.08 58.8777C128.544 61.5722 134.409 65.5246 139.333 70.5051ZM126.039 83.8598C120.472 78.2171 113.119 74.682 105.236 73.8583C97.3527 73.0345 89.4279 74.9733 82.8152 79.3435C76.2025 83.7136 71.3122 90.244 68.9795 97.8192C66.6468 105.394 67.0164 113.545 70.0253 120.877C73.0341 128.21 78.4954 134.271 85.4766 138.025C92.4577 141.779 100.525 142.992 108.302 141.458C116.078 139.924 123.081 135.738 128.114 129.615C133.146 123.492 135.897 115.812 135.896 107.886C135.906 98.8909 132.363 90.2559 126.039 83.8598Z" fill="#8282D9" stroke="#2F2F38" stroke-width="3"/>
<path d="M106.382 103.582C105.383 102.54 104.052 101.879 102.618 101.711C101.184 101.543 99.7369 101.88 98.5242 102.663C97.3115 103.446 96.4092 104.627 95.9722 106.002C95.5352 107.378 95.5908 108.863 96.1294 110.203C96.6679 111.542 97.6559 112.652 98.9237 113.342C100.192 114.033 101.66 114.26 103.077 113.986C104.495 113.711 105.772 112.952 106.691 111.838C107.609 110.725 108.111 109.326 108.111 107.882C108.112 106.279 107.493 104.738 106.382 103.582ZM115.168 94.8151C118.19 97.8822 120.058 101.901 120.452 106.189C120.847 110.478 119.745 114.77 117.333 118.337C114.921 121.905 111.348 124.527 107.221 125.758C103.095 126.989 98.6692 126.753 94.6969 125.09C90.7246 123.427 87.4506 120.44 85.4314 116.637C83.4122 112.834 82.7723 108.448 83.6206 104.226C84.4688 100.004 86.7528 96.2066 90.0844 93.4782C93.4159 90.7498 97.5895 89.2592 101.896 89.2598C104.366 89.257 106.812 89.7468 109.091 90.7007C111.37 91.6546 113.436 93.0533 115.168 94.8151Z" fill="#D7CCFF" stroke="#2F2F38" stroke-width="3"/>
<path d="M148.601 61.2431V45.4143L165.015 28.9998V44.8286" fill="#F5F5F5"/>
<path d="M148.601 61.2431V45.4143L165.015 28.9998V44.8286" stroke="#2F2F38" stroke-width="3" stroke-linecap="round" stroke-linejoin="round"/>
<path d="M165.015 44.5557H180.571L164.156 60.9702H148.601" fill="#F5F5F5"/>
<path d="M165.015 44.5557H180.571L164.156 60.9702H148.601" stroke="#2F2F38" stroke-width="3" stroke-linecap="round" stroke-linejoin="round"/>
<path d="M165.289 44.5557L102 107.851" stroke="#2F2F38" stroke-width="3" stroke-linecap="round" stroke-linejoin="round"/>
<path d="M119.985 21.9998L118.761 26.5217C118.357 28.0127 117.571 29.3721 116.479 30.4648C115.387 31.5575 114.028 32.3455 112.538 32.7503L108.005 33.978L112.538 35.2089C114.028 35.6125 115.387 36.3997 116.479 37.4919C117.571 38.5842 118.358 39.9434 118.761 41.4342L119.985 45.9626L121.21 41.4375C121.613 39.9461 122.401 38.5864 123.493 37.4937C124.585 36.4009 125.945 35.6132 127.436 35.2089L131.968 33.978L127.436 32.7503C125.945 32.3451 124.586 31.5571 123.494 30.4645C122.402 29.3719 121.614 28.0126 121.21 26.5217L119.985 21.9998Z" stroke="#2F2F38" stroke-width="3" stroke-linecap="round" stroke-linejoin="round"/>
<path d="M135.33 43.9998L134.785 46.0095C134.606 46.6722 134.257 47.2764 133.771 47.762C133.286 48.2477 132.682 48.5979 132.02 48.7778L130.005 49.3234L132.02 49.8705C132.682 50.0499 133.286 50.3997 133.772 50.8852C134.257 51.3706 134.606 51.9747 134.785 52.6373L135.33 54.6499L135.874 52.6387C136.053 51.9759 136.403 51.3716 136.889 50.8859C137.374 50.4003 137.978 50.0502 138.641 49.8705L140.656 49.3234L138.641 48.7778C137.979 48.5977 137.375 48.2475 136.889 47.7618C136.404 47.2762 136.054 46.6721 135.874 46.0095L135.33 43.9998Z" stroke="#2F2F38" stroke-width="2" stroke-linecap="round" stroke-linejoin="round"/>
</svg>
