<svg width="178" height="178" viewBox="0 0 178 178" fill="none" xmlns="http://www.w3.org/2000/svg">
<ellipse cx="88.6348" cy="88.9998" rx="88.5" ry="89" fill="#D7CCFF"/>
<path d="M124.782 122.839C129.138 115.494 131.434 107.126 131.424 98.5994V98.5992C131.411 87.8823 127.098 77.6129 119.44 70.042C111.782 62.4718 101.405 58.2171 90.5848 58.2037L90.5802 58.2037C81.8194 58.2132 73.4157 61.6576 67.2139 67.7885C61.0114 73.9201 57.5184 82.2385 57.5088 90.9199L57.5088 90.9243C57.5158 97.5697 60.1896 103.936 64.9358 108.628C69.6812 113.32 76.1106 115.954 82.8119 115.961H82.814C87.4576 115.961 91.9157 114.138 95.2062 110.885C98.4852 107.643 100.337 103.246 100.351 98.6534C100.359 98.4711 100.358 98.2884 100.348 98.1062C100.225 95.6876 99.1912 93.4066 97.4573 91.7093C95.728 90.0165 93.4268 89.0259 91.0047 88.9244C89.4729 88.8406 87.9637 89.3426 86.7905 90.3324C85.6119 91.3269 84.863 92.7381 84.7082 94.2734L84.7058 94.2978L84.7039 94.3222C84.6426 95.1285 84.7506 95.9382 85.0208 96.7003C85.2909 97.4623 85.717 98.1592 86.2709 98.7479C86.8248 99.3365 87.4944 99.8041 88.2371 100.123C88.277 100.14 88.3171 100.156 88.3573 100.173C88.091 101.084 87.5945 101.924 86.901 102.61C85.8209 103.677 84.3512 104.281 82.814 104.281C79.2164 104.281 75.7708 102.868 73.2339 100.36C70.6982 97.8538 69.2778 94.4591 69.2772 90.9243L124.782 122.839ZM124.782 122.839C132.74 114.074 137.143 102.708 137.135 90.9243C137.128 84.5746 135.846 78.2889 133.361 72.4318C130.877 66.5747 127.24 61.2621 122.661 56.803C118.081 52.3438 112.65 48.8271 106.682 46.4579C100.714 44.0889 94.3288 42.9149 87.8971 43.0045C62.017 43.3925 40.8443 64.1 40.1451 89.6265C39.9674 96.5423 42.0516 107.976 48.4999 117.622C54.8763 127.159 65.5379 134.999 82.8115 135C92.5869 134.988 101.954 131.143 108.859 124.317C115.763 117.492 119.643 108.244 119.656 98.6015C119.647 90.9952 116.587 83.6983 111.139 78.3127C105.69 72.9262 98.2977 69.8922 90.5823 69.8833M124.782 122.839L90.5823 69.8833M90.5823 69.8833C84.9265 69.8897 79.5087 72.1138 75.5163 76.0606C71.5242 80.007 69.2831 85.353 69.2772 90.9241L90.5823 69.8833Z" fill="#F5F5F5" stroke="#2F2F38" stroke-width="4"/>
<path d="M89.1621 8.99976L89.1621 29.0885" stroke="#2F2F38" stroke-width="4" stroke-linecap="round"/>
<path d="M44.9434 45.252L33.1355 28.9998" stroke="#2F2F38" stroke-width="4" stroke-linecap="round"/>
<path d="M146.695 28.8564L134.887 45.1086" stroke="#2F2F38" stroke-width="4" stroke-linecap="round"/>
<path d="M170.657 88.9351H150.568" stroke="#2F2F38" stroke-width="4" stroke-linecap="round"/>
<path d="M28.2236 88.9351H8.13487" stroke="#2F2F38" stroke-width="4" stroke-linecap="round"/>
<path d="M89.1621 168.089L89.1621 148" stroke="#2F2F38" stroke-width="4" stroke-linecap="round"/>
<path d="M43.2358 131.345L28.0747 144.524" stroke="#2F2F38" stroke-width="4" stroke-linecap="round"/>
<path d="M149.533 146.281L134.372 133.101" stroke="#2F2F38" stroke-width="4" stroke-linecap="round"/>
</svg>
