<svg width="206" height="207" viewBox="0 0 206 207" fill="none" xmlns="http://www.w3.org/2000/svg">
<ellipse cx="102.635" cy="103.5" rx="102.5" ry="103.079" fill="#FF249C"/>
<path d="M104.372 53.1184L55.728 67.5958V98.867L76.5755 134.771L104.372 155.039L133.327 131.875L150.7 98.867V67.5958L104.372 53.1184Z" fill="#8282D9"/>
<path d="M103.759 50.2254C105.559 50.2254 107.331 50.3422 108.98 50.6169C110.604 50.8297 112.206 51.1836 113.768 51.6748C115.334 52.1487 116.866 52.7395 118.397 53.4814C119.888 54.1889 121.42 55.0544 122.952 55.9954C125.541 57.644 128.09 58.9766 130.686 60.0413C135.798 62.0872 141.203 63.3046 146.698 63.6476C149.487 63.8468 152.351 63.9636 155.333 63.9636V91.4399C155.333 96.6605 154.666 101.606 153.334 106.318C152.054 110.963 150.235 115.443 147.914 119.665C145.603 123.882 142.869 127.852 139.753 131.514C136.59 135.26 133.166 138.777 129.505 142.038C125.796 145.308 121.889 148.348 117.807 151.139C113.726 153.969 109.605 156.6 105.484 158.991L103.835 159.973L102.186 158.991C97.9495 156.538 93.8111 153.918 89.7808 151.139C85.6758 148.379 81.7671 145.338 78.0827 142.038C74.4242 138.777 71.0016 135.26 67.8409 131.514C64.734 127.836 61.9875 123.868 59.6392 119.665C57.3582 115.424 55.5411 110.949 54.2195 106.318C52.8784 101.474 52.2173 96.4665 52.2549 91.4399V63.9636C55.243 63.9636 58.1074 63.8468 60.8963 63.6476C63.6416 63.4569 66.3691 63.0643 69.0567 62.473C71.6876 61.8822 74.3185 61.0992 76.9081 60.0413C79.5953 58.9568 82.1717 57.6157 84.6015 56.0367C87.6239 54.0721 90.6875 52.6227 93.7099 51.6679C96.9649 50.67 100.355 50.1834 103.759 50.2254ZM148.422 70.7159C143.223 70.4636 138.071 69.5943 133.077 68.1263C128.109 66.6443 123.376 64.4633 119.023 61.6487C116.764 60.1663 114.312 59.0036 111.734 58.1935C109.16 57.4155 106.483 57.0311 103.794 57.0533C101.085 57.0358 98.3877 57.42 95.7912 58.1935C93.2103 58.9773 90.7608 60.1418 88.5237 61.6487C84.1623 64.4786 79.4179 66.6692 74.4352 68.1537C69.5651 69.5688 64.4682 70.4343 59.124 70.7502V91.4743C59.124 96.0285 59.7148 100.384 60.8963 104.581C62.0999 108.741 63.7585 112.756 65.842 116.553C67.9505 120.39 70.4356 124.007 73.2606 127.352C76.125 130.724 79.1818 133.863 82.4789 136.845C85.7761 139.833 89.2313 142.58 92.8444 145.129C96.4919 147.684 100.146 149.999 103.794 152.115C107.529 149.94 111.17 147.61 114.709 145.129C118.346 142.588 121.819 139.822 125.109 136.845C128.406 133.863 131.469 130.724 134.334 127.352C137.159 124.007 139.644 120.39 141.752 116.553C143.827 112.761 145.461 108.744 146.623 104.581C147.84 100.319 148.446 95.9062 148.422 91.4743V70.7159Z" fill="#2F2F38"/>
<path fill-rule="evenodd" clip-rule="evenodd" d="M129.367 82.5721L126.345 79.9756L123.556 80.216L93.607 115.578L83.4064 101.016L80.6588 100.549L77.4784 102.822L77.0044 105.57L90.1175 124.295L91.6081 125.119L94.7473 125.312L96.3546 124.611L129.567 85.3541L129.367 82.5721Z" fill="#2F2F38"/>
</svg>
