<svg width="1728" height="838" viewBox="0 0 1728 838" fill="none" xmlns="http://www.w3.org/2000/svg">
<path d="M240.053 457.293C248.876 454.557 257.352 462.399 255.31 471.408L240.177 538.171C238.135 547.181 227.106 550.601 220.325 544.328L170.073 497.84C163.291 491.567 165.844 480.306 174.667 477.57L240.053 457.293Z" fill="#595AA0"/>
<path d="M707.261 37.4856C706.706 35.2437 708.786 33.2424 711.005 33.8831L735.75 41.0295C737.969 41.6703 738.662 44.4726 736.998 46.0737L718.436 63.9302C716.772 65.5313 713.998 64.7304 713.444 62.4885L707.261 37.4856Z" fill="#595AA0"/>
<path d="M1343.62 571.047C1352.41 568.217 1360.97 575.967 1359.03 584.998L1344.61 651.919C1342.66 660.95 1331.67 664.487 1324.82 658.287L1274.08 612.339C1267.23 606.138 1269.66 594.851 1278.45 592.02L1343.62 571.047Z" fill="#595AA0"/>
<path d="M1609.05 421.271C1613.31 413.077 1624.85 412.573 1629.81 420.364L1855.97 775.322C1860.93 783.113 1855.6 793.356 1846.37 793.759L1425.89 812.136C1416.66 812.54 1410.46 802.801 1414.72 794.607L1609.05 421.271Z" fill="#595AA0"/>
<path d="M1437.28 16.1788C1434.71 7.30571 1442.71 -1.02129 1451.68 1.19022L1750.12 74.7779C1759.09 76.9894 1762.3 88.0808 1755.9 94.7424L1542.96 316.406C1536.56 323.067 1525.34 320.303 1522.78 311.43L1437.28 16.1788Z" fill="#595AA0"/>
<path fill-rule="evenodd" clip-rule="evenodd" d="M482.713 539.92C474.325 536.05 464.894 542.712 465.737 551.911L491.677 835H647.594L818.188 714.501C825.733 709.171 824.679 697.672 816.291 693.803L482.713 539.92Z" fill="#595AA0"/>
<path fill-rule="evenodd" clip-rule="evenodd" d="M-100.999 838H70.3583L251.382 770.848C260.043 767.635 261.978 756.251 254.866 750.357L-27.9975 515.959C-35.1104 510.064 -45.9365 514.08 -47.4845 523.187L-100.999 838Z" fill="#595AA0"/>
</svg>
