<svg width="205" height="207" viewBox="0 0 205 207" fill="none" xmlns="http://www.w3.org/2000/svg">
<ellipse cx="102.5" cy="103.079" rx="102.5" ry="103.079" fill="#FF249C"/>
<path d="M168.28 110.312V110.31C168.258 92.3366 161.13 75.1045 148.457 62.394C135.784 49.6834 118.601 42.5324 100.677 42.5112L100.673 42.5112C84.0237 42.5308 68.0624 49.1733 56.2907 60.98C44.5191 72.7866 37.898 88.7931 37.8784 105.488L37.8784 105.492C37.8964 120.908 44.0104 135.689 54.8808 146.592C65.7513 157.495 80.4907 163.629 95.8658 163.647H95.8693C109.97 163.63 123.487 158.005 133.457 148.006C143.426 138.007 149.033 124.452 149.049 110.314V110.31C149.034 97.4501 143.934 85.1201 134.867 76.0253C125.799 66.9303 113.503 61.8135 100.677 61.7987L100.673 61.7987C89.122 61.8119 78.0483 66.4202 69.8816 74.6112C61.7149 82.8021 57.122 93.9065 57.1088 105.488L57.1088 105.492C57.1204 115.795 61.2063 125.674 68.4717 132.961C75.7372 140.248 85.589 144.348 95.8659 144.359H95.8693C104.872 144.349 113.502 140.758 119.866 134.375C126.23 127.992 129.809 119.339 129.819 110.313V110.31C129.809 102.564 126.736 95.1369 121.274 89.6583C115.811 84.1795 108.404 81.0962 100.677 81.0861H100.675C94.2194 81.0861 88.029 83.6583 83.4654 88.2354C78.902 92.8124 76.3391 99.0191 76.3391 105.49C76.3391 110.682 78.3955 115.662 82.0573 119.335C85.7193 123.008 90.6869 125.072 95.8676 125.072C99.7733 125.072 103.518 123.516 106.278 120.747C109.039 117.979 110.588 114.225 110.588 110.312C110.588 107.677 109.545 105.15 107.687 103.286C105.828 101.422 103.306 100.374 100.675 100.374C99.3196 100.374 98.0205 100.914 97.0634 101.874C96.1063 102.834 95.5695 104.134 95.5695 105.49C95.5695 106.845 96.1063 108.146 97.0633 109.106C97.948 109.993 99.1247 110.522 100.368 110.597C100.299 111.695 99.8337 112.733 99.0547 113.515C98.2087 114.363 97.0622 114.839 95.8676 114.839C93.398 114.839 91.0286 113.855 89.281 112.102C87.5332 110.349 86.5505 107.971 86.5505 105.49C86.5505 101.73 88.0397 98.1252 90.6891 95.4679C93.3384 92.8108 96.9305 91.3189 100.675 91.3189C105.695 91.3189 110.51 93.3189 114.061 96.8802C117.612 100.442 119.607 105.273 119.607 110.312C119.607 116.629 117.105 122.687 112.653 127.153C108.201 131.618 102.164 134.126 95.8694 134.127C88.3019 134.118 81.046 131.098 75.6936 125.73C70.3415 120.362 67.3297 113.083 67.3202 105.49C67.3313 96.6182 70.8501 88.1139 77.1035 81.842C83.3567 75.5702 91.8338 72.0426 100.675 72.0315C110.791 72.0442 120.49 76.0803 127.645 83.256C134.799 90.4319 138.825 100.162 138.838 110.312C138.824 121.74 134.291 132.696 126.235 140.775C118.179 148.855 107.258 153.4 95.8676 153.414C83.2025 153.398 71.0597 148.345 62.1027 139.361C53.1455 130.378 48.1057 118.197 48.0898 105.49C48.1057 91.5043 53.6521 78.097 63.5108 68.209C73.3694 58.3212 86.735 52.76 100.675 52.744C115.89 52.7616 130.477 58.8313 141.237 69.6231C151.998 80.4154 158.051 95.0489 158.068 110.313C158.069 111.668 158.605 112.969 159.562 113.928C160.519 114.888 161.818 115.428 163.174 115.428C164.529 115.428 165.829 114.888 166.786 113.928C167.743 112.968 168.28 111.667 168.28 110.312Z" fill="#F5F5F5" stroke="black" stroke-width="3"/>
</svg>
