<svg width="204" height="205" viewBox="0 0 204 205" fill="none" xmlns="http://www.w3.org/2000/svg">
<ellipse cx="101.635" cy="102.5" rx="101.5" ry="102.5" fill="#FF249C"/>
<path d="M144.372 83.8873L144.372 85.824C144.119 91.6347 142.717 97.3419 140.243 102.607C137.597 108.241 133.787 113.232 129.075 117.248H73.1739C67.7916 112.646 63.6002 106.781 60.971 100.161C58.2536 93.3178 57.2938 85.8912 58.1816 78.5721C59.0694 71.253 61.7757 64.281 66.047 58.3045C70.3183 52.3282 76.0155 47.5419 82.607 44.3891C89.1985 41.2363 96.4713 39.8187 103.749 40.2671C111.027 40.7155 118.076 43.0155 124.24 46.9548C130.404 50.8941 135.484 56.3451 139.004 62.8025C142.525 69.2601 144.372 76.5133 144.372 83.8873Z" fill="#F5F5F5" stroke="#2F2F38" stroke-width="4"/>
<path d="M72.4888 119.248H129.846C121.032 132.923 118.094 141.851 115.422 158.027H86.9049C84.2399 141.866 81.2951 132.923 72.4888 119.248ZM111.736 130.55C111.873 129.894 111.745 129.21 111.383 128.649C111.02 128.088 110.452 127.696 109.802 127.558C109.153 127.42 108.476 127.549 107.921 127.915C107.365 128.281 106.976 128.856 106.84 129.511C105.61 135.574 104.752 141.707 104.273 147.877C104.244 148.206 104.28 148.537 104.378 148.852C104.477 149.167 104.636 149.459 104.846 149.712C105.057 149.965 105.315 150.173 105.605 150.325C105.896 150.476 106.213 150.569 106.539 150.596C106.611 150.603 106.684 150.603 106.756 150.596C107.379 150.595 107.979 150.359 108.438 149.935C108.898 149.51 109.183 148.927 109.239 148.301C109.709 142.34 110.543 136.414 111.736 130.557V130.55ZM95.7463 150.603C96.0728 150.577 96.3909 150.485 96.6821 150.334C96.9734 150.182 97.2322 149.974 97.4435 149.721C97.6548 149.469 97.8145 149.176 97.9134 148.861C98.0122 148.545 98.0483 148.213 98.0196 147.884C97.5449 141.713 96.6851 135.579 95.4455 129.518C95.3092 128.863 94.9205 128.289 94.3649 127.922C93.8094 127.556 93.1325 127.428 92.4832 127.565C91.834 127.703 91.2654 128.095 90.9027 128.656C90.54 129.217 90.4128 129.901 90.5492 130.557C91.7415 136.423 92.5708 142.359 93.0323 148.329C93.0865 148.955 93.3707 149.537 93.829 149.962C94.2872 150.387 94.8863 150.623 95.5084 150.625C95.588 150.629 95.6678 150.624 95.7463 150.61V150.603Z" fill="#2F2F38"/>
<path d="M90.5762 158.027C91.1762 160.401 92.5418 162.505 94.4575 164.008C96.3732 165.511 98.7299 166.327 101.156 166.327C103.582 166.327 105.938 165.511 107.854 164.008C109.77 162.505 111.135 160.401 111.735 158.027" stroke="#2F2F38" stroke-width="4" stroke-linecap="round" stroke-linejoin="round"/>
</svg>
