<svg width="629" height="470" viewBox="0 0 629 470" fill="none" xmlns="http://www.w3.org/2000/svg">
<path d="M449.99 300.19C438.786 300.198 427.837 303.526 418.526 309.752C409.214 315.979 401.959 324.824 397.678 335.171C393.396 345.517 392.28 356.9 394.471 367.881C396.661 378.861 402.061 388.946 409.985 396.86C417.91 404.774 428.005 410.162 438.994 412.344C449.983 414.525 461.372 413.401 471.722 409.115C482.072 404.828 490.917 397.571 497.141 388.261C503.364 378.951 506.686 368.006 506.686 356.809C506.686 349.37 505.219 342.004 502.369 335.132C499.52 328.26 495.343 322.017 490.077 316.759C484.812 311.5 478.562 307.331 471.683 304.488C464.805 301.645 457.433 300.184 449.99 300.19ZM449.99 377.672C445.858 377.672 441.82 376.448 438.385 374.154C434.95 371.86 432.273 368.6 430.692 364.786C429.111 360.971 428.697 356.774 429.503 352.725C430.309 348.675 432.298 344.956 435.22 342.036C438.141 339.117 441.863 337.129 445.915 336.323C449.966 335.518 454.166 335.931 457.983 337.511C461.8 339.091 465.062 341.767 467.357 345.2C469.653 348.633 470.878 352.669 470.878 356.797C470.878 362.334 468.677 367.643 464.76 371.558C460.842 375.473 455.53 377.672 449.99 377.672Z" fill="white" stroke="#2F2F38" stroke-width="4" stroke-linecap="round" stroke-linejoin="round"/>
<path d="M449.99 300.19C438.786 300.198 427.837 303.526 418.526 309.752C409.214 315.979 401.959 324.824 397.678 335.171C393.396 345.517 392.28 356.9 394.471 367.881C396.661 378.861 402.061 388.946 409.985 396.86C417.91 404.774 428.005 410.162 438.994 412.344C449.983 414.525 461.372 413.401 471.722 409.115C482.072 404.828 490.917 397.571 497.141 388.261C503.364 378.951 506.686 368.006 506.686 356.809C506.686 349.37 505.219 342.004 502.369 335.132C499.52 328.26 495.343 322.017 490.077 316.759C484.812 311.5 478.562 307.331 471.683 304.488C464.805 301.645 457.433 300.184 449.99 300.19ZM449.99 377.672C445.858 377.672 441.82 376.448 438.385 374.154C434.95 371.86 432.273 368.6 430.692 364.786C429.111 360.971 428.697 356.774 429.503 352.725C430.309 348.675 432.298 344.956 435.22 342.036C438.141 339.117 441.863 337.129 445.915 336.323C449.966 335.518 454.166 335.931 457.983 337.511C461.8 339.091 465.062 341.767 467.357 345.2C469.653 348.633 470.878 352.669 470.878 356.797C470.878 362.334 468.677 367.643 464.76 371.558C460.842 375.473 455.53 377.672 449.99 377.672Z" stroke="#2F2F38" stroke-width="4" stroke-linecap="round" stroke-linejoin="round"/>
<path d="M357.705 372.321C366.28 363.752 366.28 349.858 357.705 341.289C349.131 332.72 335.229 332.72 326.654 341.289C318.08 349.858 318.08 363.752 326.654 372.321C335.229 380.89 349.131 380.89 357.705 372.321Z" fill="#D7CCFF" stroke="#2F2F38" stroke-width="4" stroke-linecap="round" stroke-linejoin="round"/>
<path d="M281.052 363.108C284.533 363.108 287.354 360.288 287.354 356.809C287.354 353.331 284.533 350.511 281.052 350.511C277.572 350.511 274.75 353.331 274.75 356.809C274.75 360.288 277.572 363.108 281.052 363.108Z" stroke="#2F2F38" stroke-width="4" stroke-linecap="round" stroke-linejoin="round"/>
<path d="M627.578 119.883C628.083 121.984 627.734 124.2 626.606 126.044C625.478 127.888 623.664 129.209 621.563 129.718L607.156 133.183C605.603 133.56 603.973 133.472 602.469 132.93C600.966 132.388 599.655 131.416 598.699 130.136L614.598 124.332C616.068 123.797 617.337 122.823 618.235 121.543C619.133 120.263 619.615 118.738 619.617 117.175C619.621 116.683 619.575 116.191 619.48 115.708C619.343 115.009 619.11 114.333 618.788 113.698C620.754 113.492 622.728 114.005 624.344 115.142C625.961 116.279 627.11 117.964 627.578 119.883Z" fill="white"/>
<path d="M617.934 130.619C619.898 130.23 621.936 130.616 623.622 131.694C625.308 132.772 626.512 134.46 626.982 136.404L627.167 137.173C627.65 139.172 627.319 141.281 626.247 143.036C625.175 144.791 623.449 146.048 621.449 146.531L618.286 147.295L606.273 150.182C604.275 150.655 602.172 150.319 600.422 149.246C598.673 148.173 597.42 146.45 596.939 144.456L596.754 143.687C596.514 142.696 596.473 141.668 596.631 140.662C596.79 139.655 597.146 138.69 597.678 137.821C598.21 136.952 598.908 136.196 599.733 135.597C600.557 134.998 601.492 134.567 602.483 134.329L617.695 130.666L617.934 130.619Z" fill="white"/>
<path d="M618.251 147.372C620.091 147.227 621.923 147.742 623.417 148.826C624.911 149.909 625.97 151.489 626.403 153.283L626.588 154.052C626.827 155.042 626.869 156.07 626.711 157.076C626.553 158.082 626.198 159.047 625.666 159.916C625.135 160.785 624.437 161.541 623.613 162.141C622.789 162.74 621.855 163.172 620.865 163.41L608.6 166.363C607.61 166.603 606.581 166.645 605.574 166.488C604.567 166.331 603.601 165.977 602.731 165.446C601.86 164.915 601.103 164.219 600.503 163.395C599.902 162.572 599.47 161.639 599.23 160.649L599.051 159.873C598.57 157.875 598.902 155.767 599.976 154.013C601.049 152.259 602.775 151.003 604.775 150.521L606.243 150.163L617.045 147.563C617.441 147.465 617.844 147.401 618.251 147.372Z" fill="white"/>
<path d="M598.7 130.123C599.655 131.404 600.966 132.375 602.47 132.917C603.974 133.459 605.603 133.547 607.157 133.171L602.454 134.31C601.463 134.548 600.528 134.979 599.703 135.578C598.879 136.178 598.181 136.933 597.648 137.803C597.116 138.672 596.761 139.637 596.602 140.643C596.444 141.65 596.485 142.678 596.725 143.668L596.91 144.438C597.391 146.432 598.644 148.154 600.393 149.227C602.142 150.301 604.246 150.637 606.244 150.163L604.775 150.521C602.776 151.003 601.05 152.259 599.976 154.013C598.903 155.767 598.571 157.875 599.052 159.873L599.231 160.649C599.504 161.768 600.022 162.813 600.747 163.708C600.395 163.792 600.037 163.881 599.679 163.959L529.363 178.929C525.329 179.794 521.214 180.229 517.087 180.229C504.677 180.231 492.581 176.333 482.508 169.088L468.955 159.319L496.229 117.139L511.859 128.406C512.865 129.129 514.012 129.633 515.224 129.887C516.437 130.141 517.69 130.138 518.901 129.879L587.379 115.284L610.206 109.725C610.54 109.644 610.879 109.586 611.221 109.552C612.751 109.397 614.293 109.706 615.645 110.437C616.998 111.169 618.099 112.29 618.806 113.656C619.126 114.305 619.353 114.995 619.481 115.707C619.58 116.194 619.63 116.69 619.63 117.187C619.628 118.75 619.145 120.275 618.247 121.555C617.35 122.835 616.08 123.809 614.611 124.344L598.7 130.123Z" fill="white"/>
<path d="M611.192 46.2173V93.9616C550.652 122.954 554.627 55.0146 509.234 73.2237C552.735 38.3861 572.269 89.9297 611.192 46.2173Z" fill="#8282D9"/>
<path d="M496.199 117.157L468.925 159.337L431.559 132.408L397.863 189.725H347.302V127.756C347.302 113.787 335.874 102.038 321.902 102.211C319.116 102.241 316.355 102.737 313.732 103.678C310.875 104.76 307.835 105.278 304.78 105.205C295.882 104.823 285.432 99.9501 281.016 90.6995C280.655 89.357 280.18 88.048 279.595 86.7869C278.681 84.7807 277.501 82.907 276.086 81.2162C280.169 78.9999 283.713 75.9105 286.464 72.1683C293.912 79.9219 308.403 77.0352 309.99 68.2557C312.079 71.7596 314.918 74.7579 318.304 77.0352C321.768 79.347 325.715 80.8372 329.843 81.3922C333.972 81.9472 338.173 81.5522 342.125 80.2375C346.077 78.9228 349.677 76.723 352.649 73.8061C355.621 70.8892 357.887 67.3322 359.274 63.4067C367.373 71.2081 372.434 79.4209 380.353 82.5403C393.596 87.771 404.715 83.9419 420.781 78.24C421.974 77.8046 423.222 77.3692 424.493 76.9219C428.095 75.9474 431.87 75.7892 435.542 76.4589C439.214 77.1286 442.689 78.6092 445.715 80.7927L496.199 117.157Z" fill="white"/>
<path d="M470.877 217.506C471.973 217.465 473.068 217.644 474.093 218.035C475.119 218.425 476.055 219.019 476.846 219.779C477.637 220.54 478.266 221.452 478.696 222.462C479.125 223.471 479.347 224.557 479.347 225.654C479.347 226.751 479.125 227.836 478.696 228.846C478.266 229.855 477.637 230.767 476.846 231.528C476.055 232.289 475.119 232.882 474.093 233.273C473.068 233.663 471.973 233.843 470.877 233.801H428.456C427.859 224.258 425.782 219.683 424.117 217.501L470.877 217.506Z" fill="white"/>
<path d="M472.16 343.545L390.648 392.046L369.945 354.877L401.08 335.469L428.569 318.333L431.046 322.789C433.224 326.695 435.701 329.045 438.369 330.459C448.914 336.077 462.426 327.22 472.16 343.545Z" fill="white"/>
<path d="M454.291 250.114C458.797 250.114 462.449 246.463 462.449 241.96C462.449 237.457 458.797 233.807 454.291 233.807C449.785 233.807 446.133 237.457 446.133 241.96C446.133 246.463 449.785 250.114 454.291 250.114Z" fill="white"/>
<path d="M455.58 25.1098H406.517V37.7243H400.943C400.943 37.7243 395.614 26.9468 389.932 25.1098C389 24.8234 388.031 24.6786 387.056 24.6803C385.467 24.6767 383.903 25.066 382.502 25.8136C385.719 12.9127 396.449 1.19287 412.837 1.19287C444.307 1.19287 455.58 25.1098 455.58 25.1098Z" fill="#2F2F38"/>
<path d="M448.723 266.414C453.228 266.414 456.881 262.764 456.881 258.261C456.881 253.758 453.228 250.107 448.723 250.107C444.217 250.107 440.564 253.758 440.564 258.261C440.564 262.764 444.217 266.414 448.723 266.414Z" fill="white"/>
<path d="M428.457 233.801H454.293C453.203 233.772 452.119 233.961 451.103 234.357C450.088 234.754 449.163 235.349 448.382 236.109C447.601 236.869 446.98 237.777 446.556 238.781C446.132 239.784 445.914 240.862 445.914 241.952C445.914 243.041 446.132 244.119 446.556 245.123C446.98 246.126 447.601 247.034 448.382 247.794C449.163 248.554 450.088 249.15 451.103 249.546C452.119 249.942 453.203 250.131 454.293 250.102H427.496C428.275 246.565 428.651 242.952 428.618 239.33C428.618 237.33 428.564 235.487 428.457 233.801Z" fill="white"/>
<path d="M427.502 250.107H448.725C446.6 250.165 444.581 251.049 443.099 252.571C441.616 254.093 440.787 256.133 440.787 258.258C440.787 260.382 441.616 262.422 443.099 263.944C444.581 265.467 446.6 266.35 448.725 266.408H412.033C414.222 266.407 416.378 265.871 418.313 264.847C420.247 263.823 421.902 262.342 423.134 260.533C425.232 257.364 426.711 253.827 427.49 250.107H427.502Z" fill="white"/>
<path d="M394.092 56.2257C391.207 53.1104 389.093 49.3617 387.922 45.2812L383.326 43.319C383.201 43.2593 383.075 43.2116 382.95 43.14C380.734 42.0933 378.997 40.247 378.088 37.9724C377.179 35.6978 377.166 33.1635 378.05 30.8793C378.935 28.5951 380.652 26.7303 382.857 25.66C385.061 24.5896 387.589 24.3931 389.933 25.1099C395.614 26.9469 400.944 37.7244 400.944 37.7244H406.518V25.1099H438.327C441.386 30.9689 442.212 37.7386 440.651 44.1603C439.09 50.5819 435.249 56.2187 429.841 60.0223C424.434 63.826 417.828 65.5378 411.253 64.8395C404.677 64.1412 398.579 61.0802 394.092 56.2257Z" fill="white"/>
<path d="M427.818 269.528C438.498 287.931 442.241 309.545 438.369 330.465C435.702 329.051 433.225 326.701 431.046 322.795L399.637 266.408H426.003L427.818 269.528Z" fill="#2F2F38"/>
<path d="M428.57 318.34L401.081 335.475L347.566 240.642C344.157 234.6 339.202 229.572 333.209 226.072C327.216 222.573 320.4 220.729 313.459 220.728H270.68C274.803 208.942 274.649 196.083 270.244 184.399H309.741C321.959 184.398 333.995 187.369 344.809 193.055C355.622 198.741 364.888 206.971 371.808 217.036C373.133 218.96 374.372 220.948 375.526 223L428.57 318.34Z" fill="#8282D9"/>
<path d="M428.456 233.801C428.563 235.483 428.617 237.326 428.617 239.33C428.65 242.952 428.274 246.565 427.495 250.102C426.716 253.821 425.237 257.359 423.139 260.527C421.907 262.337 420.251 263.819 418.315 264.843C416.379 265.867 414.222 266.402 412.032 266.402H399.636L375.478 223.066C374.328 221.002 373.089 219.014 371.76 217.101H382.64C386.351 217.102 390.022 216.333 393.42 214.842C396.818 213.351 399.87 211.172 402.382 208.441L417.672 191.83C418.732 190.685 420.178 189.97 421.732 189.823C423.287 189.676 424.841 190.107 426.097 191.034C427.354 191.961 428.224 193.318 428.541 194.846C428.859 196.374 428.601 197.966 427.817 199.316L418.913 214.543C418.734 214.847 418.639 215.193 418.638 215.546C418.636 215.899 418.727 216.247 418.903 216.553C419.079 216.859 419.332 217.114 419.638 217.291C419.944 217.468 420.291 217.561 420.644 217.561H424.117C425.782 219.69 427.865 224.258 428.456 233.801Z" fill="white"/>
<path d="M390.649 392.046L421.48 373.694L396.086 428.971H313.25L357.527 332.6L390.649 392.046Z" fill="#2F2F38"/>
<path d="M420.799 78.24C421.999 77.7026 423.24 77.2619 424.511 76.9219C423.24 77.3692 422.004 77.8046 420.799 78.24Z" fill="white"/>
<path d="M392.099 437.697C384.937 453.204 419.313 450.115 412.647 468.807H294.951L313.249 428.971H396.085L395.226 430.844L395.172 430.958L395.124 431.065C395.126 431.081 395.126 431.097 395.124 431.113C395.256 430.838 395.244 430.862 395.029 431.321L394.969 431.447C395.178 430.999 395.154 431.059 394.85 431.709L394.766 431.9C394.766 431.954 394.713 432.019 394.683 432.073L394.593 432.276L394.534 432.401L394.367 432.777C394.337 432.83 394.313 432.89 394.283 432.944L392.099 437.697ZM340.266 449.214C340.266 447.386 339.724 445.598 338.707 444.078C337.69 442.557 336.245 441.372 334.555 440.673C332.864 439.973 331.004 439.791 329.209 440.148C327.415 440.505 325.766 441.386 324.473 442.679C323.179 443.973 322.299 445.621 321.943 447.414C321.586 449.208 321.77 451.067 322.471 452.756C323.172 454.445 324.359 455.889 325.881 456.904C327.403 457.919 329.192 458.46 331.022 458.459C333.472 458.454 335.819 457.478 337.549 455.745C339.279 454.011 340.25 451.663 340.248 449.214H340.266Z" fill="white"/>
<path d="M401.081 335.475L369.946 354.877L315.183 256.585C314.641 255.612 313.848 254.801 312.887 254.237C311.926 253.673 310.831 253.375 309.717 253.376H237.527C245.165 250.804 252.117 246.529 257.857 240.875C263.597 235.22 267.973 228.335 270.656 220.739H313.435C320.376 220.74 327.192 222.585 333.185 226.084C339.178 229.583 344.133 234.612 347.542 240.654L401.081 335.475Z" fill="#8282D9"/>
<path d="M397.864 189.725V212.33C393.387 215.415 388.078 217.066 382.64 217.066H371.76C365.392 207.808 357.031 200.093 347.291 194.485V189.725H397.864Z" fill="#2F2F38"/>
<path d="M395.245 430.802L395.227 430.851V430.845L395.245 430.802Z" fill="white"/>
<path d="M395.082 431.107L394.963 431.363C395.178 430.904 395.19 430.88 395.058 431.154C395.068 431.139 395.076 431.123 395.082 431.107Z" fill="white"/>
<path d="M394.928 431.488L394.809 431.751C395.113 431.101 395.137 431.041 394.928 431.488Z" fill="white"/>
<path d="M394.724 431.942L394.641 432.114C394.67 432.06 394.7 431.995 394.724 431.942Z" fill="white"/>
<path d="M394.623 432.156L394.576 432.275C394.574 432.289 394.574 432.303 394.576 432.317L394.623 432.156Z" fill="white"/>
<path d="M394.325 432.818L394.182 433.117L394.241 432.985C394.271 432.932 394.295 432.872 394.325 432.818Z" fill="white"/>
<path d="M387.921 45.2811C389.098 49.3633 391.217 53.1121 394.109 56.2256C391.475 54.894 389.132 53.0526 387.216 50.8082C385.3 48.5638 383.85 45.9613 382.949 43.1519C383.075 43.2234 383.2 43.2711 383.325 43.3308H383.385L387.921 45.2811Z" fill="white"/>
<path d="M356.762 39.9609C360.047 45.267 361.415 51.5368 360.639 57.7278C359.863 63.9187 356.99 69.6576 352.497 73.99C348.005 78.3224 342.163 80.9872 335.945 81.5412C329.726 82.0952 323.505 80.505 318.316 77.0351C323.168 73.3551 326.612 69.2099 329.817 64.9395C327.951 64.6159 326.203 63.8112 324.744 62.605C323.286 61.3987 322.167 59.8328 321.5 58.0621C320.833 56.2914 320.64 54.3773 320.94 52.5092C321.241 50.6411 322.024 48.8837 323.212 47.4108C324.401 45.938 325.953 44.8008 327.717 44.1118C329.48 43.4228 331.393 43.2058 333.266 43.4823C335.138 43.7588 336.907 44.5192 338.395 45.6883C339.884 46.8574 341.041 48.3947 341.753 50.148C346.124 45.9048 351.204 42.4574 356.762 39.9609Z" fill="white"/>
<path d="M363.04 37.3962C360.78 38.1914 358.687 39.0363 356.762 39.931C351.211 42.4238 346.137 45.8651 341.77 50.1002C341.058 48.3468 339.901 46.8096 338.412 45.6405C336.924 44.4714 335.155 43.711 333.283 43.4345C331.41 43.158 329.497 43.375 327.734 44.064C325.97 44.753 324.418 45.8902 323.229 47.363C322.041 48.8358 321.258 50.5932 320.957 52.4613C320.657 54.3295 320.85 56.2436 321.517 58.0143C322.184 59.785 323.303 61.3509 324.761 62.5571C326.22 63.7633 327.968 64.5681 329.834 64.8917C326.629 69.1621 323.185 73.3073 318.333 76.9873C314.948 74.7099 312.109 71.7117 310.02 68.2078C308.415 77.0052 293.924 79.9217 286.464 72.1681C283.722 75.9142 280.186 79.0096 276.11 81.2339C273.76 78.3949 270.811 76.11 267.474 74.5428C264.138 72.9756 260.496 72.1647 256.809 72.1681H195.446C193.135 64.5104 193.256 56.3253 195.79 48.7386C198.325 41.1519 203.149 34.5363 209.599 29.8017C216.05 25.0671 223.809 22.446 231.811 22.2989C239.813 22.1519 247.664 24.4861 254.285 28.9805C257.602 26.3783 261.41 24.4705 265.481 23.3709C269.552 22.2712 273.802 22.0022 277.98 22.58C282.157 23.1578 286.175 24.5705 289.794 26.7338C293.413 28.8971 296.559 31.7667 299.045 35.1715C302.435 35.2403 305.74 36.2457 308.594 38.0761C311.769 20.1056 344.658 14.4992 363.04 37.3962Z" fill="#2F2F38"/>
<path d="M347.302 189.725V194.467C335.87 187.875 322.903 184.407 309.704 184.411H297.111V171.969H347.302V189.725Z" fill="white"/>
<path d="M297.112 164.454C293.114 166.064 289.834 169.066 287.88 172.905C286.104 176.541 284.874 180.417 284.227 184.41H203.062C201.76 184.409 200.459 184.482 199.165 184.631C199.302 157.631 203.987 137.412 209.615 122.31H187.533V72.168H256.81C260.498 72.1636 264.141 72.9741 267.479 74.5414C270.816 76.1087 273.766 78.394 276.117 81.2337C277.532 82.9245 278.712 84.7983 279.626 86.8044C279.971 88.1515 280.447 89.4619 281.046 90.717C285.463 99.9677 295.913 104.841 304.811 105.222C307.866 105.296 310.906 104.777 313.763 103.695C316.385 102.755 319.147 102.259 321.933 102.228C335.904 102.055 347.333 113.805 347.333 127.773V171.987H297.142L297.112 164.454Z" fill="#E0218A"/>
<path d="M331.004 439.97C332.834 439.971 334.622 440.514 336.142 441.531C337.663 442.547 338.847 443.991 339.546 445.681C340.246 447.37 340.428 449.229 340.07 451.022C339.713 452.815 338.831 454.461 337.537 455.754C336.243 457.046 334.595 457.926 332.801 458.282C331.007 458.638 329.147 458.455 327.457 457.755C325.767 457.055 324.323 455.87 323.307 454.35C322.29 452.83 321.748 451.043 321.748 449.214C321.747 448 321.986 446.797 322.451 445.674C322.916 444.552 323.598 443.532 324.458 442.674C325.318 441.815 326.338 441.134 327.462 440.67C328.585 440.206 329.789 439.968 331.004 439.97Z" fill="white"/>
<path d="M315.184 256.585L327.645 278.933L319.29 291.768C309.869 306.249 297.032 318.195 281.909 326.555C266.785 334.916 249.838 339.435 232.557 339.715C235.887 328.838 237.562 317.523 237.528 306.148V263.706C244.088 262.204 249.964 258.571 254.238 253.376H309.741C310.852 253.38 311.941 253.679 312.898 254.243C313.854 254.807 314.643 255.615 315.184 256.585Z" fill="#2F2F38"/>
<path d="M281.045 90.6934C280.446 89.4382 279.971 88.1279 279.625 86.7808C280.21 88.0419 280.685 89.3509 281.045 90.6934Z" fill="white"/>
<path d="M270.68 220.739C267.995 228.337 263.615 235.224 257.871 240.879C252.127 246.534 245.17 250.807 237.528 253.376V306.148C237.564 321.043 234.645 335.797 228.942 349.558C223.238 363.319 214.862 375.814 204.298 386.321L155.849 434.799L118.848 429.562C153.301 389.16 171.718 368.947 188.387 348.083C197.113 337.155 201.679 323.488 201.272 309.512C199.917 262.394 183.965 199.065 209.627 185.329V184.44H270.245C274.649 196.124 274.803 208.983 270.68 220.769V220.739Z" fill="#8282D9"/>
<path d="M209.602 184.411V185.299C183.939 199.017 199.886 262.358 201.247 309.482C201.654 323.458 197.088 337.125 188.362 348.054C171.693 368.929 153.276 389.13 118.822 429.532L78.377 423.806C88.4727 407.567 100.423 392.555 113.988 379.074L155.526 337.58C159.665 333.465 162.947 328.57 165.181 323.179C167.415 317.788 168.558 312.007 168.542 306.172V218.89C168.542 210.419 171.663 202.245 177.308 195.926C182.954 189.607 190.73 185.587 199.152 184.631C200.446 184.483 201.747 184.409 203.049 184.411H209.602Z" fill="#8282D9"/>
<path d="M42.0569 238.71L38.876 237.07C36.5321 235.863 34.636 233.938 33.4645 231.577C32.2931 229.217 31.9078 226.543 32.3649 223.948L32.5738 222.755L31.1534 222.022C28.8095 220.815 26.9133 218.89 25.7419 216.529C24.5704 214.169 24.1851 211.495 24.6423 208.9L28.2231 188.258C29.4564 181.305 32.8398 174.914 37.8972 169.983L116.604 93.0434C130.316 79.61 148.769 72.1109 167.97 72.1683H187.498V122.328H167.97C161.88 122.312 156.029 124.695 151.684 128.961L89.7415 189.445C88.4404 201.701 92.1705 215.765 94.3965 222.779C94.5899 223.376 94.6886 224 94.689 224.628C94.6886 225.913 94.2822 227.166 93.5277 228.206C92.7731 229.247 91.7089 230.023 90.487 230.424C89.265 230.825 87.9477 230.829 86.7228 230.438C85.498 230.046 84.4282 229.278 83.666 228.243C80.0852 223.352 74.9587 214.793 74.0515 204.779L59.973 227.193C58.9737 228.727 58.3819 230.49 58.2535 232.317C58.125 234.143 58.4642 235.971 59.2389 237.63C60.0246 239.237 60.2049 241.072 59.7467 242.801C59.2886 244.529 58.2227 246.035 56.7443 247.042C55.5966 247.8 54.2654 248.234 52.8913 248.298C51.5172 248.362 50.1513 248.054 48.9381 247.406L48.4964 247.179C46.8585 246.337 45.43 245.14 44.3157 243.674C43.2014 242.209 42.4296 240.512 42.0569 238.71Z" fill="white"/>
<path d="M168.543 264.5V306.148C168.562 311.988 167.421 317.772 165.187 323.168C162.952 328.563 159.669 333.462 155.527 337.58L153.378 339.733H131.637L146.014 264.5H168.543Z" fill="#2F2F38"/>
<path d="M147.374 443.238C133.684 456.908 169.957 444.902 162.211 468.795H55.5684C62.36 452.441 69.7663 437.614 78.3722 423.794L155.849 434.799L147.374 443.238Z" fill="white"/>
<path d="M146.014 264.5L131.637 339.733H120.554C101.128 339.733 106.464 365.702 80.6699 365.702L102.752 264.5H146.014Z" fill="white"/>
<path d="M297.111 184.411V164.454" stroke="#2F2F38" stroke-width="4" stroke-linecap="round" stroke-linejoin="round"/>
<path d="M438.369 330.465C442.241 309.545 438.498 287.931 427.818 269.528L426.027 266.408" stroke="#2F2F38" stroke-width="4" stroke-linecap="round" stroke-linejoin="round"/>
<path d="M420.799 78.2399C424.815 76.4482 429.232 75.741 433.607 76.1889C437.983 76.6369 442.164 78.2243 445.733 80.7927L511.829 128.424C512.835 129.147 513.981 129.651 515.194 129.905C516.407 130.159 517.66 130.156 518.871 129.897L589.211 114.903" stroke="#2F2F38" stroke-width="4" stroke-linecap="round" stroke-linejoin="round"/>
<path d="M607.156 133.171C605.603 133.548 603.973 133.46 602.469 132.918C600.966 132.376 599.655 131.404 598.699 130.124" stroke="#2F2F38" stroke-width="4" stroke-linecap="round" stroke-linejoin="round"/>
<path d="M618.776 113.674C620.836 113.452 622.904 114.022 624.559 115.269C626.214 116.515 627.332 118.344 627.687 120.385C628.042 122.425 627.606 124.524 626.469 126.255C625.332 127.986 623.578 129.22 621.563 129.706L617.666 130.648" stroke="#2F2F38" stroke-width="4" stroke-linecap="round" stroke-linejoin="round"/>
<path d="M618.288 147.271L618.252 147.372V147.431" stroke="#2F2F38" stroke-width="4" stroke-linecap="round" stroke-linejoin="round"/>
<path d="M600.89 163.667L600.746 163.708C600.394 163.792 600.036 163.881 599.678 163.959L529.363 178.929C525.328 179.794 521.213 180.23 517.087 180.23C504.676 180.231 492.58 176.334 482.508 169.088L431.559 132.408L397.863 189.725V212.33" stroke="#2F2F38" stroke-width="4" stroke-linecap="round" stroke-linejoin="round"/>
<path d="M313.25 428.971L357.527 332.6" stroke="#2F2F38" stroke-width="4" stroke-linecap="round" stroke-linejoin="round"/>
<path d="M395.245 430.802L395.227 430.845V430.851L395.245 430.802Z" stroke="#2F2F38" stroke-width="4" stroke-linecap="round" stroke-linejoin="round"/>
<path d="M395.208 430.886L395.154 430.999" stroke="#2F2F38" stroke-width="4" stroke-linecap="round" stroke-linejoin="round"/>
<path d="M394.988 431.363C395.203 430.904 395.215 430.88 395.084 431.154C395.085 431.138 395.085 431.122 395.084 431.107" stroke="#2F2F38" stroke-width="4" stroke-linecap="round" stroke-linejoin="round"/>
<path d="M394.928 431.488C395.137 431.041 395.113 431.101 394.809 431.751" stroke="#2F2F38" stroke-width="4" stroke-linecap="round" stroke-linejoin="round"/>
<path d="M394.641 432.114C394.641 432.06 394.7 431.995 394.724 431.942" stroke="#2F2F38" stroke-width="4" stroke-linecap="round" stroke-linejoin="round"/>
<path d="M394.553 432.317L394.624 432.156" stroke="#2F2F38" stroke-width="4" stroke-linecap="round" stroke-linejoin="round"/>
<path d="M394.182 433.117L394.241 432.985C394.241 432.932 394.295 432.872 394.325 432.818" stroke="#2F2F38" stroke-width="4" stroke-linecap="round" stroke-linejoin="round"/>
<path d="M394.325 432.818L392.099 437.697C384.937 453.204 419.313 450.115 412.647 468.807H294.951L313.249 428.971" stroke="#2F2F38" stroke-width="4" stroke-linecap="round" stroke-linejoin="round"/>
<path d="M394.324 432.818L394.491 432.443L394.551 432.317" stroke="#2F2F38" stroke-width="4" stroke-linecap="round" stroke-linejoin="round"/>
<path d="M394.623 432.156L394.576 432.275C394.574 432.289 394.574 432.303 394.576 432.317" stroke="#2F2F38" stroke-width="4" stroke-linecap="round" stroke-linejoin="round"/>
<path d="M394.623 432.157L394.641 432.115" stroke="#2F2F38" stroke-width="4" stroke-linecap="round" stroke-linejoin="round"/>
<path d="M394.927 431.488L394.641 432.115" stroke="#2F2F38" stroke-width="4" stroke-linecap="round" stroke-linejoin="round"/>
<path d="M394.928 431.488L394.987 431.363" stroke="#2F2F38" stroke-width="4" stroke-linecap="round" stroke-linejoin="round"/>
<path d="M395.108 431.107L394.988 431.363" stroke="#2F2F38" stroke-width="4" stroke-linecap="round" stroke-linejoin="round"/>
<path d="M395.107 431.106L395.155 430.999" stroke="#2F2F38" stroke-width="4" stroke-linecap="round" stroke-linejoin="round"/>
<path d="M421.479 373.694L395.154 430.999" stroke="#2F2F38" stroke-width="4" stroke-linecap="round" stroke-linejoin="round"/>
<path d="M155.849 434.799L147.374 443.268C133.684 456.908 169.957 444.902 162.211 468.795H55.5684C62.36 452.441 69.7723 437.614 78.3722 423.794C88.4679 407.555 100.419 392.543 113.983 379.062L155.527 337.58C159.666 333.465 162.948 328.57 165.182 323.179C167.416 317.788 168.559 312.007 168.543 306.172V218.89C168.543 210.419 171.664 202.245 177.309 195.926C182.955 189.607 190.731 185.587 199.153 184.631C200.447 184.483 201.748 184.409 203.05 184.411H309.741C321.96 184.41 333.995 187.38 344.809 193.066C355.622 198.752 364.888 206.983 371.808 217.047C373.133 218.972 374.372 220.96 375.526 223.012L431.094 322.771C433.273 326.678 435.749 329.022 438.417 330.441C448.963 336.053 462.474 327.196 472.208 343.515L390.649 392.046L315.183 256.585C314.641 255.612 313.848 254.801 312.887 254.237C311.926 253.673 310.831 253.376 309.717 253.376H237.527V306.148C237.563 321.043 234.645 335.797 228.941 349.558C223.238 363.319 214.862 375.814 204.298 386.321L155.849 434.799Z" stroke="#2F2F38" stroke-width="4" stroke-linecap="round" stroke-linejoin="round"/>
<path d="M254.238 253.376C249.964 258.571 244.087 262.204 237.527 263.706" stroke="#2F2F38" stroke-width="4" stroke-linecap="round" stroke-linejoin="round"/>
<path d="M168.543 264.5H102.734L80.6523 365.702C106.446 365.702 101.111 339.733 120.537 339.733H153.379" stroke="#2F2F38" stroke-width="4" stroke-linecap="round" stroke-linejoin="round"/>
<path d="M232.52 339.715C249.8 339.435 266.748 334.916 281.872 326.555C296.995 318.195 309.832 306.249 319.253 291.768L327.608 278.933" stroke="#2F2F38" stroke-width="4" stroke-linecap="round" stroke-linejoin="round"/>
<path d="M397.864 189.725H347.303" stroke="#2F2F38" stroke-width="4" stroke-linecap="round" stroke-linejoin="round"/>
<path d="M281.047 90.6992C285.463 99.9499 295.913 104.823 304.812 105.204C307.866 105.278 310.906 104.76 313.764 103.678C316.386 102.737 319.148 102.241 321.934 102.21C335.905 102.037 347.334 113.787 347.334 127.756V194.466" stroke="#2F2F38" stroke-width="4" stroke-linecap="round" stroke-linejoin="round"/>
<path d="M279.625 86.7808C279.971 88.1279 280.446 89.4382 281.045 90.6934" stroke="#2F2F38" stroke-width="4" stroke-linecap="round" stroke-linejoin="round"/>
<path d="M284.227 184.411C284.873 180.418 286.104 176.541 287.879 172.906C289.834 169.066 293.113 166.064 297.112 164.454C297.938 164.106 298.788 163.815 299.654 163.583C303.975 162.41 307.706 159.673 310.121 155.904C312.536 152.136 313.464 147.605 312.724 143.191" stroke="#2F2F38" stroke-width="4" stroke-linecap="round" stroke-linejoin="round"/>
<path d="M187.498 72.1445V122.304" stroke="#2F2F38" stroke-width="4" stroke-linecap="round" stroke-linejoin="round"/>
<path d="M297.111 171.969H347.302" stroke="#2F2F38" stroke-width="4" stroke-linecap="round" stroke-linejoin="round"/>
<path d="M281.046 90.6994C280.683 89.3578 280.208 88.049 279.626 86.7868C277.618 82.4259 274.402 78.7313 270.359 76.1405C266.315 73.5497 261.613 72.1712 256.81 72.1683H167.97C148.768 72.1109 130.316 79.61 116.603 93.0434L37.897 169.983C32.8308 174.934 29.4506 181.353 28.2348 188.329L24.654 208.972C24.1968 211.567 24.5822 214.24 25.7536 216.601C26.9251 218.962 28.8212 220.886 31.1651 222.093L32.5855 222.827" stroke="#2F2F38" stroke-width="4" stroke-linecap="round" stroke-linejoin="round"/>
<path d="M37.8317 192.594L32.359 223.966C31.9019 226.561 32.2872 229.235 33.4587 231.595C34.6301 233.956 36.5263 235.881 38.8702 237.088L42.0511 238.728" stroke="#2F2F38" stroke-width="4" stroke-linecap="round" stroke-linejoin="round"/>
<path d="M47.4514 202.697L41.9847 234.076C41.5266 236.671 41.9115 239.344 43.0831 241.705C44.2546 244.066 46.1514 245.991 48.4958 247.197L48.9375 247.424C50.1507 248.072 51.5166 248.38 52.8907 248.316C54.2648 248.252 55.596 247.818 56.7436 247.06C58.2221 246.053 59.288 244.547 59.7461 242.819C60.2043 241.09 60.024 239.255 59.2383 237.648C58.4636 235.989 58.1244 234.161 58.2529 232.334C58.3813 230.508 58.9731 228.745 59.9723 227.211L74.0509 204.797C74.9581 214.811 80.0786 223.37 83.6654 228.26C84.4276 229.296 85.4974 230.064 86.7222 230.456C87.9471 230.847 89.2644 230.843 90.4864 230.442C91.7083 230.041 92.7725 229.265 93.527 228.224C94.2816 227.184 94.688 225.931 94.6883 224.646C94.688 224.018 94.5893 223.394 94.3959 222.797C92.1698 215.783 88.4279 201.719 89.7409 189.462L151.683 128.937C156.028 124.671 161.879 122.288 167.97 122.304H209.603C203.975 137.406 199.29 157.625 199.153 184.625" stroke="#2F2F38" stroke-width="4" stroke-linecap="round" stroke-linejoin="round"/>
<path d="M131.637 339.733L146.014 264.5" stroke="#2F2F38" stroke-width="4" stroke-linecap="round" stroke-linejoin="round"/>
<path d="M313.25 428.971H396.086" stroke="#2F2F38" stroke-width="4" stroke-linecap="round" stroke-linejoin="round"/>
<path d="M340.249 449.214C340.249 447.386 339.706 445.598 338.69 444.078C337.673 442.557 336.228 441.372 334.537 440.673C332.846 439.973 330.986 439.791 329.192 440.148C327.397 440.505 325.749 441.386 324.455 442.68C323.162 443.973 322.281 445.621 321.925 447.415C321.569 449.208 321.753 451.067 322.454 452.756C323.155 454.445 324.342 455.889 325.864 456.904C327.386 457.919 329.175 458.46 331.004 458.459C332.219 458.459 333.422 458.22 334.544 457.755C335.666 457.291 336.685 456.61 337.543 455.751C338.402 454.893 339.083 453.873 339.547 452.752C340.011 451.63 340.25 450.428 340.249 449.214Z" stroke="#2F2F38" stroke-width="4" stroke-linecap="round" stroke-linejoin="round"/>
<path d="M401.08 335.475L428.569 318.339" stroke="#2F2F38" stroke-width="4" stroke-linecap="round" stroke-linejoin="round"/>
<path d="M369.945 354.889L401.08 335.481" stroke="#2F2F38" stroke-width="4" stroke-linecap="round" stroke-linejoin="round"/>
<path d="M78.3711 423.806L155.848 434.769" stroke="#2F2F38" stroke-width="4" stroke-linecap="round" stroke-linejoin="round"/>
<path d="M416.174 342.918L425.782 330.465" stroke="#2F2F38" stroke-width="4" stroke-linecap="round" stroke-linejoin="round"/>
<path d="M423.867 346.515L431.787 334.509" stroke="#2F2F38" stroke-width="4" stroke-linecap="round" stroke-linejoin="round"/>
<path d="M126.443 442.111L140.2 443.447" stroke="#2F2F38" stroke-width="4" stroke-linecap="round" stroke-linejoin="round"/>
<path d="M125.107 448.6L138.822 450.127" stroke="#2F2F38" stroke-width="4" stroke-linecap="round" stroke-linejoin="round"/>
<path d="M118.816 429.532C153.27 389.13 171.687 368.917 188.356 348.054C197.082 337.125 201.648 323.458 201.241 309.482C199.886 262.364 183.934 199.035 209.596 185.299" stroke="#2F2F38" stroke-width="4" stroke-linecap="round" stroke-linejoin="round"/>
<path d="M270.244 184.411C272.769 191.075 273.923 198.181 273.635 205.301C273.347 212.422 271.624 219.411 268.569 225.85C265.514 232.29 261.191 238.047 255.857 242.776C250.523 247.506 244.289 251.111 237.527 253.376" stroke="#2F2F38" stroke-width="4" stroke-linecap="round" stroke-linejoin="round"/>
<path d="M270.674 220.739H313.459C320.4 220.74 327.216 222.585 333.209 226.084C339.202 229.583 344.157 234.612 347.566 240.654L401.081 335.487" stroke="#2F2F38" stroke-width="4" stroke-linecap="round" stroke-linejoin="round"/>
<path d="M371.76 217.048H382.64C386.351 217.048 390.022 216.279 393.42 214.788C396.818 213.298 399.87 211.118 402.382 208.387L417.672 191.777C418.732 190.631 420.178 189.916 421.732 189.769C423.287 189.622 424.841 190.054 426.097 190.981C427.354 191.907 428.224 193.265 428.541 194.793C428.859 196.321 428.601 197.912 427.817 199.262L418.913 214.489C418.734 214.793 418.639 215.14 418.638 215.493C418.636 215.846 418.727 216.193 418.903 216.499C419.079 216.806 419.332 217.06 419.638 217.237C419.944 217.414 420.291 217.507 420.644 217.507H470.877C471.974 217.465 473.068 217.645 474.093 218.035C475.119 218.426 476.055 219.019 476.846 219.78C477.637 220.54 478.266 221.453 478.696 222.462C479.126 223.471 479.347 224.557 479.347 225.654C479.347 226.751 479.126 227.837 478.696 228.846C478.266 229.855 477.637 230.768 476.846 231.528C476.055 232.289 475.119 232.883 474.093 233.273C473.068 233.664 471.974 233.843 470.877 233.801H428.456" stroke="#2F2F38" stroke-width="4" stroke-linecap="round" stroke-linejoin="round"/>
<path d="M427.502 250.107H454.292" stroke="#2F2F38" stroke-width="4" stroke-linecap="round" stroke-linejoin="round"/>
<path d="M412.033 266.408C414.222 266.407 416.378 265.871 418.313 264.847C420.247 263.823 421.902 262.342 423.134 260.533C425.229 257.363 426.707 253.826 427.49 250.108C428.266 246.57 428.643 242.957 428.612 239.336C428.612 237.348 428.559 235.505 428.451 233.807C427.854 224.264 425.778 219.69 424.112 217.507" stroke="#2F2F38" stroke-width="4" stroke-linecap="round" stroke-linejoin="round"/>
<path d="M399.637 266.408H406.399" stroke="#2F2F38" stroke-width="4" stroke-linecap="round" stroke-linejoin="round"/>
<path d="M448.724 266.408H406.398" stroke="#2F2F38" stroke-width="4" stroke-linecap="round" stroke-linejoin="round"/>
<path d="M454.291 250.114C458.797 250.114 462.449 246.463 462.449 241.96C462.449 237.457 458.797 233.807 454.291 233.807C449.785 233.807 446.133 237.457 446.133 241.96C446.133 246.463 449.785 250.114 454.291 250.114Z" stroke="#2F2F38" stroke-width="4" stroke-linecap="round" stroke-linejoin="round"/>
<path d="M448.723 266.414C453.228 266.414 456.881 262.764 456.881 258.261C456.881 253.758 453.228 250.107 448.723 250.107C444.217 250.107 440.564 253.758 440.564 258.261C440.564 262.764 444.217 266.414 448.723 266.414Z" stroke="#2F2F38" stroke-width="4" stroke-linecap="round" stroke-linejoin="round"/>
<path d="M424.512 76.9395L420.799 78.2576C404.745 83.9714 393.615 87.8005 380.372 82.5578C372.452 79.4385 367.392 71.2256 359.293 63.4243" stroke="#2F2F38" stroke-width="4" stroke-linecap="round" stroke-linejoin="round"/>
<path d="M468.926 159.337L496.2 117.157" stroke="#2F2F38" stroke-width="4" stroke-linecap="round" stroke-linejoin="round"/>
<path d="M617.093 147.557C617.485 147.462 617.884 147.4 618.286 147.372C620.121 147.236 621.944 147.756 623.431 148.838C624.917 149.921 625.971 151.496 626.403 153.283L626.588 154.052C626.827 155.042 626.869 156.07 626.711 157.076C626.553 158.082 626.198 159.047 625.666 159.916C625.135 160.785 624.437 161.541 623.613 162.141C622.789 162.74 621.855 163.172 620.865 163.41L608.6 166.363C607.61 166.603 606.581 166.646 605.574 166.488C604.567 166.331 603.601 165.977 602.731 165.446C601.86 164.916 601.103 164.219 600.503 163.396C599.902 162.573 599.47 161.639 599.23 160.649L599.051 159.874C598.57 157.875 598.902 155.767 599.976 154.013C601.049 152.26 602.775 151.004 604.775 150.522L606.243 150.164" stroke="#2F2F38" stroke-width="4" stroke-linecap="round" stroke-linejoin="round"/>
<path d="M617.934 130.619C619.898 130.23 621.936 130.616 623.622 131.694C625.308 132.772 626.512 134.46 626.982 136.404L627.167 137.173C627.65 139.172 627.319 141.281 626.247 143.036C625.175 144.791 623.449 146.048 621.449 146.531L618.286 147.295L606.273 150.182C604.275 150.655 602.172 150.319 600.422 149.246C598.673 148.173 597.42 146.45 596.939 144.456L596.754 143.687C596.514 142.696 596.473 141.668 596.631 140.662C596.79 139.655 597.146 138.69 597.678 137.821C598.21 136.952 598.908 136.196 599.733 135.597C600.557 134.998 601.492 134.567 602.483 134.329L617.695 130.666L617.934 130.619Z" stroke="#2F2F38" stroke-width="4" stroke-linecap="round" stroke-linejoin="round"/>
<path d="M587.349 115.302L610.177 109.743C610.511 109.662 610.85 109.604 611.191 109.57C612.722 109.416 614.263 109.725 615.615 110.457C616.968 111.188 618.069 112.309 618.777 113.674C619.105 114.316 619.342 115 619.481 115.708C619.58 116.195 619.63 116.69 619.63 117.187C619.628 118.75 619.146 120.275 618.248 121.555C617.35 122.835 616.081 123.809 614.611 124.344L592.422 132.408C592.422 132.408 589.575 150.044 573.324 152.054" stroke="#2F2F38" stroke-width="4" stroke-linecap="round" stroke-linejoin="round"/>
<path d="M611.192 46.2173C572.269 89.9297 552.735 38.3861 509.234 73.2237C554.627 55.0146 550.652 122.954 611.192 93.9616" stroke="#2F2F38" stroke-width="4" stroke-linecap="round" stroke-linejoin="round"/>
<path d="M611.191 39.9551V109.571" stroke="#2F2F38" stroke-width="4" stroke-linecap="round" stroke-linejoin="round"/>
<path d="M611.191 165.742V199.983" stroke="#2F2F38" stroke-width="4" stroke-linecap="round" stroke-linejoin="round"/>
<path d="M383.367 43.3428L387.903 45.2812C388.961 48.9418 390.775 52.3403 393.228 55.2575C395.68 58.1747 398.718 60.546 402.143 62.2184C405.569 63.8909 409.308 64.8275 413.118 64.9677C416.928 65.108 420.725 64.449 424.265 63.033C427.804 61.617 431.008 59.4755 433.669 56.7466C436.33 54.0177 438.389 50.7619 439.714 47.189C441.038 43.6161 441.6 39.8054 441.361 36.0026C441.122 32.1997 440.088 28.4891 438.327 25.1099" stroke="#2F2F38" stroke-width="4" stroke-linecap="round" stroke-linejoin="round"/>
<path d="M383.368 43.3427H383.308C383.183 43.283 383.058 43.2353 382.932 43.1638C380.654 42.1544 378.851 40.3072 377.899 38.0053C376.947 35.7034 376.919 33.1236 377.819 30.8011C378.72 28.4786 380.481 26.5918 382.736 25.5321C384.992 24.4724 387.569 24.3211 389.933 25.1098C395.614 26.9468 400.944 37.7243 400.944 37.7243H406.518V25.1098H455.581C455.581 25.1098 444.307 1.19287 412.838 1.19287C396.45 1.19287 385.719 12.9127 382.503 25.8136" stroke="#2F2F38" stroke-width="4" stroke-linecap="round" stroke-linejoin="round"/>
<path d="M382.932 43.1519C383.832 45.9613 385.283 48.5638 387.199 50.8082C389.115 53.0526 391.458 54.894 394.092 56.2256" stroke="#2F2F38" stroke-width="4" stroke-linecap="round" stroke-linejoin="round"/>
<path d="M276.123 81.2042C280.192 78.9871 283.723 75.9021 286.466 72.1682C293.914 79.9219 308.404 77.0351 309.992 68.2557C312.079 71.7607 314.918 74.7593 318.305 77.0351C323.493 80.5116 329.717 82.1072 335.939 81.5562C342.162 81.0051 348.007 78.3408 352.503 74.0066C356.999 69.6725 359.874 63.9301 360.649 57.7356C361.424 51.541 360.053 45.268 356.763 39.9609" stroke="#2F2F38" stroke-width="4" stroke-linecap="round" stroke-linejoin="round"/>
<path d="M195.446 72.1681C193.135 64.5104 193.256 56.3253 195.79 48.7386C198.325 41.1519 203.149 34.5363 209.599 29.8017C216.05 25.0671 223.809 22.446 231.811 22.2989C239.813 22.1519 247.664 24.4861 254.285 28.9805C257.602 26.3783 261.41 24.4705 265.481 23.3709C269.552 22.2712 273.802 22.0022 277.98 22.58C282.157 23.1578 286.175 24.5705 289.794 26.7338C293.413 28.8971 296.559 31.7667 299.045 35.1715C302.435 35.2403 305.74 36.2457 308.594 38.0761C311.781 20.1295 344.67 14.523 363.052 37.42C360.792 38.2153 358.699 39.0602 356.773 39.9548C351.22 42.4393 346.143 45.8725 341.77 50.1002C341.058 48.3468 339.901 46.8096 338.412 45.6405C336.924 44.4714 335.155 43.711 333.283 43.4345C331.41 43.158 329.497 43.375 327.734 44.064C325.97 44.753 324.418 45.8902 323.229 47.363C322.041 48.8358 321.258 50.5932 320.957 52.4614C320.657 54.3295 320.85 56.2436 321.517 58.0143C322.184 59.785 323.303 61.3509 324.761 62.5571C326.22 63.7633 327.968 64.5681 329.834 64.8917C326.629 69.1621 323.185 73.3073 318.333 76.9873" stroke="#2F2F38" stroke-width="4" stroke-linecap="round" stroke-linejoin="round"/>
<path d="M48.0543 358.39H1.19336" stroke="#2F2F38" stroke-width="4" stroke-linecap="round" stroke-linejoin="round"/>
<path d="M50.693 338.219H29.9004" stroke="#2F2F38" stroke-width="4" stroke-linecap="round" stroke-linejoin="round"/>
<path d="M53.3303 318.053H42.5879" stroke="#2F2F38" stroke-width="4" stroke-linecap="round" stroke-linejoin="round"/>
</svg>
