<svg width="178" height="178" viewBox="0 0 178 178" fill="none" xmlns="http://www.w3.org/2000/svg">
<circle cx="88.6343" cy="88.9998" r="88.5" fill="#D7CCFF"/>
<path d="M120.175 61.5192L120.177 61.5206C127.596 69.0048 132.193 78.8282 133.186 89.3197C134.179 99.8111 131.506 110.323 125.622 119.066C119.739 127.809 111.008 134.243 100.915 137.274C90.8218 140.306 79.9904 139.747 70.2632 135.692C60.536 131.638 52.5139 124.339 47.5618 115.036C42.6096 105.734 41.0333 95.0034 43.101 84.6699C45.1687 74.3364 50.7527 65.0384 58.903 58.3579C67.0533 51.6774 77.2664 48.0269 87.8047 48.0276L87.8067 48.0276C93.8268 48.02 99.7883 49.2088 105.345 51.5249C110.902 53.841 115.943 57.2382 120.175 61.5192ZM108.988 72.7619C104.148 67.8561 97.7558 64.7826 90.902 64.0665L116.058 93.6489L117.558 93.6505C117.558 93.6499 117.558 93.6493 117.558 93.6487C117.566 85.8289 114.486 78.3223 108.988 72.7619Z" fill="#F5F5F5" stroke="#2F2F38" stroke-width="3"/>
<path d="M91.8699 89.9344C91.0073 89.0347 89.8584 88.4635 88.6204 88.3186C87.3825 88.1737 86.1327 88.4643 85.0857 89.1404C84.0386 89.8165 83.2596 90.8361 82.8823 92.024C82.5049 93.2119 82.5529 94.4941 83.0179 95.6505C83.4829 96.8069 84.336 97.7653 85.4306 98.3614C86.5253 98.9574 87.7933 99.1537 89.0169 98.9168C90.2406 98.6798 91.3436 98.0243 92.1366 97.0627C92.9296 96.1012 93.3632 94.8936 93.3629 93.6472C93.3643 92.263 92.8292 90.9322 91.8699 89.9344ZM99.456 82.3647C102.066 85.0128 103.678 88.483 104.019 92.1854C104.36 95.8878 103.408 99.594 101.325 102.674C99.2426 105.754 96.1577 108.018 92.5948 109.081C89.0319 110.144 85.2109 109.94 81.7811 108.504C78.3514 107.069 75.5246 104.49 73.7812 101.206C72.0377 97.922 71.4853 94.1357 72.2176 90.4905C72.95 86.8452 74.9221 83.5661 77.7986 81.2104C80.6751 78.8546 84.2786 77.5676 87.9967 77.5681C90.1297 77.5657 92.2418 77.9886 94.2094 78.8122C96.1771 79.6358 97.9607 80.8435 99.456 82.3647Z" fill="#FF249C" stroke="#2F2F38" stroke-width="3"/>
<path d="M128.322 53.3782V39.7114L142.495 25.5388V39.2056" fill="#FF249C"/>
<path d="M128.322 53.3782V39.7114L142.495 25.5388V39.2056" stroke="#2F2F38" stroke-width="3" stroke-linecap="round" stroke-linejoin="round"/>
<path d="M142.495 38.97H155.926L141.753 53.1425H128.322" fill="#FF249C"/>
<path d="M142.495 38.97H155.926L141.753 53.1425H128.322" stroke="#2F2F38" stroke-width="3" stroke-linecap="round" stroke-linejoin="round"/>
<path d="M142.731 38.97L88.0864 93.62" stroke="#2F2F38" stroke-width="2.5" stroke-linecap="round" stroke-linejoin="round"/>
<path d="M103.616 19.4949L102.558 23.3992C102.21 24.6865 101.531 25.8603 100.588 26.8037C99.6455 27.7472 98.4723 28.4275 97.1852 28.777L93.272 29.837L97.1852 30.8998C98.4723 31.2484 99.6457 31.928 100.588 32.8711C101.531 33.8141 102.21 34.9877 102.558 36.2749L103.616 40.1848L104.673 36.2777C105.021 34.99 105.701 33.816 106.644 32.8725C107.587 31.9291 108.761 31.2489 110.049 30.8998L113.962 29.837L110.049 28.777C108.761 28.4272 107.588 27.7468 106.645 26.8034C105.702 25.86 105.022 24.6865 104.673 23.3992L103.616 19.4949Z" fill="#F5F5F5" stroke="#2F2F38" stroke-width="2" stroke-linecap="round" stroke-linejoin="round"/>
<path d="M116.864 38.49L116.394 40.2252C116.24 40.7974 115.938 41.3191 115.519 41.7384C115.1 42.1577 114.578 42.4601 114.006 42.6154L112.267 43.0865L114.006 43.5589C114.578 43.7138 115.1 44.0158 115.519 44.435C115.938 44.8541 116.24 45.3757 116.394 45.9478L116.864 47.6855L117.334 45.949C117.489 45.3767 117.791 44.855 118.21 44.4356C118.629 44.0163 119.151 43.714 119.723 43.5589L121.463 43.0865L119.723 42.6154C119.151 42.4599 118.63 42.1575 118.211 41.7382C117.792 41.319 117.489 40.7974 117.334 40.2252L116.864 38.49Z" fill="#F5F5F5" stroke="#2F2F38" stroke-width="2" stroke-linecap="round" stroke-linejoin="round"/>
</svg>
