<svg width="178" height="178" viewBox="0 0 178 178" fill="none" xmlns="http://www.w3.org/2000/svg">
<circle cx="88.6343" cy="88.9997" r="88.5" fill="#D7CCFF"/>
<path d="M120.175 61.5191L120.177 61.5205C127.596 69.0046 132.193 78.8281 133.186 89.3196C134.179 99.811 131.506 110.322 125.622 119.065C119.739 127.808 111.008 134.243 100.915 137.274C90.8218 140.306 79.9904 139.747 70.2632 135.692C60.536 131.638 52.5139 124.339 47.5618 115.036C42.6096 105.734 41.0333 95.0033 43.101 84.6698C45.1687 74.3363 50.7527 65.0383 58.903 58.3578C67.0533 51.6773 77.2664 48.0268 87.8047 48.0275L87.8067 48.0275C93.8268 48.0199 99.7883 49.2087 105.345 51.5248C110.902 53.8409 115.943 57.2381 120.175 61.5191ZM108.988 72.7618C104.148 67.856 97.7558 64.7825 90.902 64.0664C84.0482 63.3502 77.1584 65.0358 71.4093 68.8352C65.6602 72.6346 61.4086 78.3121 59.3805 84.8981C57.3525 91.484 57.6738 98.5697 60.2897 104.945C62.9056 111.32 67.6537 116.59 73.7231 119.853C79.7925 123.116 86.8066 124.171 93.5675 122.838C100.328 121.504 106.416 117.865 110.792 112.541C115.167 107.218 117.559 100.541 117.558 93.6504C117.567 85.83 114.487 78.3226 108.988 72.7618Z" fill="#F5F5F5" stroke="#2F2F38" stroke-width="3"/>
<path d="M91.8699 89.9343C91.0073 89.0347 89.8584 88.4634 88.6204 88.3185C87.3825 88.1736 86.1327 88.4642 85.0857 89.1403C84.0386 89.8165 83.2596 90.836 82.8823 92.0239C82.5049 93.2118 82.5529 94.494 83.0179 95.6504C83.4829 96.8068 84.336 97.7653 85.4306 98.3613C86.5253 98.9573 87.7933 99.1537 89.0169 98.9167C90.2406 98.6798 91.3436 98.0242 92.1366 97.0627C92.9296 96.1011 93.3632 94.8935 93.3629 93.6471C93.3643 92.263 92.8292 90.9322 91.8699 89.9343ZM99.456 82.3646C102.066 85.0128 103.678 88.483 104.019 92.1854C104.36 95.8878 103.408 99.594 101.325 102.674C99.2426 105.754 96.1577 108.018 92.5948 109.081C89.0319 110.144 85.2109 109.94 81.7811 108.504C78.3514 107.069 75.5246 104.49 73.7812 101.206C72.0377 97.922 71.4853 94.1356 72.2176 90.4904C72.95 86.8452 74.9221 83.566 77.7986 81.2103C80.6751 78.8545 84.2786 77.5676 87.9967 77.5681C90.1297 77.5656 92.2418 77.9886 94.2094 78.8122C96.1771 79.6358 97.9607 80.8434 99.456 82.3646Z" fill="#FF249C" stroke="#2F2F38" stroke-width="3"/>
<path d="M128.322 53.3781V39.7113L142.495 25.5387V39.2055" fill="#FF249C"/>
<path d="M128.322 53.3781V39.7113L142.495 25.5387V39.2055" stroke="#2F2F38" stroke-width="3" stroke-linecap="round" stroke-linejoin="round"/>
<path d="M142.495 38.9699H155.926L141.753 53.1425H128.322" fill="#FF249C"/>
<path d="M142.495 38.9699H155.926L141.753 53.1425H128.322" stroke="#2F2F38" stroke-width="3" stroke-linecap="round" stroke-linejoin="round"/>
<path d="M142.731 38.9699L88.0864 93.62" stroke="#2F2F38" stroke-width="2.5" stroke-linecap="round" stroke-linejoin="round"/>
<path d="M103.616 19.4948L102.558 23.3991C102.21 24.6865 101.531 25.8602 100.588 26.8037C99.6455 27.7471 98.4723 28.4275 97.1852 28.777L93.272 29.837L97.1852 30.8998C98.4723 31.2483 99.6457 31.9279 100.588 32.871C101.531 33.8141 102.21 34.9876 102.558 36.2748L103.616 40.1847L104.673 36.2776C105.021 34.99 105.701 33.816 106.644 32.8725C107.587 31.929 108.761 31.2489 110.049 30.8998L113.962 29.837L110.049 28.777C108.761 28.4271 107.588 27.7467 106.645 26.8034C105.702 25.86 105.022 24.6864 104.673 23.3991L103.616 19.4948Z" fill="#F5F5F5" stroke="#2F2F38" stroke-width="2" stroke-linecap="round" stroke-linejoin="round"/>
<path d="M116.864 38.4899L116.394 40.2252C116.24 40.7973 115.938 41.319 115.519 41.7383C115.1 42.1576 114.578 42.46 114.006 42.6153L112.267 43.0865L114.006 43.5588C114.578 43.7137 115.1 44.0158 115.519 44.4349C115.938 44.854 116.24 45.3756 116.394 45.9477L116.864 47.6854L117.334 45.9489C117.489 45.3767 117.791 44.8549 118.21 44.4356C118.629 44.0162 119.151 43.714 119.723 43.5588L121.463 43.0865L119.723 42.6153C119.151 42.4598 118.63 42.1575 118.211 41.7382C117.792 41.3189 117.489 40.7973 117.334 40.2252L116.864 38.4899Z" fill="#F5F5F5" stroke="#2F2F38" stroke-width="2" stroke-linecap="round" stroke-linejoin="round"/>
</svg>
