<svg width="178" height="178" viewBox="0 0 178 178" fill="none" xmlns="http://www.w3.org/2000/svg">
<ellipse cx="88.6348" cy="88.9998" rx="88.5" ry="89" fill="#D7CCFF"/>
<path d="M90.1348 45.4998L48.1348 57.9998V84.9998L66.1348 116L90.1348 133.5L115.135 113.5L130.135 84.9998V57.9998L90.1348 45.4998Z" fill="#F5F5F5"/>
<path d="M89.6058 43.0019C91.1597 43.0019 92.6898 43.1027 94.1132 43.34C95.5151 43.5237 96.8983 43.8293 98.2471 44.2533C99.5993 44.6626 100.922 45.1726 102.244 45.8131C103.531 46.424 104.854 47.1713 106.177 47.9838C108.413 49.4073 110.613 50.5578 112.855 51.4771C117.268 53.2435 121.935 54.2947 126.68 54.5908C129.088 54.7628 131.561 54.8637 134.135 54.8637V78.5872C134.135 83.0946 133.559 87.3649 132.409 91.4334C131.304 95.444 129.733 99.3115 127.729 102.957C125.734 106.598 123.373 110.026 120.684 113.188C117.953 116.422 114.995 119.458 111.835 122.274C108.632 125.098 105.259 127.722 101.734 130.132C98.2115 132.576 94.6529 134.847 91.0944 136.911L89.671 137.759L88.2476 136.911C84.5894 134.793 81.0163 132.532 77.5364 130.132C73.9921 127.749 70.6173 125.124 67.4362 122.274C64.2773 119.458 61.3222 116.422 58.5932 113.188C55.9107 110.012 53.5393 106.586 51.5118 102.957C49.5423 99.2952 47.9734 95.4317 46.8323 91.4334C45.6744 87.2506 45.1036 82.9272 45.1361 78.5872V54.8637C47.716 54.8637 50.1892 54.7628 52.5971 54.5908C54.9675 54.4262 57.3225 54.0872 59.643 53.5767C61.9145 53.0666 64.186 52.3905 66.422 51.4771C68.7422 50.5407 70.9666 49.3828 73.0646 48.0194C75.6741 46.3232 78.3193 45.0718 80.9289 44.2474C83.7393 43.3858 86.6665 42.9657 89.6058 43.0019ZM128.168 60.6937C123.679 60.4759 119.231 59.7253 114.919 58.4578C110.629 57.1782 106.543 55.2951 102.784 52.865C100.834 51.5851 98.7166 50.5811 96.4915 49.8817C94.2688 49.21 91.9573 48.878 89.6354 48.8972C87.2963 48.8821 84.9678 49.2139 82.726 49.8817C80.4976 50.5584 78.3826 51.5639 76.4511 52.865C72.6853 55.3083 68.589 57.1997 64.2869 58.4815C60.0819 59.7033 55.6812 60.4505 51.067 60.7234V78.6168C51.067 82.549 51.577 86.3092 52.5971 89.9329C53.6364 93.5252 55.0684 96.992 56.8673 100.27C58.6878 103.583 60.8335 106.706 63.2727 109.594C65.7459 112.506 68.3851 115.216 71.2319 117.79C74.0787 120.37 77.062 122.743 80.1816 124.943C83.3309 127.149 86.4861 129.148 89.6354 130.975C92.8601 129.097 96.0043 127.085 99.0596 124.943C102.2 122.749 105.199 120.36 108.039 117.79C110.886 115.216 113.531 112.506 116.004 109.594C118.444 106.706 120.589 103.583 122.409 100.27C124.2 96.9961 125.611 93.5277 126.614 89.9329C127.666 86.2535 128.189 82.4434 128.168 78.6168V60.6937Z" fill="#2F2F38"/>
<path fill-rule="evenodd" clip-rule="evenodd" d="M111.716 70.9303L109.107 68.6885L106.699 68.8961L80.8403 99.4282L72.0329 86.8547L69.6606 86.4514L66.9146 88.4146L66.5054 90.7869L77.8274 106.954L79.1144 107.666L81.8248 107.832L83.2126 107.227L111.888 73.3324L111.716 70.9303Z" fill="#2F2F38"/>
<path d="M90.1348 11.9998L90.1348 29.9998" stroke="#2F2F38" stroke-width="4" stroke-linecap="round"/>
<path d="M47.4785 44.9893L36.8984 30.427" stroke="#2F2F38" stroke-width="4" stroke-linecap="round"/>
<path d="M143.479 27.9998L132.898 42.5621" stroke="#2F2F38" stroke-width="4" stroke-linecap="round"/>
<path d="M163.156 88.9998H145.156" stroke="#2F2F38" stroke-width="4" stroke-linecap="round"/>
<path d="M35.5332 88.9998H17.5332" stroke="#2F2F38" stroke-width="4" stroke-linecap="round"/>
<path d="M90.1348 165.989L90.1348 147.989" stroke="#2F2F38" stroke-width="4" stroke-linecap="round"/>
<path d="M48.9844 127L35.3996 138.809" stroke="#2F2F38" stroke-width="4" stroke-linecap="round"/>
<path d="M144.229 140.383L130.644 128.574" stroke="#2F2F38" stroke-width="4" stroke-linecap="round"/>
</svg>
