<svg width="178" height="178" viewBox="0 0 178 178" fill="none" xmlns="http://www.w3.org/2000/svg">
<ellipse cx="88.6348" cy="88.9998" rx="88.5" ry="89" fill="#D7CCFF"/>
<path d="M122.326 86.8771L122.326 88.405C122.125 92.9578 121.022 97.4295 119.075 101.555C117.012 105.928 114.052 109.808 110.393 112.94H66.1393C61.9548 109.346 58.6944 104.782 56.6426 99.6371C54.5029 94.2715 53.7473 88.4483 54.4463 82.7096C55.1453 76.9708 57.2761 71.5039 60.6396 66.8173C64.0031 62.1308 68.4896 58.3771 73.6811 55.9043C78.8725 53.4315 84.6009 52.3195 90.3334 52.6712C96.066 53.023 101.618 54.8271 106.472 57.9165C111.327 61.0061 115.327 65.281 118.099 70.3445C120.871 75.4081 122.326 81.0954 122.326 86.8771Z" fill="#FF249C" stroke="#2F2F38" stroke-width="4"/>
<path d="M65.4453 114.94H111.155C104.131 125.793 101.79 132.879 99.6608 145.716H76.9341C74.8103 132.89 72.4634 125.793 65.4453 114.94ZM96.7231 123.91C96.8318 123.389 96.7305 122.847 96.4414 122.402C96.1523 121.956 95.6993 121.645 95.1818 121.535C94.6644 121.426 94.1249 121.528 93.6822 121.819C93.2395 122.109 92.9297 122.565 92.8211 123.086C91.8406 127.897 91.1574 132.765 90.7753 137.661C90.7523 137.922 90.7809 138.185 90.8594 138.435C90.9378 138.685 91.0646 138.917 91.2324 139.117C91.4002 139.318 91.6058 139.483 91.8373 139.603C92.0688 139.724 92.3216 139.797 92.5814 139.819C92.6388 139.824 92.6967 139.824 92.7542 139.819C93.2505 139.818 93.7287 139.631 94.0948 139.294C94.4609 138.957 94.6886 138.494 94.7331 137.997C95.1076 133.266 95.7722 128.563 96.7231 123.915V123.91ZM83.9801 139.825C84.2403 139.803 84.4938 139.731 84.7259 139.611C84.9581 139.49 85.1643 139.325 85.3327 139.125C85.5011 138.924 85.6283 138.692 85.7071 138.442C85.7859 138.191 85.8147 137.928 85.7918 137.666C85.4135 132.769 84.7283 127.901 83.7404 123.091C83.6317 122.571 83.322 122.115 82.8792 121.824C82.4365 121.534 81.8971 121.432 81.3797 121.541C80.8622 121.65 80.4091 121.962 80.1201 122.407C79.831 122.852 79.7297 123.395 79.8383 123.915C80.7885 128.571 81.4495 133.281 81.8172 138.02C81.8604 138.516 82.0869 138.979 82.4521 139.316C82.8173 139.653 83.2948 139.841 83.7906 139.841C83.854 139.845 83.9175 139.841 83.9801 139.83V139.825Z" fill="#2F2F38"/>
<path d="M79.8599 145.716C80.338 147.6 81.4263 149.27 82.953 150.463C84.4797 151.655 86.3579 152.303 88.2911 152.303C90.2243 152.303 92.1025 151.655 93.6292 150.463C95.1559 149.27 96.2442 147.6 96.7223 145.716" stroke="#2F2F38" stroke-width="4" stroke-linecap="round" stroke-linejoin="round"/>
<path d="M44.3848 101.216L28.7671 101.216" stroke="#2F2F38" stroke-width="4" stroke-linecap="round"/>
<path d="M150.238 101.216L134.62 101.216" stroke="#2F2F38" stroke-width="4" stroke-linecap="round"/>
<path d="M137.384 48.4226L125.42 58.5182" stroke="#2F2F38" stroke-width="4" stroke-linecap="round"/>
<path d="M50.2754 58.0854L38.3116 47.9899" stroke="#2F2F38" stroke-width="4" stroke-linecap="round"/>
<path d="M88.6348 41.8821V26.1762" stroke="#2F2F38" stroke-width="4" stroke-linecap="round"/>
<path d="M82.4958 85.7369L89.5221 86.4353L85.289 92.2493C85.0981 92.5287 85.1155 92.9128 85.3584 93.1572C85.6186 93.4191 86.0523 93.4366 86.3299 93.1747L95.2819 85.0909C95.8544 84.5671 95.5421 83.6069 94.7614 83.537L87.7351 82.8386L91.9683 77.0246C92.1591 76.7453 92.1417 76.3612 91.8989 76.1167C91.7703 75.9884 91.5976 75.915 91.4166 75.9117C91.2356 75.9085 91.0603 75.9757 90.9273 76.0993L81.9753 84.183C81.4202 84.7068 81.7325 85.6671 82.4958 85.7369Z" fill="#F5F5F5"/>
</svg>
