<svg width="528" height="481" viewBox="0 0 528 481" fill="none" xmlns="http://www.w3.org/2000/svg">
<g clip-path="url(#clip0_1_1045)">
<path d="M468.601 129.49L440.629 101.569L416.485 125.714C415.535 109.326 408.577 93.8622 396.941 82.279C385.304 70.6957 369.806 63.8053 353.408 62.9247L328.885 38.3996L356.274 11.0195C418.779 14.3218 468.601 66.1905 468.601 129.49Z" fill="#E0218A"/>
<path d="M440.63 101.569L468.602 129.49C468.62 153.257 461.457 176.476 448.053 196.107H349.939C367.611 196.088 384.553 189.064 397.051 176.576C409.55 164.088 416.584 147.155 416.611 129.49C416.611 128.226 416.575 126.968 416.502 125.73L440.63 101.569Z" fill="#8282D9"/>
<path d="M526.986 222.104L483.204 178.374V196.128C483.204 196.128 346.229 196.055 344.387 195.888C310.209 193.07 283.251 164.358 283.251 129.474C283.249 127.197 283.365 124.922 283.599 122.657L259.196 147.052L231.676 119.542C231.4 122.813 231.26 126.13 231.26 129.474C231.291 160.142 243.19 189.607 264.466 211.702C285.741 233.796 314.742 246.806 345.397 248.007C346.905 248.066 348.419 248.093 349.938 248.09H483.204V265.844L526.986 222.104Z" fill="white"/>
<path d="M356.274 11.0196L328.884 38.3997L353.408 62.9247C352.256 62.8693 351.1 62.8415 349.938 62.8415C333.444 62.8605 317.541 68.9824 305.295 80.0271C293.048 91.0718 285.325 106.257 283.615 122.656L259.211 147.051L231.691 119.541C233.261 100.618 239.383 82.354 249.535 66.305C244.698 58.8127 238.052 52.6583 230.209 48.4095C222.367 44.1606 213.58 41.954 204.66 41.9931C204.055 41.9902 203.45 41.9503 202.85 41.8735L202.054 54.6769L175.393 26.1007L205.383 1.04004L204.634 13.1206H204.66C224.368 13.1163 243.422 20.1883 258.352 33.0485C261.993 36.1929 265.354 39.6467 268.398 43.3712C290.397 22.4739 319.591 10.8313 349.938 10.8532C352.067 10.8532 354.179 10.9087 356.274 11.0196Z" fill="#8282D9"/>
<path d="M349.939 248.09H345.309L345.397 248.007C346.906 248.066 348.42 248.094 349.939 248.09Z" fill="white"/>
<path d="M345.397 248.007L345.308 248.09H229.762V196.117H251.83C262.271 211.487 276.178 224.191 292.43 233.204C308.682 242.217 326.825 247.287 345.397 248.007Z" fill="#D7CCFF"/>
<path d="M448.052 196.117C461.458 176.484 468.62 153.261 468.601 129.49C468.601 66.2062 418.768 14.3218 356.274 11.0352C354.193 10.9243 352.081 10.8688 349.938 10.8688C319.593 10.8427 290.399 22.4796 268.398 43.3712C265.354 39.6467 261.993 36.1929 258.352 33.0485C243.422 20.1883 224.368 13.1163 204.66 13.1206H204.634L205.383 1.04004L175.393 26.1007L202.054 54.7029L202.85 41.8995C203.45 41.9763 204.055 42.0162 204.66 42.0191C213.58 41.98 222.367 44.1866 230.209 48.4355C238.052 52.6843 244.698 58.8387 249.535 66.331C239.389 82.3832 233.268 100.645 231.691 119.567C231.415 122.838 231.275 126.156 231.275 129.5C231.249 153.278 238.413 176.508 251.829 196.143" stroke="#2F2F38" stroke-width="4" stroke-linecap="round" stroke-linejoin="round"/>
<path d="M349.939 196.117C348.072 196.117 346.23 196.039 344.404 195.888C310.226 193.017 283.268 164.358 283.268 129.474C283.268 127.197 283.384 124.921 283.616 122.656C287.06 89.098 315.48 62.8516 349.939 62.8516C351.105 62.8516 352.261 62.8793 353.409 62.9348C387.323 64.6613 414.53 91.8802 416.502 125.74C416.569 126.978 416.611 128.236 416.611 129.5C416.584 147.165 409.549 164.098 397.051 176.586C384.553 189.074 367.61 196.098 349.939 196.117Z" stroke="#2F2F38" stroke-width="4" stroke-linecap="round" stroke-linejoin="round"/>
<path d="M349.939 196.117H448.053" stroke="#2F2F38" stroke-width="4" stroke-linecap="round" stroke-linejoin="round"/>
<path d="M349.939 248.09H483.205V265.844L526.961 222.104L483.205 178.363V196.117H448.053" stroke="#2F2F38" stroke-width="4" stroke-linecap="round" stroke-linejoin="round"/>
<path d="M251.83 196.117H229.762V248.09H349.933C348.414 248.09 346.9 248.062 345.392 248.007C326.821 247.284 308.68 242.212 292.43 233.199C276.179 224.186 262.272 211.485 251.83 196.117Z" stroke="#2F2F38" stroke-width="4" stroke-linecap="round" stroke-linejoin="round"/>
<path d="M231.691 119.542L259.211 147.052L283.615 122.657" stroke="#2F2F38" stroke-width="4" stroke-linecap="round" stroke-linejoin="round"/>
<path d="M468.601 129.5L440.649 101.569L416.506 125.714" stroke="#2F2F38" stroke-width="4" stroke-linecap="round" stroke-linejoin="round"/>
<path d="M356.274 11.0195L328.885 38.3944L353.408 62.9091" stroke="#2F2F38" stroke-width="4" stroke-linecap="round" stroke-linejoin="round"/>
<path d="M345.309 248.09L370.967 222.442L344.404 195.889" stroke="#2F2F38" stroke-width="4" stroke-linecap="round" stroke-linejoin="round"/>
<path d="M181.87 127.519L174.925 129.401C172.641 130.024 170.56 131.233 168.887 132.907C167.215 134.582 166.009 136.665 165.39 138.949L163.517 145.866L161.634 138.949C161.018 136.665 159.815 134.581 158.144 132.906C156.473 131.231 154.392 130.023 152.108 129.401L145.143 127.519L152.088 125.636C154.369 125.016 156.448 123.809 158.119 122.137C159.79 120.465 160.994 118.385 161.613 116.104L163.496 109.167L165.369 116.104C165.991 118.385 167.198 120.464 168.871 122.135C170.543 123.807 172.623 125.014 174.905 125.636L181.87 127.519Z" fill="white"/>
<path d="M152.196 75.6708L141.371 78.6143C137.811 79.5787 134.566 81.4582 131.958 84.0658C129.35 86.6733 127.471 89.918 126.508 93.477L123.584 104.273L120.661 93.477C119.697 89.9172 117.817 86.6718 115.209 84.0641C112.6 81.4564 109.354 79.5774 105.793 78.6143L94.9668 75.6708L105.793 72.7326C109.354 71.7676 112.6 69.8873 115.208 67.2789C117.817 64.6705 119.696 61.4248 120.661 57.8647L123.584 47.0635L126.508 57.8647C127.472 61.4239 129.351 64.6689 131.959 67.2772C134.566 69.8855 137.811 71.7663 141.371 72.7326L152.196 75.6708Z" fill="white"/>
<path d="M105.934 128.527L101.772 129.656C100.401 130.026 99.1508 130.748 98.1466 131.752C97.1425 132.756 96.4194 134.006 96.0496 135.376L94.9311 139.511L93.8074 135.376C93.4404 134.009 92.7214 132.761 91.722 131.757C90.7225 130.754 89.4776 130.029 88.111 129.656L83.9492 128.527L88.111 127.404C89.4783 127.032 90.724 126.309 91.7237 125.305C92.7233 124.301 93.4419 123.052 93.8074 121.684L94.9311 117.523L96.0496 121.684C96.4179 123.055 97.1405 124.306 98.1449 125.31C99.1493 126.314 100.4 127.036 101.772 127.404L105.934 128.527Z" fill="white"/>
<path d="M123.584 47.0635L120.661 57.8647C119.696 61.4248 117.817 64.6705 115.208 67.2789C112.6 69.8873 109.354 71.7676 105.793 72.7326L94.9668 75.6708L105.793 78.6143C109.354 79.5774 112.6 81.4564 115.209 84.0641C117.817 86.6718 119.697 89.9172 120.661 93.477L123.584 104.273L126.508 93.477C127.471 89.918 129.35 86.6733 131.958 84.0658C134.566 81.4582 137.811 79.5787 141.371 78.6143L152.196 75.6708L141.371 72.7326C137.811 71.7663 134.566 69.8855 131.959 67.2772C129.351 64.6689 127.472 61.4239 126.508 57.8647L123.584 47.0635Z" stroke="#2F2F38" stroke-width="4" stroke-linecap="round" stroke-linejoin="round"/>
<path d="M94.9663 117.57L93.8426 121.731C93.477 123.099 92.7585 124.348 91.7588 125.352C90.7592 126.355 89.5134 127.079 88.1462 127.451L83.9844 128.574L88.1462 129.703C89.5127 130.076 90.7577 130.8 91.7571 131.804C92.7565 132.808 93.4756 134.055 93.8426 135.423L94.9663 139.558L96.0848 135.423C96.4545 134.053 97.1776 132.803 98.1818 131.799C99.186 130.795 100.436 130.072 101.807 129.703L105.969 128.574L101.807 127.451C100.435 127.083 99.1845 126.361 98.1801 125.356C97.1757 124.352 96.4531 123.102 96.0848 121.731L94.9663 117.57Z" stroke="#2F2F38" stroke-width="4" stroke-linecap="round" stroke-linejoin="round"/>
<path d="M163.517 109.167L161.634 116.104C161.015 118.385 159.811 120.465 158.14 122.137C156.469 123.809 154.39 125.016 152.108 125.636L145.143 127.519L152.088 129.401C154.371 130.023 156.452 131.231 158.123 132.906C159.794 134.581 160.997 136.665 161.613 138.949L163.496 145.866L165.369 138.949C165.988 136.665 167.194 134.582 168.866 132.907C170.539 131.233 172.621 130.024 174.905 129.401L181.849 127.519L174.905 125.636C172.623 125.014 170.543 123.807 168.871 122.135C167.198 120.464 165.991 118.385 165.369 116.104L163.517 109.167Z" stroke="#2F2F38" stroke-width="4" stroke-linecap="round" stroke-linejoin="round"/>
<path d="M492.131 370.564V436.24H426.422V408.429C431.396 408.429 436.322 407.45 440.919 405.548C445.515 403.645 449.691 400.856 453.209 397.34C456.726 393.824 459.517 389.65 461.421 385.056C463.325 380.461 464.304 375.537 464.304 370.564H492.131Z" fill="white"/>
<path d="M432.643 365.551C431.796 364.501 430.697 363.683 429.448 363.172C428.199 362.661 426.842 362.475 425.501 362.63C424.161 362.785 422.882 363.278 421.783 364.061C420.684 364.844 419.802 365.892 419.218 367.108C418.634 368.324 418.368 369.668 418.444 371.015C418.52 372.361 418.936 373.667 419.653 374.809C420.37 375.952 421.365 376.895 422.545 377.549C423.725 378.204 425.051 378.549 426.4 378.552V408.434C416.74 408.44 407.443 404.757 400.41 398.137C393.377 391.518 389.14 382.462 388.565 372.823C387.99 363.184 391.121 353.689 397.318 346.281C403.514 338.873 412.308 334.112 421.9 332.971C424.899 332.603 427.932 332.603 430.931 332.971C440.13 334.074 448.605 338.508 454.754 345.436C460.903 352.363 464.298 361.303 464.298 370.565H434.412C434.414 368.74 433.79 366.971 432.643 365.551Z" fill="white"/>
<path d="M434.412 370.564H464.304C464.304 375.537 463.325 380.461 461.421 385.056C459.517 389.65 456.726 393.824 453.209 397.34C449.691 400.856 445.515 403.645 440.919 405.548C436.322 407.45 431.396 408.429 426.422 408.429V378.547C428.54 378.547 430.572 377.706 432.07 376.209C433.569 374.712 434.411 372.682 434.412 370.564Z" fill="#2F2F38"/>
<path d="M436.733 314.785C437.905 314.825 439.015 315.318 439.83 316.16C440.645 317.003 441.101 318.129 441.101 319.301C441.101 320.473 440.645 321.6 439.83 322.442C439.015 323.285 437.905 323.778 436.733 323.818H416.112C415.505 323.838 414.901 323.737 414.335 323.519C413.769 323.301 413.252 322.972 412.816 322.551C412.38 322.129 412.033 321.624 411.796 321.066C411.56 320.508 411.438 319.908 411.438 319.301C411.438 318.695 411.56 318.095 411.796 317.537C412.033 316.978 412.38 316.474 412.816 316.052C413.252 315.631 413.769 315.301 414.335 315.084C414.901 314.866 415.505 314.764 416.112 314.785H436.733Z" fill="#D7CCFF"/>
<path d="M432.643 365.551C433.78 366.961 434.404 368.715 434.413 370.525C434.422 372.335 433.815 374.095 432.693 375.516C431.57 376.937 429.998 377.934 428.234 378.344C426.47 378.755 424.619 378.554 422.984 377.775C421.349 376.996 420.028 375.685 419.236 374.057C418.444 372.428 418.229 370.58 418.626 368.813C419.023 367.047 420.009 365.468 421.421 364.335C422.834 363.201 424.59 362.582 426.401 362.577C427.598 362.572 428.781 362.836 429.862 363.351C430.943 363.866 431.893 364.618 432.643 365.551Z" fill="white"/>
<path d="M430.937 332.966C427.938 332.598 424.905 332.598 421.906 332.966V323.813H430.937V332.966Z" fill="#8282D9"/>
<path d="M410.529 251.813L393.554 268.787L351.744 226.997C347.182 231.553 339.919 234.361 332.756 231.558L338.999 225.317C339.383 224.932 339.753 224.537 340.101 224.132C345.481 217.855 347.228 209.102 344.18 201.338C344.18 201.281 344.133 201.224 344.112 201.156C343.264 198.957 343.069 196.56 343.553 194.253C344.037 191.946 345.178 189.828 346.838 188.155L410.529 251.813Z" fill="#2F2F38"/>
<path d="M393.512 268.746L315.255 346.96V344.105C315.265 331.86 312.153 319.816 306.214 309.107C300.275 298.399 291.704 289.38 281.311 282.901L340.096 224.137C339.747 224.548 339.378 224.938 338.993 225.322L332.75 231.563C339.914 234.366 347.176 231.563 351.738 227.002L393.512 268.746Z" fill="#8282D9"/>
<path d="M336.001 476.132H245.945V452.132H305.074C305.074 445.684 308.226 438.565 315.27 435.491V444.332C315.297 448.676 316.562 452.923 318.917 456.574C321.272 460.225 324.62 463.129 328.567 464.946L328.739 465.024C330.882 465.991 332.705 467.551 333.991 469.519C335.278 471.487 335.975 473.781 336.001 476.132Z" fill="#2F2F38"/>
<path d="M173.276 388.672V343.325C173.286 333.973 175.143 324.714 178.741 316.081C182.338 307.448 187.605 299.609 194.24 293.015C200.874 286.421 208.746 281.201 217.403 277.655C226.06 274.109 235.332 272.306 244.687 272.35C257.637 272.416 270.314 276.07 281.311 282.907C291.704 289.385 300.274 298.403 306.213 309.111C312.152 319.818 315.264 331.862 315.255 344.105V435.481C308.212 438.565 305.059 445.684 305.059 452.122H245.946V343.325C245.946 343.077 245.892 342.831 245.785 342.607C245.679 342.382 245.524 342.184 245.332 342.027C245.14 341.87 244.915 341.757 244.674 341.697C244.433 341.638 244.182 341.632 243.938 341.682C243.552 341.768 243.208 341.985 242.963 342.295C242.718 342.606 242.589 342.992 242.596 343.387V420.395C242.596 450.287 218.973 475.274 189.081 475.961C188.514 475.961 187.957 475.961 187.39 475.961C149.356 475.961 118.518 443.718 118.518 403.904V388.672H173.276Z" fill="#8282D9"/>
<path d="M124.271 342.306L86.3574 304.384L95.4509 269.214C96.2092 266.277 97.5389 263.518 99.364 261.095C101.189 258.671 103.474 256.631 106.088 255.091C108.702 253.55 111.594 252.539 114.599 252.116C117.603 251.693 120.662 251.866 123.6 252.625L124.583 252.973C134.145 256.307 142.12 262.937 147.681 271.398C149.306 273.852 151.414 275.949 153.877 277.561C157.825 280.168 162.513 281.424 167.236 281.139C177.324 280.504 187.114 284.696 193.133 292.814C193.326 293.068 193.508 293.334 193.69 293.583C180.606 306.834 173.277 324.707 173.292 343.325V388.672H118.518V364.579L124.271 342.306Z" fill="#E0218A"/>
<path d="M175.424 206.721C177.873 208.729 179.869 211.232 181.283 214.065C182.697 216.897 183.497 219.997 183.631 223.16C183.764 226.323 183.228 229.479 182.058 232.42C180.887 235.362 179.108 238.024 176.838 240.231C174.568 242.438 171.857 244.142 168.883 245.23C165.908 246.317 162.738 246.765 159.579 246.544C156.419 246.323 153.342 245.437 150.549 243.945C147.755 242.454 145.309 240.389 143.368 237.887C143.309 230.609 145.506 223.491 149.658 217.512C152.92 212.788 155.373 207.554 156.915 202.025C160.155 201.399 163.493 201.493 166.692 202.302C169.891 203.111 172.872 204.614 175.424 206.705V206.721Z" fill="white"/>
<path d="M123.584 252.625C120.646 251.866 117.587 251.693 114.583 252.116C111.578 252.539 108.686 253.55 106.072 255.09C103.458 256.631 101.173 258.671 99.348 261.094C97.5229 263.518 96.1932 266.277 95.4349 269.214L78.3612 335.259C69.0877 332.077 60.7876 326.566 54.257 319.256C47.7264 311.945 43.1843 303.08 41.0664 293.51C82.601 291.472 79.8282 250.654 79.8282 228.76C79.8292 221.062 82.0164 213.523 86.1353 207.019C90.2541 200.515 96.1355 195.313 103.095 192.019C110.055 188.725 117.807 187.474 125.451 188.411C133.094 189.348 140.314 192.435 146.271 197.313C150.172 195.171 154.492 193.902 158.933 193.595C163.373 193.288 167.827 193.95 171.986 195.535C173.039 195.934 173.988 196.568 174.759 197.389C175.531 198.211 176.104 199.197 176.436 200.273C176.768 201.35 176.85 202.488 176.676 203.6C176.501 204.713 176.075 205.772 175.43 206.695C172.877 204.604 169.896 203.1 166.697 202.292C163.498 201.483 160.16 201.388 156.92 202.014C155.378 207.544 152.925 212.778 149.663 217.501C145.511 223.48 143.314 230.598 143.373 237.876C143.422 242.923 144.621 247.893 146.88 252.406C150.882 260.23 153.259 268.783 153.866 277.55C151.403 275.938 149.295 273.842 147.67 271.388C142.109 262.927 134.145 256.307 124.573 252.963L123.584 252.625Z" fill="#2F2F38"/>
<path d="M60.7367 462.419H54.9206C53.455 462.419 52.0135 462.791 50.7313 463.5C49.4491 464.21 48.3684 465.234 47.5906 466.475V466.579C47.5936 467.713 47.8634 468.83 48.3783 469.84C48.8933 470.85 49.6388 471.725 50.5547 472.394C51.4706 473.063 52.531 473.506 53.6503 473.689C54.7695 473.872 55.9162 473.789 56.9974 473.447C58.0786 473.105 59.0641 472.513 59.8741 471.72C60.6841 470.926 61.2959 469.953 61.66 468.879C62.024 467.806 62.1302 466.661 61.9698 465.539C61.8094 464.417 61.3869 463.348 60.7367 462.419ZM55.1703 479.742H20.9188C16.2368 479.742 12.2363 476.164 12.0178 471.499C11.9615 470.328 12.1435 469.158 12.5528 468.059C12.9621 466.961 13.5901 465.956 14.3989 465.108C15.2078 464.259 16.1805 463.583 17.2583 463.121C18.336 462.658 19.4964 462.42 20.6691 462.419H28.5141C32.152 462.388 35.7383 461.555 39.0174 459.98L39.4752 459.767C41.8451 458.649 43.9419 457.027 45.6187 455.013C47.2955 453 48.5119 450.645 49.1825 448.113L86.3576 304.384L124.287 342.306L92.5535 465.139C87.9599 482.909 84.5993 479.747 55.1963 479.742H55.1703Z" fill="white"/>
<path d="M60.7359 462.419C61.3861 463.348 61.8086 464.417 61.969 465.539C62.1294 466.661 62.0232 467.806 61.6592 468.879C61.2951 469.953 60.6833 470.926 59.8733 471.72C59.0633 472.513 58.0778 473.105 56.9966 473.447C55.9154 473.789 54.7687 473.872 53.6495 473.689C52.5302 473.506 51.4698 473.062 50.5539 472.394C49.638 471.725 48.8925 470.85 48.3776 469.84C47.8626 468.83 47.5928 467.713 47.5898 466.579V466.475C48.3695 465.236 49.451 464.216 50.733 463.509C52.0151 462.802 53.4557 462.433 54.9198 462.435L60.7359 462.419Z" fill="white"/>
<path d="M20.9186 479.741H9.95228C5.27028 479.741 1.26977 476.164 1.05127 471.499C0.99421 470.328 1.17569 469.157 1.5847 468.058C1.99372 466.959 2.62175 465.955 3.43071 465.106C4.23967 464.257 5.2127 463.581 6.29081 463.119C7.36892 462.657 8.52964 462.419 9.70257 462.419H20.6689C19.4961 462.42 18.3358 462.658 17.258 463.12C16.1802 463.583 15.2075 464.259 14.3987 465.107C13.5899 465.956 12.9618 466.96 12.5525 468.059C12.1432 469.158 11.9613 470.328 12.0176 471.499C12.2361 476.164 16.2522 479.741 20.9186 479.741Z" fill="white"/>
<path d="M86.3418 304.384L124.271 342.306" stroke="#2F2F38" stroke-width="4" stroke-linecap="round" stroke-linejoin="round"/>
<path d="M123.584 252.625L124.567 252.973C134.129 256.307 142.104 262.937 147.665 271.398C149.29 273.852 151.398 275.949 153.861 277.561C157.809 280.168 162.497 281.424 167.22 281.139C177.307 280.504 187.098 284.696 193.117 292.814C193.309 293.068 193.492 293.334 193.674 293.583" stroke="#2F2F38" stroke-width="4" stroke-linecap="round" stroke-linejoin="round"/>
<path d="M132.726 309.605L92.5332 465.139C87.9396 482.909 84.579 479.747 55.176 479.742C50.494 479.742 46.4935 476.164 46.2698 471.499C46.2134 470.328 46.3956 469.157 46.8052 468.058C47.2148 466.959 47.8433 465.955 48.6527 465.106C49.4621 464.257 50.4354 463.581 51.5138 463.119C52.5922 462.657 53.7531 462.419 54.9263 462.419H74.6947" stroke="#2F2F38" stroke-width="4" stroke-linecap="round" stroke-linejoin="round"/>
<path d="M22.6035 462.419H28.5132C32.1512 462.388 35.7375 461.555 39.0165 459.98L39.4743 459.767C41.8442 458.649 43.941 457.027 45.6179 455.013C47.2947 453 48.511 450.645 49.1817 448.113L95.4243 269.219C96.3218 265.763 98.0081 262.561 100.351 259.864C102.694 257.168 105.629 255.051 108.927 253.679C112.226 252.306 115.797 251.716 119.362 251.955C122.926 252.193 126.387 253.254 129.473 255.053" stroke="#2F2F38" stroke-width="4" stroke-linecap="round" stroke-linejoin="round"/>
<path d="M20.9188 479.741C16.2368 479.741 12.2363 476.164 12.0178 471.499C11.9615 470.328 12.1435 469.158 12.5528 468.059C12.9621 466.96 13.5901 465.956 14.3989 465.107C15.2078 464.259 16.1805 463.583 17.2583 463.12C18.336 462.658 19.4964 462.42 20.6691 462.419" stroke="#2F2F38" stroke-width="4" stroke-linecap="round" stroke-linejoin="round"/>
<path d="M55.1702 479.742H32.6445" stroke="#2F2F38" stroke-width="4" stroke-linecap="round" stroke-linejoin="round"/>
<path d="M32.6444 479.741H9.95228C5.27028 479.741 1.26977 476.164 1.05127 471.499C0.99421 470.328 1.17569 469.157 1.5847 468.058C1.99372 466.959 2.62175 465.955 3.43071 465.106C4.23967 464.257 5.2127 463.581 6.29081 463.119C7.36892 462.657 8.52964 462.419 9.70257 462.419H22.6041" stroke="#2F2F38" stroke-width="4" stroke-linecap="round" stroke-linejoin="round"/>
<path d="M47.5898 466.475V466.579C47.5928 467.713 47.8626 468.83 48.3776 469.84C48.8925 470.85 49.638 471.725 50.5539 472.394C51.4698 473.062 52.5302 473.506 53.6495 473.689C54.7687 473.872 55.9154 473.789 56.9966 473.447C58.0778 473.105 59.0633 472.513 59.8733 471.72C60.6833 470.926 61.2951 469.953 61.6592 468.879C62.0232 467.806 62.1294 466.661 61.969 465.539C61.8086 464.417 61.3861 463.348 60.7359 462.419" stroke="#2F2F38" stroke-width="4" stroke-linecap="round" stroke-linejoin="round"/>
<path d="M118.518 364.579V403.92C118.518 443.718 149.356 475.976 187.39 475.976C187.957 475.976 188.514 475.976 189.081 475.976C218.973 475.29 242.596 450.302 242.596 420.41V343.387C242.589 342.992 242.718 342.606 242.963 342.295C243.208 341.984 243.552 341.768 243.938 341.681C244.182 341.632 244.433 341.637 244.674 341.697C244.915 341.757 245.14 341.869 245.332 342.027C245.524 342.184 245.679 342.382 245.785 342.607C245.892 342.831 245.946 343.076 245.946 343.325V476.132H336.002C335.975 473.778 335.275 471.481 333.985 469.512C332.694 467.543 330.867 465.984 328.719 465.019L328.547 464.941C324.601 463.123 321.254 460.219 318.9 456.568C316.546 452.917 315.282 448.67 315.255 444.327V344.105C315.265 331.861 312.154 319.816 306.215 309.107C300.276 298.399 291.705 289.38 281.311 282.901C270.316 276.062 257.637 272.407 244.687 272.345C235.331 272.301 226.059 274.104 217.401 277.65C208.744 281.197 200.872 286.417 194.238 293.012C187.603 299.606 182.336 307.445 178.739 316.079C175.142 324.713 173.286 333.972 173.276 343.325C173.276 343.325 173.276 431.248 173.276 431.643" stroke="#2F2F38" stroke-width="4" stroke-linecap="round" stroke-linejoin="round"/>
<path d="M245.945 452.132H305.074C305.074 445.684 308.226 438.565 315.27 435.491" stroke="#2F2F38" stroke-width="4" stroke-linecap="round" stroke-linejoin="round"/>
<path d="M393.513 268.746L351.744 226.997C347.182 231.553 339.919 234.361 332.756 231.558L338.999 225.317C339.383 224.932 339.753 224.537 340.101 224.132C345.481 217.855 347.228 209.102 344.18 201.338C344.18 201.281 344.133 201.224 344.112 201.156C343.264 198.957 343.069 196.56 343.553 194.253C344.037 191.946 345.178 189.828 346.838 188.155L410.514 251.808L393.539 268.782L393.513 268.746Z" stroke="#2F2F38" stroke-width="4" stroke-linecap="round" stroke-linejoin="round"/>
<path d="M281.311 282.906L340.117 224.121" stroke="#2F2F38" stroke-width="4" stroke-linecap="round" stroke-linejoin="round"/>
<path d="M393.513 268.746L315.271 346.96" stroke="#2F2F38" stroke-width="4" stroke-linecap="round" stroke-linejoin="round"/>
<path d="M153.861 277.56C153.253 268.793 150.877 260.24 146.874 252.416C144.619 247.901 143.42 242.933 143.368 237.886C143.314 230.609 145.511 223.493 149.658 217.511C152.92 212.788 155.373 207.554 156.915 202.025C160.846 201.266 164.908 201.57 168.682 202.904C172.457 204.239 175.807 206.555 178.388 209.614C180.968 212.674 182.686 216.366 183.364 220.311C184.041 224.255 183.654 228.309 182.243 232.054C180.831 235.799 178.446 239.1 175.333 241.616C172.22 244.133 168.492 245.774 164.533 246.37C160.574 246.967 156.528 246.497 152.811 245.009C149.095 243.522 145.842 241.07 143.389 237.907" stroke="#2F2F38" stroke-width="4" stroke-linecap="round" stroke-linejoin="round"/>
<path d="M175.43 206.716C176.079 205.792 176.509 204.732 176.686 203.617C176.862 202.502 176.781 201.361 176.449 200.282C176.117 199.202 175.541 198.214 174.768 197.391C173.994 196.568 173.043 195.933 171.986 195.535C167.829 193.946 163.376 193.28 158.935 193.582C154.495 193.885 150.174 195.149 146.271 197.287C140.314 192.41 133.094 189.323 125.451 188.385C117.807 187.448 110.055 188.699 103.095 191.993C96.1355 195.288 90.2541 200.489 86.1353 206.993C82.0164 213.497 79.8292 221.036 79.8282 228.734C79.8282 250.628 82.601 291.446 41.0664 293.484C43.1843 303.054 47.7264 311.919 54.257 319.23C60.7876 326.54 69.0877 332.051 78.3612 335.233" stroke="#2F2F38" stroke-width="4" stroke-linecap="round" stroke-linejoin="round"/>
<path d="M118.518 388.672H173.276" stroke="#2F2F38" stroke-width="4" stroke-linecap="round" stroke-linejoin="round"/>
<path d="M464.304 370.564C464.305 363.074 462.084 355.752 457.922 349.524C453.761 343.296 447.844 338.441 440.922 335.574C434 332.707 426.383 331.956 419.034 333.417C411.685 334.878 404.935 338.484 399.636 343.78C394.338 349.076 390.729 355.823 389.267 363.169C387.805 370.515 388.555 378.13 391.422 385.05C394.289 391.97 399.145 397.885 405.375 402.046C411.605 406.207 418.929 408.429 426.422 408.429C436.466 408.423 446.098 404.432 453.201 397.333C460.304 390.233 464.297 380.605 464.304 370.564Z" stroke="#2F2F38" stroke-width="4" stroke-linecap="round" stroke-linejoin="round"/>
<path d="M434.413 370.564C434.414 368.984 433.946 367.439 433.069 366.125C432.191 364.811 430.944 363.786 429.484 363.181C428.024 362.575 426.417 362.417 424.867 362.724C423.316 363.032 421.892 363.792 420.774 364.909C419.656 366.026 418.894 367.449 418.586 368.999C418.277 370.548 418.435 372.155 419.039 373.615C419.644 375.075 420.668 376.322 421.982 377.2C423.297 378.078 424.842 378.547 426.422 378.547C427.472 378.55 428.512 378.346 429.483 377.946C430.454 377.546 431.336 376.959 432.078 376.217C432.821 375.475 433.409 374.594 433.81 373.624C434.211 372.654 434.416 371.614 434.413 370.564Z" stroke="#2F2F38" stroke-width="4" stroke-linecap="round" stroke-linejoin="round"/>
<path d="M432.645 365.551L447.736 353.408" stroke="#2F2F38" stroke-width="4" stroke-linecap="round" stroke-linejoin="round"/>
<path d="M434.412 370.564H492.121V436.24H426.422V378.547" stroke="#2F2F38" stroke-width="4" stroke-linecap="round" stroke-linejoin="round"/>
<path d="M421.902 323.818H416.112C415.505 323.838 414.901 323.737 414.335 323.519C413.769 323.301 413.252 322.972 412.816 322.551C412.38 322.129 412.033 321.624 411.796 321.066C411.56 320.508 411.438 319.908 411.438 319.301C411.438 318.695 411.56 318.095 411.796 317.537C412.033 316.978 412.38 316.474 412.816 316.052C413.252 315.631 413.769 315.301 414.335 315.084C414.901 314.866 415.505 314.764 416.112 314.785H436.733C437.905 314.825 439.015 315.318 439.83 316.16C440.645 317.003 441.101 318.129 441.101 319.301C441.101 320.473 440.645 321.6 439.83 322.442C439.015 323.285 437.905 323.778 436.733 323.818H421.902Z" stroke="#2F2F38" stroke-width="4" stroke-linecap="round" stroke-linejoin="round"/>
<path d="M430.938 323.818V332.966" stroke="#2F2F38" stroke-width="4" stroke-linecap="round" stroke-linejoin="round"/>
<path d="M421.906 332.965V323.818" stroke="#2F2F38" stroke-width="4" stroke-linecap="round" stroke-linejoin="round"/>
<path d="M380.809 345.608H364.791" stroke="#2F2F38" stroke-width="4" stroke-linecap="round" stroke-linejoin="round"/>
<path d="M374.843 364.038H354.393" stroke="#2F2F38" stroke-width="4" stroke-linecap="round" stroke-linejoin="round"/>
<path d="M375.805 382.468H341.355" stroke="#2F2F38" stroke-width="4" stroke-linecap="round" stroke-linejoin="round"/>
</g>
<defs>
<clipPath id="clip0_1_1045">
<rect width="528" height="481" fill="white"/>
</clipPath>
</defs>
</svg>
