<svg width="877" height="609" viewBox="0 0 877 609" fill="none" xmlns="http://www.w3.org/2000/svg">
<path d="M332.579 544.243C332.579 544.243 283.124 541.762 285.747 538.554C288.371 535.346 315.125 535.879 315.125 535.879L332.579 544.243Z" fill="#2F2F38"/>
<path d="M334.824 464.96L296.563 507.607C293.282 511.262 299.467 522.16 310.375 531.945C321.283 541.73 332.784 546.692 336.063 543.049L374.324 500.402L334.824 464.96Z" fill="#5F61B2"/>
<path d="M374.322 500.401C377.602 496.745 371.419 485.848 360.511 476.063C349.604 466.277 338.103 461.308 334.823 464.964C331.543 468.62 337.726 479.517 348.634 489.302C359.541 499.088 371.042 504.057 374.322 500.401Z" fill="white"/>
<path d="M367.281 493.514C369.345 491.214 365.455 484.358 358.592 478.201C351.729 472.044 344.493 468.918 342.43 471.218C340.366 473.518 344.256 480.374 351.119 486.531C357.982 492.688 365.218 495.814 367.281 493.514Z" fill="#2F2F38"/>
<path d="M331.489 503.2C332.838 503.2 333.931 501.258 333.931 498.863C333.931 496.467 332.838 494.525 331.489 494.525C330.141 494.525 329.048 496.467 329.048 498.863C329.048 501.258 330.141 503.2 331.489 503.2Z" fill="white"/>
<path d="M331.345 482.958C329.612 483.037 327.883 482.726 326.285 482.049C324.687 481.372 323.261 480.346 322.112 479.046L322.559 478.711C323.667 479.929 325.027 480.891 326.546 481.528C328.064 482.165 329.703 482.463 331.349 482.399H331.486C334.554 482.563 337.612 481.924 340.358 480.546L340.667 481.013C340.551 481.091 337.759 482.901 331.491 482.96L331.345 482.958Z" fill="white"/>
<path d="M302.808 523.888L302.287 523.69C303.001 521.779 303.86 519.926 304.858 518.147C305.46 517.325 306.102 516.534 306.782 515.777C309.924 512.088 315.775 505.223 317.851 498.774C318.67 496.52 319.003 494.119 318.831 491.728C318.658 489.336 317.982 487.008 316.849 484.895L317.315 484.586C318.496 486.769 319.202 489.178 319.387 491.653C319.571 494.129 319.23 496.615 318.386 498.95C316.273 505.501 310.375 512.422 307.207 516.141C306.304 517.201 305.589 518.039 305.332 518.447C304.355 520.195 303.511 522.013 302.808 523.888Z" fill="white"/>
<path d="M316.584 536.836L316.041 536.697C317.648 531.105 320.105 525.794 323.328 520.95C324.334 519.286 325.696 517.864 327.316 516.787C328.935 515.71 330.773 515.004 332.697 514.72C334.692 514.417 336.573 513.597 338.153 512.341C341.243 509.656 341.276 506.953 341.304 503.823C341.288 502.438 341.374 501.054 341.559 499.681C342.347 494.562 349.165 490.098 349.455 489.91L349.76 490.38C349.691 490.424 342.862 494.891 342.112 499.766C341.931 501.113 341.848 502.471 341.864 503.83C341.83 507.093 341.8 509.912 338.521 512.765C336.874 514.083 334.91 514.946 332.825 515.267C330.973 515.54 329.204 516.22 327.644 517.256C326.085 518.293 324.773 519.661 323.803 521.263C320.611 526.052 318.176 531.304 316.584 536.836Z" fill="white"/>
<path d="M338.378 540.782H337.817C337.828 540.219 338.093 526.978 341.835 523.592C345.132 520.604 352.825 513.095 353.017 507.889C353.211 502.625 357.226 496.349 357.396 496.091L357.868 496.394C357.826 496.457 353.765 502.805 353.577 507.915C353.383 513.139 346.372 520.243 342.21 524.011C338.648 527.223 338.379 540.646 338.378 540.782Z" fill="white"/>
<path d="M406.946 169.263C402.465 169.278 398.022 168.44 393.854 166.793C389.671 165.175 385.701 163.056 382.029 160.481C378.32 157.933 375.04 154.81 372.313 151.23C369.505 147.7 367.76 143.443 367.282 138.957C367.652 141.139 368.369 143.247 369.405 145.203C370.397 147.164 371.598 149.011 372.988 150.713C374.368 152.418 375.872 154.019 377.487 155.503C379.128 156.964 380.856 158.323 382.662 159.574C386.244 162.136 390.101 164.292 394.16 166.002C396.188 166.859 398.276 167.57 400.406 168.13C402.541 168.733 404.733 169.113 406.946 169.263Z" fill="#2F2F38"/>
<path d="M423.622 319.076C423.944 315.166 424.7 311.305 425.878 307.563C426.995 303.756 428.763 300.171 431.105 296.967C431.725 296.179 432.406 295.44 433.14 294.757L434.263 293.746L435.527 292.904C437.214 291.89 438.959 290.977 440.755 290.172C444.261 288.407 447.993 287.133 451.846 286.388C449.971 286.907 448.142 287.582 446.38 288.407C444.598 289.179 442.852 290.035 441.136 290.944C439.45 291.875 437.667 292.741 436.095 293.799L434.932 294.592L433.891 295.552C433.202 296.203 432.564 296.906 431.983 297.654C429.716 300.764 427.93 304.197 426.684 307.839C426.018 309.655 425.44 311.505 424.949 313.391C424.427 315.261 424.004 317.161 423.622 319.076Z" fill="#2F2F38"/>
<path d="M96.1215 220.769C96.1215 220.769 88.8347 217.473 90.6616 212.113C92.4885 206.754 98.0525 207.667 100.86 208.192C103.667 208.718 110.575 198.477 110.575 198.477C111.252 199.683 112.191 200.723 113.324 201.518C114.332 202.213 115.392 202.831 116.493 203.366L118.296 224.213C118.296 224.213 113.032 230.237 108.938 230.237C104.843 230.237 96.9022 226.642 96.9022 226.642L96.1215 220.769Z" fill="#D7CCFF"/>
<path d="M131.048 227.394C131.048 227.394 132.328 222.993 127.415 218.43C122.501 213.867 119.576 211.294 117.237 205.211C114.899 199.128 111.512 193.162 101.328 193.863C91.1437 194.564 87.2904 215.029 84.3652 216.676C81.4401 218.322 52.7214 231.005 52.1957 250.483C51.67 269.962 62.7234 279.259 62.7234 279.259L79.091 269.233L97.4676 228.635L97.2334 224.87L97.1172 220.045C97.1172 220.045 89.9223 219.081 91.7735 212.529C93.4616 206.559 101.094 209.195 101.094 209.195C101.094 209.195 105.605 210.598 107.119 207.85C108.395 205.323 109.527 202.725 110.511 200.071C111.136 201.11 111.973 202.007 112.968 202.703C114.249 203.127 115.341 203.986 116.056 205.131C116.764 206.1 117.177 209.948 117.296 214.379C117.208 217.93 116.717 221.459 115.832 224.9L117.588 230.727L131.048 227.394Z" fill="#2F2F38"/>
<path d="M68.4944 275.682C68.0659 275.018 58.0552 259.33 59.6374 250.178C60.5344 244.992 69.1398 237.069 76.732 230.079C82.6204 224.657 88.1827 219.535 88.6824 216.994C89.7459 211.562 94.0521 200.763 98.4883 199.493C102.715 198.279 108.725 203.962 108.973 204.204L108.508 204.693C108.447 204.636 102.527 199.04 98.674 200.14C94.8571 201.235 90.5197 211.088 89.3416 217.124C88.8021 219.881 83.4202 224.837 77.1883 230.575C69.6759 237.492 61.1607 245.333 60.3019 250.293C58.763 259.183 68.9576 275.153 69.06 275.313L68.4944 275.682Z" fill="white"/>
<path d="M74.6935 271.924C74.3292 271.252 65.7828 255.377 69.6795 247.761C71.81 243.597 77.9188 240.089 83.3076 236.992C87.8185 234.403 92.0656 231.961 93.1066 229.658C94.5106 226.531 95.4281 223.208 95.827 219.804L96.4985 219.859C96.0938 223.34 95.1576 226.739 93.7225 229.936C92.5931 232.436 88.4465 234.818 83.6459 237.57C78.3369 240.618 72.3201 244.076 70.2867 248.061C66.5496 255.363 75.2053 271.433 75.2938 271.594L74.6935 271.924Z" fill="white"/>
<path d="M196.038 525.944C196.038 525.944 168.612 528.565 163.363 524.046C158.115 519.526 192.082 519.268 192.082 519.268L196.038 525.944Z" fill="#2F2F38"/>
<path d="M302.736 359.16V374.905H193.536C186.059 374.941 178.672 373.269 171.939 370.016C165.161 366.7 158.937 359.259 152.43 350.85C145.837 342.348 141.112 329.013 138.376 319.308C134.785 306.573 132.408 300.463 132.408 300.463C132.408 300.463 143.338 328.835 163.169 341.859C183 354.883 302.736 356.244 302.736 356.244V359.16Z" fill="#2F2F38"/>
<path d="M302.736 256.241V268.386C302.736 268.386 194.853 264.256 182.753 269.947C170.654 275.638 169.424 284.972 169.424 284.972L168.612 277.818C168.612 277.818 170.944 265.427 178.675 261.054C186.406 256.68 191.649 253.618 202.73 253.618C213.811 253.618 302.74 252.354 302.74 252.354L302.736 256.241Z" fill="#2F2F38"/>
<path d="M201.777 321.419C193.135 321.419 184.847 317.986 178.736 311.875C172.625 305.764 169.191 297.475 169.191 288.833C169.191 280.191 172.625 271.902 178.736 265.791C184.847 259.68 193.135 256.247 201.777 256.247H302.736V218.496H201.777C183.184 218.588 165.385 226.039 152.27 239.219C139.155 252.399 131.793 270.236 131.793 288.829C131.793 307.422 139.155 325.258 152.27 338.438C165.385 351.618 183.184 359.069 201.777 359.161H302.736V321.419H201.777Z" fill="#D7CCFF"/>
<path d="M162.152 268.653C166.596 267.35 170.949 265.755 175.182 263.877C178.131 262.161 183.683 259.829 185.134 262.452C186.584 265.075 177.456 271.301 177.456 271.301L185.291 269.153L191.841 268.193C192.09 268.673 192.22 269.206 192.22 269.747C192.22 270.288 192.09 270.821 191.841 271.301C191.062 273.341 190.382 273.632 190.382 273.632C190.72 274.05 190.964 274.535 191.098 275.055C191.232 275.575 191.253 276.117 191.159 276.646C190.575 278.06 189.678 279.323 188.536 280.34C189.004 281.304 189.173 282.387 189.022 283.449C188.633 284.713 185.619 286.657 185.619 286.657C185.619 286.657 188.439 286.559 189.41 287.823C190.202 288.988 190.885 290.225 191.451 291.516L165.138 290.055L162.152 268.653Z" fill="#D7CCFF"/>
<path d="M87.8463 330.584C87.8463 330.584 90.0809 376.264 79.973 397.257C72.2126 413.374 54.5976 438.431 46.8354 449.199C44.4862 452.456 43.041 454.404 43.041 454.404L65.5486 472.288C65.5486 472.288 108.353 426.414 112.24 408.142C116.126 389.869 121.798 369.655 121.798 369.655L182.997 482.785L207.489 476.176L165.404 366.353L138.377 319.307L87.8463 330.584Z" fill="#2F2F38"/>
<path d="M116.041 228.149C116.041 228.149 124.908 225.743 131.048 227.395C137.188 229.046 152.13 239.135 152.13 239.135C152.13 239.135 143.013 249.772 141.054 253.466C138.194 258.877 135.819 264.53 133.954 270.359L162.036 266.889L165.545 291.951L132.013 297.371C132.013 297.371 133.566 305.54 134.588 309.474C135.625 312.839 136.914 316.12 138.445 319.292L87.7837 330.569C87.7837 330.569 74.0429 253.441 79.305 243.146C84.5671 232.851 97.1387 229.688 97.1387 229.688L104.599 231.44L116.041 228.149Z" fill="#E0218A"/>
<path d="M271.439 218.496V267.455L302.736 268.383V218.496H271.439Z" fill="#5F61B2"/>
<path d="M254.042 218.495L271.439 213.954L257.833 188.879L281.743 206.957L302.736 176.051L300.111 207.54L336.266 191.796L312.066 220.079L345.888 242.238L312.941 243.438L341.222 278.101L309.441 261.274L317.898 300.463L295.737 272.853L278.826 301.719L283.783 272.561L255.5 288.826L268.33 273.144L254.042 267.117L302.736 268.382V218.495H254.042Z" fill="#FF249C"/>
<path d="M271.439 256.241L302.736 256.72V268.382L271.439 267.454V256.241Z" fill="#55498B"/>
<path d="M97.3464 226.679C96.7721 226.436 96.871 228.829 96.871 228.829C96.871 228.829 97.3221 232.993 107.031 233.461C116.74 233.93 118.744 228.777 118.744 228.777C118.859 228.381 118.878 227.964 118.8 227.56C118.721 227.155 118.546 226.775 118.291 226.452C117.574 225.785 116.741 225.255 115.832 224.891C115.832 224.891 113.23 230.392 105.714 229.081L97.3464 226.679Z" fill="#5F61B2"/>
<path d="M275.331 355.564V374.906H302.736V356.245L275.331 355.564Z" fill="#55498B"/>
<path d="M302.736 321.411H275.331V359.157H302.736V321.411Z" fill="#5F61B2"/>
<path d="M302.736 348.272L328.2 331.167L311.872 356.242L342.002 379.18L311.678 370.433L313.621 402.311L301.959 380.54L274.356 401.145L290.878 379.569L266.97 387.732L279.993 374.904H302.736V348.272Z" fill="#FF249C"/>
<path d="M74.7247 522.584L47.0244 523.315C47.0244 523.315 7.95312 494.157 7.95312 490.657C7.95312 487.158 29.0936 477.099 30.4052 473.455C31.7168 469.812 30.5509 463.393 32.5913 463.393C34.6316 463.393 35.5407 467.166 35.5407 467.166L34.1978 468.932L38.2802 470.452L39.7375 475.784L39.0089 481.178L54.3199 482.781C54.9301 483.441 55.3893 484.227 55.6655 485.083C55.9417 485.939 56.0284 486.845 55.9195 487.737C55.628 490.945 51.9829 501.005 55.1908 505.379C58.3987 509.752 69.9154 513.398 72.1014 515.441C74.2875 517.485 74.7247 522.584 74.7247 522.584Z" fill="#5F61B2"/>
<path d="M67.3373 512.844C67.3373 512.844 64.7141 513.885 65.7759 516.123C66.4369 517.511 66.8724 517.881 67.1118 517.969C65.3248 517.969 52.8209 517.921 49.9357 517.289C46.8249 516.609 17.6065 482.786 17.6065 482.786C12.5595 485.959 7.948 489.023 7.948 490.658C7.948 494.157 47.0192 523.315 47.0192 523.315L74.7196 522.584C74.7196 522.584 74.2823 517.482 72.0946 515.441C70.6148 514.394 69.0183 513.523 67.3373 512.844Z" fill="#5F61B2"/>
<path d="M52.2719 507.717C53.5852 508.585 57.331 507.452 57.331 507.452V507.438C56.5246 506.858 55.8039 506.167 55.1901 505.385C53.2244 502.705 53.8333 497.892 54.6696 493.825C54.6696 493.825 49.3138 492.85 48.2503 494.601C47.1867 496.352 50.9603 506.843 52.2719 507.717Z" fill="#5F61B2"/>
<path d="M192.877 497.431C192.877 497.431 188.633 494.775 188.925 497.431C189.216 500.087 193.104 501.059 193.299 504.072C193.493 507.086 191.548 522.829 191.737 524.198C191.926 525.567 192.322 526.044 193.876 526.044C195.431 526.044 248.498 523.323 251.218 520.893C253.939 518.462 255.787 517.005 254.329 515.159C252.872 513.313 237.71 508.647 232.656 504.954C227.602 501.26 211.422 490.38 211.422 490.38L212.853 494.094L206.413 496.985L206.51 499.998L192.877 497.431Z" fill="#5F61B2"/>
<path d="M254.271 515.153C252.7 514.004 250.957 513.109 249.108 512.5C249.108 512.5 244.868 512.821 244.212 514.861C244.057 515.528 244.069 516.223 244.247 516.885C244.425 517.546 244.764 518.153 245.232 518.652C245.232 518.652 240.721 518.579 236.122 519.017C231.523 519.454 192.255 516.824 192.255 516.824C191.898 520.481 191.598 523.618 191.681 524.192C191.875 525.552 192.264 526.038 193.818 526.038C195.373 526.038 248.44 523.317 251.162 520.887C253.884 518.456 255.73 516.999 254.271 515.153Z" fill="#5F61B2"/>
<path d="M44.4184 455.501L34.196 468.937C34.196 468.937 37.8395 471.123 37.9869 474.476C38.1344 477.83 34.779 480.896 36.6736 482.785C38.5681 484.674 40.173 484.973 41.6303 484.244C43.0877 483.515 45.1297 485.41 46.8786 485.41C48.6274 485.41 49.5036 483.515 50.378 483.515C51.2524 483.515 52.4183 485.41 52.4183 485.41L63.241 470.456L44.4184 455.501Z" fill="#D7CCFF"/>
<path d="M221.335 497.082C221.335 497.082 219.054 502.613 220.511 504.218C221.968 505.823 235.308 510.268 236.183 510.117C237.057 509.966 237.588 507.657 237.588 507.657C235.869 506.904 234.221 505.996 232.666 504.945C230.345 503.255 225.695 500.054 221.335 497.082Z" fill="#5F61B2"/>
<path d="M63.2402 470.456L41.3381 459.549L44.4177 455.501L63.2402 470.456Z" fill="#D7CCFF"/>
<path d="M165.404 291.95L132.743 301.361L131.961 297.374L165.404 291.95Z" fill="#2F2F38"/>
<path d="M131.961 297.375C131.961 297.375 113.504 300.699 107.672 299.241C101.839 297.784 80.9914 258.711 80.2592 253.9C79.7836 251.445 79.7836 248.921 80.2592 246.466C80.2592 246.466 77.6342 255.505 79.2391 259.148C80.8439 262.792 95.5668 300.116 100.086 302.302C104.606 304.488 132.159 298.803 132.159 298.803L131.961 297.375Z" fill="#5F61B2"/>
<path d="M185.225 482.184L194.197 500.054C194.197 500.054 198.361 498.961 199.955 499.544C201.55 500.127 202.58 502.896 205.058 502.532C207.535 502.168 210.16 500.856 210.306 498.888C210.452 496.921 209.942 496.409 210.743 495.826C211.545 495.243 212.858 494.077 212.858 494.077L206.102 476.544L185.225 482.184Z" fill="#D7CCFF"/>
<path d="M133.897 270.358C133.897 270.358 120.355 271.798 116.71 270.358C113.065 268.918 101.257 246.466 101.257 246.466C101.257 246.466 114.75 268.285 117.578 269.062C120.406 269.839 133.897 270.358 133.897 270.358Z" fill="#5F61B2"/>
<path d="M206.85 478.492L188.412 488.532L185.225 482.184L206.102 476.551L206.85 478.492Z" fill="#D7CCFF"/>
<path d="M88.014 336.417L138.376 319.307L87.8457 330.584L88.014 336.417Z" fill="#2F2F38"/>
<path d="M137.57 260.71L134.83 248.394L138.965 257.611L137.57 260.71Z" fill="#5F61B2"/>
<path d="M87.9187 258.201C87.9187 258.201 94.4057 261.482 98.1237 260.243C101.842 259.004 98.1237 256.452 98.1237 256.452C98.1237 256.452 99.6852 258.46 96.6802 258.732C93.7501 258.796 90.8196 258.619 87.9187 258.201Z" fill="#5F61B2"/>
<path d="M166.287 267.336L165.138 290.053L162.152 268.654L166.287 267.336Z" fill="#D7CCFF"/>
<path d="M121.797 369.648L128.811 348.946C128.811 348.946 124.583 362.465 127.5 374.022C130.416 385.578 131.981 388.474 131.981 388.474L121.797 369.648Z" fill="#2F2F38"/>
<path d="M48.0984 447.439L71.5169 465.714L65.5486 472.289L43.041 454.407L48.0984 447.439Z" fill="#FF249C"/>
<path d="M179.623 476.553L205.295 470.458L207.488 476.178L182.996 482.787L179.623 476.553Z" fill="#FF249C"/>
<path d="M60.8536 457.422L60.4407 457.044C60.7564 456.697 92.0568 422.299 99.531 398.149C107.005 373.998 102.985 331.7 102.944 331.28L103.501 331.225C103.542 331.65 107.578 374.049 100.067 398.314C92.5565 422.579 61.1694 457.077 60.8536 457.422Z" fill="#FF249C"/>
<path d="M133.727 391.121L133.282 391.463L195.817 472.821L196.261 472.479L133.727 391.121Z" fill="#FF249C"/>
<path d="M96.2983 211.059C96.2983 211.059 99.2217 211.352 99.5149 213.75C99.8081 216.147 95.6547 217.494 95.6547 217.494C95.6547 217.494 98.009 215.972 97.5926 214.86C97.1762 213.748 94.7178 214.275 94.7178 214.275C95.4338 213.744 96.2537 213.369 97.1242 213.175C97.9916 213.165 98.2866 213.175 98.2866 213.175C98.2866 213.175 98.552 212.693 96.2983 211.059Z" fill="#D7CCFF"/>
<path d="M105.891 220.356C107.261 221.396 108.835 222.135 110.511 222.523C111.033 222.669 111.588 222.642 112.094 222.447C112.6 222.252 113.029 221.899 113.318 221.441C113.318 221.441 112.149 223.696 110.921 223.523C109.114 222.69 107.423 221.626 105.891 220.356Z" fill="#5F61B2"/>
<path d="M45.5062 513.56L51.1066 510.291L47.51 506.306L41.9634 509.933L45.5062 513.56Z" fill="#5F61B2"/>
<path d="M39.9059 507.754C41.398 506.277 43.1426 505.08 45.057 504.219C47.243 503.564 48.0515 503.352 48.0515 503.352L44.9841 498.905C43.2427 499.709 41.5474 500.609 39.9059 501.601C38.7286 502.373 37.7073 503.359 36.8958 504.509L39.9059 507.754Z" fill="#5F61B2"/>
<path d="M34.5326 501.912C35.612 500.082 37.2236 498.623 39.1528 497.731C40.9607 496.909 42.9249 496.486 44.9111 496.492L42.4735 491.966C42.4735 491.966 37.1298 492.257 34.5326 494.445C31.9354 496.633 30.6914 497.641 30.6914 497.641L34.5326 501.912Z" fill="#5F61B2"/>
<path d="M236.401 518.99C236.072 517.519 236.072 515.992 236.401 514.521C236.986 512.479 237.229 512.5 237.229 512.5L232.564 511.216C231.861 512.244 231.366 513.4 231.105 514.618C231.056 515.881 231.105 518.99 231.105 518.99H236.401Z" fill="#5F61B2"/>
<path d="M228.806 518.918C228.41 517.019 228.41 515.059 228.806 513.16C229.088 512.179 229.671 511.311 230.474 510.681L225.225 508.793C224.258 509.966 223.574 511.345 223.227 512.825C223.101 514.773 223.101 516.726 223.227 518.674L228.806 518.918Z" fill="#5F61B2"/>
<path d="M220.511 518.528C220.063 516.209 220.063 513.825 220.511 511.506C220.994 509.949 221.894 508.554 223.114 507.472L217.055 505.141C215.875 506.739 215.064 508.578 214.68 510.528C214.632 512.665 214.68 518.203 214.68 518.203L220.511 518.528Z" fill="#5F61B2"/>
<path d="M206.367 515.554H201.044C199.938 515.554 199.041 516.451 199.041 517.558V517.559C199.041 518.666 199.938 519.563 201.044 519.563H206.367C207.474 519.563 208.371 518.666 208.371 517.559V517.558C208.371 516.451 207.474 515.554 206.367 515.554Z" fill="#5F61B2"/>
<path d="M28.0488 491.411L24.5361 487.412C23.8057 486.58 22.5396 486.498 21.7081 487.229L21.7068 487.23C20.8753 487.96 20.7933 489.226 21.5236 490.058L25.0364 494.057C25.7667 494.888 27.0329 494.97 27.8644 494.24L27.8657 494.239C28.6972 493.509 28.7792 492.242 28.0488 491.411Z" fill="#5F61B2"/>
<path d="M47.0241 523.316C47.0241 523.316 -4.87544 523.681 0.372804 519.562C5.62105 515.443 39.8552 517.893 39.8552 517.893L47.0241 523.316Z" fill="#2F2F38"/>
<path d="M290.022 359.22C289.994 359.092 287.317 346.404 290.022 336.732C290.834 333.922 292.487 331.428 294.757 329.585C297.027 327.742 299.807 326.637 302.724 326.419L302.745 326.978C299.947 327.191 297.281 328.254 295.104 330.024C292.927 331.794 291.343 334.187 290.563 336.882C287.893 346.425 290.541 358.975 290.563 359.102L290.022 359.22Z" fill="#55498B"/>
<path d="M275.362 332.807L275.299 332.25C278.384 331.815 281.173 330.183 283.063 327.708C285.636 323.851 284.288 321.656 284.229 321.566L284.697 321.259C284.765 321.361 286.323 323.83 283.53 328.025C282.555 329.326 281.331 330.419 279.928 331.24C278.525 332.061 276.973 332.594 275.362 332.807Z" fill="#55498B"/>
<path d="M281.118 359.284L280.617 359.035C280.61 356.963 280.35 354.9 279.843 352.891C279.672 351.405 279.167 349.978 278.364 348.715C277.562 347.453 276.484 346.389 275.211 345.604L275.449 345.098C276.812 345.908 277.969 347.024 278.828 348.359C279.686 349.693 280.223 351.208 280.395 352.785C281.374 358.198 281.197 359.127 281.118 359.284Z" fill="#55498B"/>
<path d="M275.747 256.482L275.313 256.135C276.795 254.751 278.449 253.563 280.234 252.601C281.891 251.669 283.74 251.131 285.638 251.029C288.148 250.962 290.555 250.016 292.439 248.356C295.104 245.927 294.868 244.78 294.403 242.483C294.026 240.841 293.859 239.158 293.904 237.474C294.101 231.166 302.257 226.735 302.604 226.544L302.868 227.038C302.787 227.082 294.65 231.502 294.462 237.486C294.42 239.127 294.585 240.767 294.953 242.367C295.429 244.712 295.717 246.128 292.816 248.765C290.843 250.501 288.328 251.496 285.702 251.579C283.884 251.669 282.112 252.18 280.525 253.071C278.803 254.015 277.199 255.16 275.747 256.482Z" fill="#55498B"/>
<path d="M281.467 239.066C276.625 239.066 271.508 234.143 271.245 233.884L271.635 233.483C271.711 233.558 279.413 240.963 284.505 237.628C287.682 235.546 287.3 233.586 286.857 231.313C286.437 229.806 286.425 228.215 286.821 226.701C288.209 222.364 295.773 218.41 296.094 218.245L296.353 218.741C296.275 218.781 288.664 222.759 287.354 226.871C286.992 228.297 287.01 229.793 287.407 231.209C287.867 233.577 288.303 235.813 284.805 238.098C283.812 238.744 282.651 239.081 281.467 239.066Z" fill="#55498B"/>
<path d="M177.456 271.298C176.208 272.274 175.053 273.364 174.006 274.554C173.371 275.297 172.803 276.094 172.305 276.934L179.844 270.644L177.456 271.298Z" fill="#D7CCFF"/>
<path d="M190.382 273.629C189.157 274.535 187.815 275.271 186.391 275.817C184.4 276.497 182.942 276.934 182.942 276.934C182.942 276.934 186.343 276.351 187.948 275.865C188.991 275.515 189.945 274.938 190.741 274.177L190.382 273.629Z" fill="#D7CCFF"/>
<path d="M188.536 280.338C187.073 281.16 185.478 281.719 183.822 281.99C181.44 282.281 180.906 282.378 180.906 282.378C182.58 282.465 184.258 282.367 185.911 282.087C186.897 281.79 187.857 281.41 188.779 280.952L188.536 280.338Z" fill="#D7CCFF"/>
<path d="M185.619 286.654C184.576 287.215 183.488 287.687 182.365 288.063C181.003 288.452 180.663 288.597 180.663 288.597L188.123 287.001C187.68 286.848 187.219 286.75 186.752 286.71C186.036 286.658 185.619 286.654 185.619 286.654Z" fill="#D7CCFF"/>
<path d="M97.1177 220.036C97.5563 220.167 98.0237 220.167 98.4623 220.036L99.3107 219.831C99.3107 219.831 98.0702 221 97.6139 221.353L97.1576 221.7L97.1177 220.036Z" fill="#D7CCFF"/>
<path d="M591.204 27.3568L628.886 49.5486C628.886 49.5486 630.09 41.9773 634.221 39.2239C638.352 36.4705 657.45 23.5729 657.45 23.5729L609.444 0L600.325 20.4725L591.204 27.3568Z" fill="#2F2F38"/>
<path d="M587.263 47.6665L586.199 47.3109C587.219 44.48 588.569 41.7796 590.223 39.2659C592.809 35.7099 595.65 32.3468 598.724 29.2031L599.527 29.9821C596.509 33.0812 593.714 36.3893 591.161 39.8818C589.564 42.3167 588.256 44.9292 587.263 47.6665Z" fill="#D7CCFF"/>
<path d="M709.975 96.5993C709.975 96.5993 704.536 97.3297 704.364 95.2651C704.192 93.2005 709.928 92.3399 711.762 89.4148C713.596 86.4897 712.803 58.5586 712.803 58.5586L781.627 66.1282C781.627 66.1282 782.321 70.6027 776.809 74.2825C771.297 77.9624 756.276 79.673 750.082 82.9989C746.039 85.2806 742.364 88.1621 739.185 91.5453L735.859 94.356C735.859 94.356 725.534 89.538 725.191 89.538C724.847 89.538 715.785 97.5656 715.785 97.5656L709.975 96.5993Z" fill="#FF249C"/>
<path d="M751.815 97.9172C751.815 97.9172 749.653 90.417 751.815 90.1585C753.977 89.9 753.632 93.1704 757.415 93.1704C761.199 93.1704 782.451 81.6416 782.451 81.6416L809.259 140.916C809.259 140.916 807.08 143.326 801.116 141.834C795.151 140.342 778.634 127.153 774.619 124.858C771.049 123.171 767.268 121.975 763.377 121.303L767.822 112.699L764.64 106.505L758.618 106.158L751.815 97.9172Z" fill="#FF249C"/>
<path d="M773.851 86.1554C773.851 86.1554 799.169 127.274 798.14 128.65C797.111 130.026 794.7 131.632 794.355 133.124C794.009 134.616 795.616 139.141 795.652 139.243C797.357 140.34 799.196 141.215 801.123 141.846C807.087 143.338 809.267 140.928 809.267 140.928L782.451 81.6445C782.451 81.6445 778.58 83.7438 773.853 86.1554H773.851Z" fill="#5F61B2"/>
<path d="M773.076 117.777C769.978 117.175 771.551 123.474 771.551 123.474C772.61 123.854 773.635 124.318 774.619 124.862C776.619 126.006 781.732 129.857 787.084 133.615C787.352 132.601 787.498 131.559 787.52 130.51C787.529 128.96 776.173 118.379 773.076 117.777Z" fill="#D7CCFF"/>
<path d="M533.401 157.779L551.984 180.262L573.324 166.73C576.742 167.304 580.248 167.028 583.534 165.928C589.039 164.092 597.528 155.603 603.379 154.916C609.229 154.229 628.728 153.31 628.728 153.31L614.276 113.735L587.089 119.808L591.104 116.253L573.999 98.5908C573.999 98.5908 560.813 105.817 555.646 113.043C552.563 117.359 550.918 122.536 550.943 127.84L554.843 133.462L550.6 148.145L542.685 152.963L533.401 157.779Z" fill="#FF249C"/>
<path d="M533.401 157.779C533.401 157.779 522.62 165.809 517.571 166.268C512.523 166.728 480.107 164.662 477.962 166.268C475.818 167.875 468.134 168.562 462.972 169.136C457.811 169.711 450.133 168.442 450.239 170.857C450.273 172.138 450.465 173.409 450.812 174.641C450.812 174.641 437.735 173.437 437.564 176.449C437.392 179.461 444.275 183.332 449.349 183.504C451.441 183.639 453.538 183.639 455.63 183.504C455.63 183.504 454.426 187.804 456.749 188.924L459.072 190.041L458.642 191.418C458.642 191.418 446.598 191.503 445.909 194.085C445.22 196.667 460.018 198.473 465.687 197.182C471.357 195.891 482.378 192.105 487.027 192.105C491.677 192.105 516.02 194.429 523.59 192.881C531.159 191.333 551.981 180.263 551.981 180.263L533.401 157.779Z" fill="#D7CCFF"/>
<path d="M573.999 98.5904C573.999 98.5904 580.71 94.633 584.15 92.9119C587.59 91.1908 591.893 88.9545 591.893 88.9545C591.893 88.9545 586.732 72.4377 584.15 67.6145C581.568 62.7913 578.874 59.3561 579.391 56.66C579.527 55.2842 580.183 54.0122 581.225 53.1033C581.225 53.1033 578.759 45.5337 580.531 41.6335C582.302 37.7333 584.603 36.0122 585.349 36.5865C586.095 37.1608 586.725 47.4838 586.725 47.4838C587.832 46.7255 589.179 46.399 590.51 46.566C592.115 47.0865 591.886 49.4339 591.886 49.4339C593.053 49.0856 594.31 49.2103 595.386 49.7809C596.761 50.7559 596.933 51.4447 596.933 51.4447C597.552 51.3515 598.184 51.4306 598.761 51.6733C599.337 51.916 599.836 52.3129 600.202 52.8205C602.221 54.6451 603.742 56.9549 604.619 59.5313C605.251 62.283 615.631 91.8206 610.813 98.5887C605.995 105.357 591.083 116.254 591.083 116.254L573.999 98.5904Z" fill="#D7CCFF"/>
<path d="M614.262 113.731C614.262 113.731 617.014 104.784 635.255 102.719C653.496 100.654 665.537 99.7939 665.537 99.7939L673.28 130.078H678.964L673.974 161.735C673.974 161.735 649.369 156.23 643.519 155.026C638.623 154.168 633.683 153.594 628.721 153.305L614.262 113.731Z" fill="#FF249C"/>
<path d="M665.536 99.7961C665.536 99.7961 689.624 100.664 708.665 101.345C727.706 102.027 753.741 97.4452 754.782 97.5597C755.823 97.6742 757.419 104.442 759.255 104.673C761.09 104.904 764.302 103.979 766.137 105.934C767.596 107.984 768.683 110.274 769.349 112.701L763.384 121.304C763.384 121.304 734.191 128.187 728.511 127.842C722.831 127.496 673.281 130.08 673.281 130.08L665.536 99.7961Z" fill="#D7CCFF"/>
<path d="M673.967 161.735C673.967 161.735 700.292 170.683 709.754 161.735C719.217 152.788 729.391 127.841 729.391 127.841L739.177 91.5338C738.213 92.1032 737.114 92.4036 735.995 92.4036C734.875 92.4036 733.776 92.1032 732.812 91.5338C729.599 89.5264 727.248 86.2578 724.666 87.8054C722.085 89.3529 718.358 94.688 716.81 95.0922C714.682 95.3597 712.535 95.456 710.391 95.3802L699.114 128.815L678.955 130.079L673.967 161.735Z" fill="#D7CCFF"/>
<path d="M758.621 76.7388C757.159 76.0448 737.2 80.266 737.108 83.4496C737.016 86.6333 743.007 87.905 743.007 87.905C745.186 86.0257 747.556 84.3785 750.077 82.9899C753.715 81.3678 757.517 80.1411 761.418 79.3308C760.678 78.2798 759.725 77.3965 758.621 76.7388Z" fill="#D7CCFF"/>
<path d="M514.925 128.873C513.845 129.145 512.716 129.165 511.627 128.932C510.537 128.699 509.516 128.219 508.64 127.53C507.765 126.84 507.06 125.959 506.578 124.954C506.097 123.95 505.852 122.848 505.863 121.734C505.088 112.787 514.415 112.911 517.505 115.568C521.577 119.067 520.402 126.465 520.402 126.465C521.454 125.75 522.665 125.305 523.93 125.167C525.766 124.976 527.621 125.213 529.35 125.861L533.737 130.134V134.149C533.737 134.149 530.583 140.171 527.665 141.89C524.19 143.485 520.582 144.771 516.882 145.733C516.882 145.733 511.084 142.345 511.375 136.5C511.404 135.052 511.734 133.625 512.346 132.312C512.957 130.999 513.835 129.827 514.925 128.873Z" fill="#2F2F38"/>
<path d="M509.075 137.133C509.224 139.172 509.962 141.124 511.197 142.752C512.819 144.194 514.768 145.218 516.876 145.735C516.876 145.735 511.484 146.824 509.763 143.899C508.747 141.794 508.504 139.399 509.075 137.133Z" fill="#2F2F38"/>
<path d="M495.331 192.551C492.849 187.966 491.394 182.896 491.067 177.692C490.873 173.551 491.781 169.431 493.7 165.756H497.031C495.701 169.802 495.118 174.056 495.31 178.31C496.02 183.152 497.172 187.919 498.753 192.551H495.331Z" fill="#5F61B2"/>
<path d="M490.85 165.696C490.85 165.696 490.249 162.683 491.238 162.252C492.227 161.822 499.54 161.994 500.487 162.639C501.435 163.285 500.788 165.962 500.788 165.962L490.85 165.696Z" fill="#FF249C"/>
<path d="M550.943 127.84C550.943 127.84 553.782 125.604 556.793 129.474C559.805 133.345 559.117 141.175 557.314 144.187C555.22 147.281 552.299 149.725 548.884 151.241C546.934 152.169 544.839 152.751 542.69 152.962C542.69 152.962 550.69 146.296 552.232 140.08C553.068 135.964 552.618 131.691 550.943 127.84Z" fill="#5F61B2"/>
<path d="M550.943 127.839H545.781C545.781 127.839 547.416 117.429 535.892 117.082C524.369 116.735 529.355 125.857 529.355 125.857L533.743 130.131C533.743 130.131 534.143 136.14 527.323 140.075C520.503 144.01 516.886 145.73 516.886 145.73C519.541 148.254 522.739 150.138 526.234 151.236C531.655 152.325 537.166 152.902 542.695 152.957C544.979 151.431 547.076 149.64 548.941 147.622C550.749 145.064 552.269 142.314 553.473 139.421C554.199 137.126 554.199 134.662 553.473 132.367C552.792 130.772 551.944 129.254 550.943 127.839Z" fill="#D7CCFF"/>
<path d="M573.305 166.727C575.03 165.559 576.544 164.104 577.779 162.426L580.102 159.416L576.704 167.017L574.854 166.942L573.305 166.727Z" fill="#D7CCFF"/>
<path d="M587.076 119.81L581.054 125.173L593.046 118.476L587.076 119.81Z" fill="#D7CCFF"/>
<path d="M573.999 98.5908L594.336 113.801L591.09 116.256L573.999 98.5908Z" fill="#D7CCFF"/>
<path d="M531.09 159.415L548.538 182.05L551.975 180.263L533.392 157.779L531.09 159.415Z" fill="#D7CCFF"/>
<path d="M664.392 159.603L670.811 132.009L678.468 133.176L673.967 161.737L664.392 159.603Z" fill="#5F61B2"/>
<path d="M658.653 100.356L665.536 130.362L673.279 130.078L665.536 99.7939L658.653 100.356Z" fill="#5F61B2"/>
<path d="M650.447 132.475L650.176 132.965L669.532 143.69L669.804 143.2L650.447 132.475Z" fill="#5F61B2"/>
<path d="M673.279 130.079C673.279 130.079 655.815 130.336 648.33 132.488C644.855 133.317 641.501 134.589 638.351 136.273C643.526 134.451 648.896 133.238 654.352 132.659C662.095 132.057 678.164 135.106 678.164 135.106L678.957 130.074L673.279 130.079Z" fill="#5F61B2"/>
<path d="M619.146 127.19L619.011 126.647C621.156 126.086 623.081 124.886 624.528 123.206C625.596 121.554 626.15 119.622 626.117 117.654L626.676 117.625C626.722 119.717 626.133 121.774 624.986 123.524C623.469 125.325 621.428 126.607 619.146 127.19Z" fill="#5F61B2"/>
<path d="M617.942 123.539L617.584 123.107C617.697 123.015 628.891 113.88 638.34 113.538C647.709 113.191 663.864 115.582 664.028 115.606L663.944 116.16C663.783 116.137 647.696 113.757 638.359 114.099C629.101 114.437 618.051 123.448 617.942 123.539Z" fill="#5F61B2"/>
<path d="M616.167 110.712L628.714 153.307L614.262 113.732C614.525 112.996 614.904 112.308 615.386 111.692L616.167 110.712Z" fill="#5F61B2"/>
<path d="M533.401 121.648C533.211 121.961 533.096 122.314 533.064 122.679C533.032 123.044 533.085 123.411 533.219 123.752C533.352 124.093 533.562 124.399 533.832 124.646C534.103 124.893 534.427 125.074 534.779 125.175C537.53 126.294 541.059 122.767 541.059 122.767C539.874 123.36 538.607 123.775 537.301 123.999C536.434 123.885 538.077 121.305 538.077 121.305C537.136 121.579 536.294 122.116 535.648 122.852C534.954 123.885 535.462 124.173 535.462 124.173C535.462 124.173 533.88 124.717 533.401 121.648Z" fill="#D7CCFF"/>
<path d="M699.116 128.815L695.646 138.51C695.646 138.51 699.948 130.595 703.476 129.649C706.053 129.004 708.667 128.516 711.304 128.187L699.116 128.815Z" fill="#D7CCFF"/>
<path d="M708.897 99.7939L737.668 97.1377L736.939 99.8408C736.939 99.8408 723.347 101.171 718.788 101.428C714.229 101.685 708.665 101.343 708.665 101.343L708.897 99.7939Z" fill="#D7CCFF"/>
<path d="M673.967 161.736L684.462 130.078H678.957L673.967 161.736Z" fill="#D7CCFF"/>
<path d="M673.279 130.078L670.93 99.9865L665.536 99.7939L673.279 130.078Z" fill="#D7CCFF"/>
<path d="M794.497 120.915C792.746 121.936 791.213 123.292 789.986 124.905C788.61 127.086 788.379 127.372 788.379 127.372L784.595 123.587C785.487 121.966 786.651 120.512 788.036 119.286C789.271 118.24 790.617 117.333 792.05 116.581L794.497 120.915Z" fill="#D7CCFF"/>
<path d="M790.456 113.816C788.506 114.846 786.725 116.168 785.175 117.735C784.059 119.287 783.062 120.92 782.192 122.621L777.72 118.835C778.672 116.95 779.954 115.25 781.505 113.816C783.627 112.126 787.959 109.55 787.959 109.55L790.456 113.816Z" fill="#D7CCFF"/>
<path d="M786.493 107.07C783.98 108.512 781.588 110.155 779.34 111.984C777.666 113.611 776.352 115.57 775.481 117.737L771.583 113.569C773.225 111.413 775.089 109.436 777.145 107.67C779.396 106.034 781.796 104.613 784.314 103.427L786.493 107.07Z" fill="#D7CCFF"/>
<path d="M757.997 64.8461C757.854 66.8686 758.111 68.8994 758.752 70.823C759.772 73.1895 759.878 73.5417 759.878 73.5417L754.616 74.5237C753.783 72.8723 753.24 71.0899 753.012 69.2546C752.849 67.6445 752.861 66.0214 753.051 64.4141L757.997 64.8461Z" fill="#D7CCFF"/>
<path d="M749.856 64.1657C749.603 66.3562 749.687 68.5725 750.105 70.7377C750.754 72.5345 751.538 74.2796 752.45 75.9582L746.799 77.5092C745.782 75.6579 745.104 73.6396 744.797 71.5497C744.711 68.9704 744.754 66.3884 744.926 63.8135L749.856 64.1657Z" fill="#D7CCFF"/>
<path d="M742.049 63.622C741.819 66.5092 741.823 69.4103 742.061 72.2968C742.457 74.5976 743.331 76.7899 744.627 78.7317L738.978 79.5888C738.123 77.0141 737.542 74.3565 737.243 71.6601C737.164 68.8788 737.348 66.0962 737.793 63.3496L742.049 63.622Z" fill="#D7CCFF"/>
<path d="M779.789 92.4799C779.155 91.5127 777.858 91.2422 776.891 91.876C775.924 92.5097 775.654 93.8076 776.288 94.7748L778.897 98.7551C779.531 99.7224 780.829 99.9928 781.795 99.359C782.762 98.7253 783.032 97.4275 782.398 96.4602L779.789 92.4799Z" fill="#D7CCFF"/>
<path d="M712.969 69.2268C712.969 69.2268 760.748 69.3414 762.009 70.3737C763.271 71.406 762.238 73.8141 763.845 75.5352C765.283 76.6831 767.053 77.336 768.892 77.3968C771.664 76.7349 774.329 75.6835 776.807 74.2738C782.312 70.6027 781.625 66.1282 781.625 66.1282L712.795 58.5586C712.795 58.5586 712.932 63.3731 712.969 69.2112V69.2268Z" fill="#5F61B2"/>
<path d="M723.253 67.6641C722.098 67.7114 721.199 68.686 721.246 69.8411C721.294 70.9962 722.269 71.8943 723.424 71.847L728.179 71.6526C729.335 71.6053 730.233 70.6306 730.186 69.4755C730.139 68.3204 729.164 67.4224 728.008 67.4696L723.253 67.6641Z" fill="#D7CCFF"/>
<path d="M581.225 53.1071C581.225 53.1071 581.745 52.1043 585.01 53.1071C588.276 54.1099 594.379 60.0469 594.726 62.1983C595.073 64.3496 591.114 64.6064 588.791 64.1761C587.465 63.9419 586.167 63.5673 584.92 63.0588C585.231 63.953 585.832 64.7178 586.626 65.2319C587.421 65.7461 588.365 65.9802 589.308 65.8972C593.092 66.0707 595.033 65.467 595.545 63.4457C596.057 61.4245 594.554 60.3055 592.49 58.3276C590.425 56.3498 586.468 52.0904 584.618 51.7018C583.982 51.652 583.343 51.7533 582.753 51.9976C582.163 52.2418 581.64 52.622 581.225 53.1071Z" fill="#D7CCFF"/>
<path d="M586.732 47.4873L586.947 53.4226C587.413 52.4994 587.677 51.4874 587.721 50.4541C587.705 49.387 587.359 48.3509 586.732 47.4873Z" fill="#D7CCFF"/>
<path d="M591.894 49.4392C591.969 50.6833 591.823 51.9309 591.463 53.1243C591.028 54.0511 590.495 54.9292 589.874 55.744L590.655 56.5126C590.655 56.5126 591.809 56.1778 592.583 53.7679C593.049 52.3073 593.245 50.7742 593.164 49.2432L592.432 49.3594L591.894 49.4392Z" fill="#D7CCFF"/>
<path d="M596.941 51.4453C596.851 53.2721 596.504 55.077 595.908 56.8063C595.412 57.8673 594.641 58.7757 593.674 59.4365C593.674 59.4365 596.103 58.3504 596.623 57.2314C596.961 55.3224 597.067 53.3798 596.941 51.4453Z" fill="#D7CCFF"/>
<path d="M609.788 20.9919C609.788 20.9919 625.446 14.9699 630.781 20.9919C636.116 27.0139 626.135 31.4884 626.135 31.4884C626.135 31.4884 631.298 26.1534 626.135 23.0565C620.972 19.9596 609.788 20.9919 609.788 20.9919Z" fill="#D7CCFF"/>
<path d="M600.197 60.0033L600.181 58.8843C604.944 58.5785 609.583 57.2368 613.773 54.9529C620.737 51.1793 624.273 43.0493 624.309 42.9678L625.338 43.4067C625.191 43.7537 621.622 51.9739 614.307 55.9366C609.966 58.3264 605.145 59.7159 600.197 60.0033Z" fill="#D7CCFF"/>
<path d="M601.042 57.1621C600.303 57.8098 599.832 58.71 599.721 59.6865C599.721 61.0623 602.275 61.7216 602.275 61.7216C602.275 61.7216 600.268 60.5401 600.554 59.2527C600.841 57.9654 601.042 57.1621 601.042 57.1621Z" fill="#D7CCFF"/>
<path d="M526.385 135.266L524.595 134.493C524.1 134.279 523.526 134.507 523.313 135.002C523.1 135.496 523.327 136.07 523.822 136.283L525.612 137.056C526.106 137.27 526.68 137.042 526.894 136.548C527.107 136.053 526.879 135.479 526.385 135.266Z" fill="#5F61B2"/>
<path d="M527.755 133.243L525.964 132.47C525.47 132.257 524.896 132.485 524.683 132.979C524.469 133.474 524.697 134.047 525.191 134.261L526.982 135.034C527.476 135.247 528.05 135.02 528.263 134.525C528.477 134.031 528.249 133.457 527.755 133.243Z" fill="#5F61B2"/>
<path d="M541.225 144.693C541.752 143.472 541.702 142.276 541.114 142.022C540.525 141.768 539.621 142.552 539.093 143.773C538.566 144.994 538.616 146.189 539.205 146.443C539.793 146.698 540.697 145.914 541.225 144.693Z" fill="#5F61B2"/>
<path d="M545.782 127.841C545.773 128.859 545.43 129.846 544.807 130.651L543.832 131.684C543.832 131.684 546.469 130.766 546.929 129.763C547.207 129.155 547.383 128.506 547.449 127.841H545.782Z" fill="#D7CCFF"/>
<path d="M450.803 174.638C450.803 174.638 452.868 177.414 458.489 177.691C464.11 177.969 467.322 178.883 469.73 180.488C472.138 182.093 478.793 180.488 478.793 180.488C477.187 181.919 475.094 182.682 472.943 182.618C469.444 182.445 467.379 180.096 463.422 179.579C459.905 179.181 456.419 178.553 452.984 177.7C451.453 177.172 450.181 176.08 449.427 174.646L450.803 174.638Z" fill="#D7CCFF"/>
<path d="M455.621 183.501C457.753 183.532 459.884 183.374 461.988 183.028C463.11 182.779 464.216 182.463 465.3 182.082C463.773 183.195 462.005 183.932 460.139 184.232C458.579 184.533 456.99 184.661 455.402 184.613L455.621 183.501Z" fill="#D7CCFF"/>
<path d="M459.064 190.041C459.064 190.041 465.343 190.561 468.354 189.439C471.366 188.316 473.585 185.044 472.692 183.76C471.798 182.476 468.476 182.986 466.885 183.066C465.834 183.115 464.781 183.105 463.731 183.038C463.731 183.038 470.886 182.764 471.488 184.012C472.09 185.259 470.886 188.099 468.004 188.696C465.122 189.293 459.064 190.041 459.064 190.041Z" fill="#D7CCFF"/>
<path d="M458.633 191.419C458.633 191.419 463.536 195.461 467.796 194.257C472.055 193.053 472.742 191.096 472.053 190.161C471.471 189.495 470.745 188.969 469.931 188.622C469.931 188.622 471.581 189.956 471.366 190.945C470.834 191.884 470.043 192.65 469.088 193.153C468.133 193.656 467.054 193.875 465.979 193.784C463.623 193.268 458.633 191.419 458.633 191.419Z" fill="#D7CCFF"/>
<path d="M599.743 312.047C596.617 310.558 593.804 308.485 591.456 305.94C587.232 301.511 584.251 293.785 583.502 291.367C583.054 289.933 582.82 288.441 582.808 286.939C585.415 288.715 588.425 289.812 591.564 290.131C595.889 290.234 599.753 289.03 602.482 289.58L605.211 290.131C605.211 290.131 600.319 276.843 612.01 278.748C623.702 280.653 619.014 290.388 617.623 291.83C616.813 292.682 615.842 293.365 614.767 293.839L623.413 304.78C623.413 304.78 613.919 308.532 609.72 309.787C605.522 311.041 599.743 312.047 599.743 312.047Z" fill="#D7CCFF"/>
<path d="M583.114 288.018C586.507 290.474 590.693 291.576 594.856 291.11C599.034 290.616 603.263 290.763 607.396 291.547C607.396 291.547 602.425 285.83 606.855 281.195C611.284 276.559 620.297 283.049 617.979 288.611C617.578 289.784 616.901 290.843 616.004 291.699C615.108 292.555 614.018 293.182 612.828 293.528L622.769 305.427L640.487 317.271C640.487 317.271 649.335 311.298 654.082 311.607C658.829 311.915 663.147 319.126 667.885 320.363C671.839 321.04 675.88 321.04 679.834 320.363L675.198 247.745C675.198 247.745 665.413 247.332 658.82 253.817C652.227 260.302 643.679 256.494 634.925 259.173C626.17 261.851 619.371 270.4 614.324 271.43C609.999 272.491 605.585 273.146 601.138 273.387C596.35 273.542 586.044 275.755 583.422 281.783C580.801 287.81 583.886 293.782 584.142 296.46C584.622 300.968 585.607 305.408 587.078 309.696C588.365 312.323 594.134 320.512 594.134 320.512L604.814 314.726C604.814 314.726 593.884 307.378 591.018 303.825C588.804 301.385 587.015 298.591 585.726 295.558C585.071 293.483 583.114 288.018 583.114 288.018Z" fill="#2F2F38"/>
<path d="M588.16 333.803L602.213 356.515L604.531 354.662C604.531 354.662 609.269 360.018 613.697 361.255C618.124 362.492 625.234 362.183 627.707 363.523C630.179 364.862 660.15 381.547 660.15 381.547L680.081 340.295C680.081 340.295 661.181 325.307 656.236 322.01C651.292 318.714 637.046 309.919 631.093 308.002C625.141 306.085 619.155 307.385 616.58 309.135C614.006 310.886 588.16 333.803 588.16 333.803Z" fill="#5F61B2"/>
<path d="M584.451 336.843L578.58 322.63C578.58 322.63 593.674 316.037 599.226 314.337C604.777 312.637 620.245 307.619 620.245 307.619L588.148 333.805L584.451 336.843Z" fill="#5F61B2"/>
<path d="M680.09 340.295C684.607 335.161 690.862 331.878 697.653 331.076C709.189 329.634 723.403 330.664 729.996 327.161C736.589 323.659 752.656 294.197 752.656 294.197L774.081 307.615C774.081 307.615 757.19 338.076 751.006 342.814C745.138 346.908 739.014 350.624 732.673 353.939C732.673 353.939 748.225 357.646 756.877 354.969C765.53 352.292 786.132 332 786.132 332L809.728 347.709C809.728 347.709 782.329 381.339 762.964 384.431C743.598 387.522 660.166 381.545 660.166 381.545L680.09 340.295Z" fill="#5F61B2"/>
<path d="M588.161 333.803C588.161 333.803 580.126 339.933 576.521 341.066C572.915 342.199 531.507 328.808 529.55 328.087C529.115 327.927 528.152 327.521 526.899 327.079C524.402 325.745 521.757 324.709 519.019 323.992C515.476 323.522 511.873 323.785 508.436 324.766C504.343 325.925 500.325 331.022 497.776 333.418C495.228 335.814 498.394 336.817 501.94 337.358C505.486 337.899 508.429 333.418 508.429 333.418C508.429 333.418 507.966 337.204 509.511 338.826C511.057 340.448 514.234 339.831 514.237 339.831C514.195 340.426 514.078 341.014 513.891 341.581C513.891 341.581 517.496 341.89 518.629 340.448C519.762 339.006 519.042 332.035 522.132 333.564C525.222 335.092 526.354 337.254 524.5 338.595C522.645 339.936 520.586 339.522 519.866 340.45C519.146 341.378 518.113 346.115 524.089 349.513C530.064 352.912 567.659 371.042 578.577 368.055C589.495 365.067 602.217 356.517 602.217 356.517L588.161 333.803Z" fill="#D7CCFF"/>
<path d="M532.069 353.543C534.709 350.115 536.78 346.284 538.202 342.198C539.29 338.754 540.098 335.228 540.62 331.654L546.155 333.374C546.149 336.863 545.585 340.328 544.486 343.639C542.534 347.982 540.196 352.141 537.499 356.065L532.069 353.543Z" fill="#5F61B2"/>
<path d="M537.667 330.723L539.113 327.521L550.563 332.155L549.986 334.542L537.667 330.723Z" fill="#FF249C"/>
<path d="M578.58 322.631C578.58 322.631 571.164 327.678 565.189 328.604C559.214 329.531 546.155 330.374 546.155 330.374L550.564 332.158L549.986 334.545C549.986 334.545 570.236 343.643 574.872 342.819C579.508 341.995 584.451 336.845 584.451 336.845L578.58 322.631Z" fill="#D7CCFF"/>
<path d="M758.278 285.301C758.278 285.301 753.559 285.211 752.4 283.202C751.241 281.193 757.344 282.198 759.815 277.949C762.285 273.7 767.823 250.755 767.823 250.755L817.964 274.215C817.964 274.215 818.684 277.407 813.741 278.032C808.798 278.656 800.035 279.061 795.715 281.431C791.395 283.801 781.602 289.568 781.602 289.568L776.968 288.537L774.444 281.353L768.314 279.271L762.908 284.679L758.278 285.301Z" fill="#2F2F38"/>
<path d="M813.327 293.272C813.327 293.272 813.379 292.089 816.21 292.089C819.041 292.089 831.249 294.865 834.906 295.436C838.563 296.006 840.366 296.003 843.095 297.29C845.824 298.578 860.76 308.517 863.283 311.092C865.806 313.667 866.218 315.776 865.807 317.015C865.396 318.254 863.489 318.431 863.489 318.431L853.756 314.647L841.24 308.774L822.314 307.386L813.353 303.446L811.885 295.335L813.327 293.272Z" fill="#D7CCFF"/>
<path d="M585.035 319.865L589.911 332L584.451 336.842L578.58 322.627L585.035 319.865Z" fill="#FF249C"/>
<path d="M602.22 356.515L607.718 352.186L593.491 329.089L588.16 333.803L602.22 356.515Z" fill="#FF249C"/>
<path d="M620.251 307.619L583.501 334.544L584.45 336.844L620.251 307.619Z" fill="#2F2F38"/>
<path d="M613.704 361.254C614.419 361.447 615.143 361.602 615.874 361.718C615.843 361.688 608.709 355.125 608.934 353.426C609.16 351.728 620.598 340.912 620.598 340.912L607.711 352.189L604.531 354.665C604.531 354.665 609.274 360.019 613.704 361.254Z" fill="#2F2F38"/>
<path d="M601.962 314.903C605.978 312.856 610.21 311.266 614.58 310.164C618.743 309.085 622.975 308.293 627.246 307.794L627.605 306.25C627.605 306.25 626.009 304.524 620.679 304.689C615.349 304.854 603.482 307.951 601.365 309.795C599.249 311.639 599.589 313.265 599.589 313.265L601.962 314.903Z" fill="#FF249C"/>
<path d="M575.476 324.525L583.502 337.754L584.451 336.841L578.579 322.627L575.476 324.525Z" fill="#D7CCFF"/>
<path d="M602.22 356.515L582.371 337.892L588.16 333.803L602.22 356.515Z" fill="#D7CCFF"/>
<path d="M616.397 332.748C618.509 332.748 620.221 331.036 620.221 328.924C620.221 326.813 618.509 325.101 616.397 325.101C614.285 325.101 612.573 326.813 612.573 328.924C612.573 331.036 614.285 332.748 616.397 332.748Z" fill="#FF249C"/>
<path d="M747.969 302.443L769.797 315.136L774.082 307.618L752.657 294.2L747.969 302.443Z" fill="#5F61B2"/>
<path d="M863.489 318.43H850.588L840.416 312.224L826.408 313.255L816.21 312.224L807.97 307.384L806.322 304.705L806.863 302.517L808.099 300.121C808.488 298.79 809.032 297.508 809.721 296.304C810.773 295.126 811.987 294.103 813.326 293.265C813.326 293.265 811.678 299.033 814.305 301.815C815.625 303.203 817.216 304.307 818.978 305.06C820.74 305.812 822.637 306.198 824.553 306.192C828.467 306.192 834.494 305.213 840.261 307.274C846.028 309.336 857.464 316.029 859.266 316.751C861.069 317.473 863.489 318.43 863.489 318.43Z" fill="#5F61B2"/>
<path d="M786.132 332L779.94 337.849L803.447 354.872L809.721 347.708L786.132 332Z" fill="#5F61B2"/>
<path d="M737.634 375.374C709.446 375.374 669.318 371.545 666.931 371.314L666.985 370.757C667.816 370.837 750.28 378.708 763.037 372.228C775.822 365.734 793.475 346.74 793.654 346.551L794.065 346.931C793.892 347.123 776.166 366.189 763.291 372.73C759.443 374.68 749.616 375.374 737.634 375.374Z" fill="#5F61B2"/>
<path d="M799.44 319.428C799.44 319.428 793.035 317.194 793.113 315.339C793.191 313.484 796.744 315.88 799.06 313.795C801.376 311.71 808.099 300.12 808.099 300.12C808.099 300.12 805.087 303.675 809.722 307.233C814.356 310.792 821.618 312.487 825.249 311.946C828.881 311.404 836.141 309.628 839.997 310.865C843.852 312.102 850.58 318.434 850.58 318.434C845.895 319.063 841.304 320.257 836.907 321.989C831.654 324.374 826.561 327.098 821.662 330.144L818.597 326.229L817.826 322.289L814.116 320.513L802.065 320.667L799.44 319.428Z" fill="#2F2F38"/>
<path d="M767.824 250.755C767.824 250.755 766.99 254.213 765.825 258.687C765.825 258.687 787.551 264.891 794.348 267.518C799.243 269.536 803.971 271.938 808.486 274.703C808.486 274.703 806.404 275.938 806.71 277.097C806.783 277.421 806.922 277.727 807.118 277.996C807.315 278.265 807.564 278.49 807.851 278.658C810.03 278.421 812.093 278.237 813.735 278.032C818.677 277.413 817.957 274.215 817.957 274.215L767.824 250.755Z" fill="#5F61B2"/>
<path d="M841.123 317.891C840.004 317.504 831.737 318.855 829.536 321.361C829.224 321.622 828.971 321.946 828.793 322.312C828.614 322.677 828.514 323.076 828.499 323.483C828.484 323.889 828.554 324.294 828.705 324.672C828.857 325.049 829.085 325.391 829.376 325.675C831.829 324.343 834.522 322.976 836.909 321.982C839.053 321.105 841.256 320.382 843.502 319.818H843.52C842.864 319.015 842.048 318.359 841.123 317.891Z" fill="#5F61B2"/>
<path d="M754.045 295.068L759.198 283.177C760.359 283.62 761.642 283.62 762.803 283.177C764.09 282.353 766.667 277.104 768.572 277.104C770.477 277.104 775.421 279.062 776.297 280.814C777.174 282.566 777.165 285.861 777.946 287.251C778.726 288.64 781.601 289.568 781.601 289.568L772.349 306.536L754.045 295.068Z" fill="#D7CCFF"/>
<path d="M788.036 333.268L800.701 317.89C801.201 318.456 801.81 318.917 802.491 319.245C803.172 319.573 803.912 319.761 804.667 319.798C807.705 320.261 812.754 317.943 814.916 318.717C817.077 319.491 819.345 320.674 820.12 322.425C820.896 324.175 820.277 327.472 820.688 328.398C820.967 329.008 821.294 329.594 821.666 330.151L808.271 346.745L788.036 333.268Z" fill="#D7CCFF"/>
<path d="M754.045 295.067L774.443 302.691L772.349 306.53L754.045 295.067Z" fill="#D7CCFF"/>
<path d="M736.974 349.001L736.613 348.573C741.294 344.387 745.432 339.631 748.931 334.417C754.801 325.713 757.511 305.423 757.539 305.22L758.094 305.291C758.066 305.497 755.337 325.918 749.396 334.73C745.867 339.987 741.694 344.781 736.974 349.001Z" fill="#5F61B2"/>
<path d="M789.785 331.146L813.352 340.448L808.271 346.745L788.036 333.269L789.785 331.146Z" fill="#D7CCFF"/>
<path d="M732.675 353.942C725.924 352.181 719.03 351.026 712.074 350.491C707.289 350.153 702.522 351.363 698.477 353.942C698.477 353.942 706.357 347.555 713.309 348.484C720.261 349.412 744.604 347.134 744.604 347.134L732.675 353.942Z" fill="#D7CCFF"/>
<path d="M673.189 377.308C670.531 377.265 667.88 377.017 665.26 376.567L665.359 376.017C665.451 376.033 674.58 377.629 677.963 376.038C679.904 375.17 681.628 373.883 683.012 372.27L683.46 372.604C682.028 374.299 680.231 375.646 678.203 376.544C676.599 377.133 674.894 377.392 673.189 377.308Z" fill="#5F61B2"/>
<path d="M680.09 340.295L664.63 381.856L660.159 381.547L680.09 340.295Z" fill="#D7CCFF"/>
<path d="M799.214 277.924C798.081 277.513 788.709 277.924 787.472 279.881C786.235 281.838 788.707 285.412 788.707 285.412C791.259 283.932 793.941 282.395 795.711 281.421C797.254 280.65 798.895 280.091 800.588 279.759C800.519 279.367 800.359 278.996 800.12 278.678C799.881 278.359 799.571 278.1 799.214 277.924Z" fill="#5F61B2"/>
<path d="M825.993 311.825L828.004 318.432L832.433 317.249L830.768 310.994L825.993 311.825Z" fill="#5F61B2"/>
<path d="M832.607 310.724L834.03 315.959L837.25 315.339L836.219 310.435C836.219 310.435 835.64 310.435 834.536 310.52C833.433 310.605 832.607 310.724 832.607 310.724Z" fill="#5F61B2"/>
<path d="M838.035 310.485L838.788 314.601H841.627L841.065 311.283C840.602 311.002 840.094 310.804 839.564 310.695C839.059 310.596 838.548 310.526 838.035 310.485Z" fill="#5F61B2"/>
<path d="M822.185 311.071L818.69 309.908C818.096 309.711 817.455 310.032 817.257 310.626C817.059 311.219 817.381 311.861 817.974 312.058L821.469 313.221C822.063 313.419 822.704 313.098 822.902 312.504C823.099 311.91 822.778 311.269 822.185 311.071Z" fill="#5F61B2"/>
<path d="M776.553 260.994L773.058 259.831C772.465 259.634 771.823 259.955 771.626 260.549C771.428 261.142 771.749 261.784 772.343 261.981L775.838 263.144C776.432 263.342 777.073 263.021 777.271 262.427C777.468 261.833 777.147 261.192 776.553 260.994Z" fill="#5F61B2"/>
<path d="M800.597 270.332C799.977 271.614 799.529 272.973 799.267 274.373C799.189 274.988 799.189 275.611 799.267 276.227H795.713C795.545 275.1 795.545 273.954 795.713 272.827C796.221 271.459 796.876 270.151 797.665 268.925L800.597 270.332Z" fill="#5F61B2"/>
<path d="M795.803 268.108C794.769 269.542 793.998 271.148 793.523 272.852C793.157 274.065 793.23 275.37 793.73 276.535L789.248 276.818C789.093 275.212 789.145 273.594 789.403 272.001C790.055 270.113 790.998 268.338 792.196 266.739L795.803 268.108Z" fill="#5F61B2"/>
<path d="M789.983 265.993C788.595 267.621 787.429 269.426 786.513 271.359C786.257 273.403 786.257 275.471 786.513 277.515L781.594 277.411C781.594 277.411 780.9 272.261 781.768 270.278C782.919 268.272 784.272 266.388 785.805 264.655L789.983 265.993Z" fill="#5F61B2"/>
<path d="M820.352 292.541L819.795 292.607L821.392 305.883L821.948 305.816L820.352 292.541Z" fill="#2F2F38"/>
<path d="M826.566 293.705L826.014 293.807L828.239 305.901L828.79 305.8L826.566 293.705Z" fill="#2F2F38"/>
<path d="M833.521 295.119L832.963 295.169L833.931 305.879L834.489 305.828L833.521 295.119Z" fill="#2F2F38"/>
<path d="M840.112 296.189H839.552V307.135H840.112V296.189Z" fill="#2F2F38"/>
<path d="M846.115 299.184L844.929 309.398L845.484 309.463L846.67 299.248L846.115 299.184Z" fill="#2F2F38"/>
<path d="M851.412 302.603L849.921 311.916L850.474 312.005L851.965 302.692L851.412 302.603Z" fill="#2F2F38"/>
<path d="M857.441 306.68L854.58 314.353L855.105 314.548L857.966 306.876L857.441 306.68Z" fill="#2F2F38"/>
<path d="M862.362 310.412L860.431 317.249L860.968 317.401L862.9 310.564L862.362 310.412Z" fill="#2F2F38"/>
<path d="M612.828 293.529L609.716 294.586L614.572 295.616L612.828 293.529Z" fill="#D7CCFF"/>
<path d="M610.331 283.767C609.985 283.858 609.663 284.024 609.387 284.253C609.111 284.482 608.888 284.767 608.734 285.091C608.58 285.414 608.498 285.767 608.493 286.125C608.489 286.484 608.563 286.838 608.709 287.165C609.636 289.87 613.963 288.866 613.963 288.866C613.963 288.866 610.64 288.788 610.331 287.707C610.023 286.626 612.854 285.776 612.854 285.776C612.854 285.776 610.911 285.351 610.331 285.698C610.023 285.858 609.768 286.105 609.598 286.407C609.481 285.941 609.487 285.453 609.616 284.99C609.745 284.527 609.991 284.106 610.331 283.767Z" fill="#D7CCFF"/>
<path d="M511.266 324.132C510.249 325.287 509.471 326.631 508.975 328.088C508.614 329.842 508.432 331.628 508.434 333.419C508.627 331.564 509.104 329.75 509.85 328.041C510.502 326.81 510.978 325.494 511.266 324.132Z" fill="#D7CCFF"/>
<path d="M514.243 339.833C514.736 338.843 514.85 337.707 514.564 336.639C514.111 335.33 513.885 333.954 513.894 332.57C514.1 331.489 516.469 329.943 516.469 329.943C515.527 329.974 514.615 330.278 513.844 330.82C513.304 331.405 512.928 332.124 512.756 332.902C512.584 333.68 512.621 334.49 512.863 335.249C513.208 336.769 513.128 338.355 512.633 339.833H514.243Z" fill="#D7CCFF"/>
<path d="M521.613 341.594C524.055 341.594 526.035 339.614 526.035 337.171C526.035 334.729 524.055 332.749 521.613 332.749C519.17 332.749 517.19 334.729 517.19 337.171C517.19 339.614 519.17 341.594 521.613 341.594Z" fill="#2F2F38"/>
<path d="M409.86 419.44C412.303 419.44 414.283 417.46 414.283 415.017C414.283 412.575 412.303 410.595 409.86 410.595C407.418 410.595 405.438 412.575 405.438 415.017C405.438 417.46 407.418 419.44 409.86 419.44Z" fill="#2F2F38"/>
<path d="M451.569 417.18C454.011 417.18 455.991 415.2 455.991 412.757C455.991 410.315 454.011 408.335 451.569 408.335C449.126 408.335 447.146 410.315 447.146 412.757C447.146 415.2 449.126 417.18 451.569 417.18Z" fill="#2F2F38"/>
<path d="M488.525 361.193C484.939 361.193 482.129 361.019 481.364 360.974L481.584 357.622C489.487 358.143 503.226 357.843 506.439 354.846C511.146 350.447 518.266 338.191 518.337 338.069L521.245 339.752C520.943 340.273 513.8 352.563 508.732 357.301C505.228 360.572 495.439 361.193 488.525 361.193Z" fill="#2F2F38"/>
<path d="M488.425 347.501L390.538 351.224L390.687 355.14L488.574 351.417L488.425 347.501Z" fill="#2F2F38"/>
<path d="M413.297 400.118C404.659 400.118 398.029 399.442 396.468 397.675C391.735 392.313 393.767 354.388 393.855 352.777L393.883 352.268L485.822 348.607L485.594 349.359C485.074 351.054 472.999 390.921 467.006 394.391C463.229 396.576 433.041 400.118 413.297 400.118ZM394.952 353.347C394.225 366.989 393.81 392.967 397.313 396.935C399.15 399.017 412.499 399.551 431.309 398.291C447.975 397.176 463.739 394.995 466.449 393.423C471.009 390.782 480.659 361.739 484.3 349.789L394.952 353.347Z" fill="#2F2F38"/>
<path d="M410.419 352.192H409.3V399.531H410.419V352.192Z" fill="#2F2F38"/>
<path d="M431.012 351.372H429.893V398.908H431.012V351.372Z" fill="#2F2F38"/>
<path d="M451.941 350.476L450.077 397.027L451.197 397.072L453.061 350.521L451.941 350.476Z" fill="#2F2F38"/>
<path d="M399.78 411.152L399.76 410.033C416.262 409.747 459.952 408.253 463.882 404.815C468.486 400.786 466.219 394.158 466.195 394.093L466.158 393.988V393.879C467.102 374.342 468.355 350.896 468.958 350.143L469.826 350.845L469.39 350.498L469.893 350.736C469.435 352.103 468.079 377.217 467.277 393.832C467.588 394.79 469.498 401.385 464.609 405.661C459.577 410.072 402.218 411.112 399.78 411.152Z" fill="#2F2F38"/>
<path d="M475.151 377.435L393.858 384.926L393.961 386.042L475.254 378.551L475.151 377.435Z" fill="#2F2F38"/>
<path d="M480.567 361.65L393.876 366.739L393.942 367.856L480.632 362.767L480.567 361.65Z" fill="#2F2F38"/>
<path d="M672.842 309.411C670.745 309.378 668.685 308.849 666.832 307.867C664.779 306.809 662.834 305.553 661.025 304.118C659.603 302.783 657.903 301.781 656.047 301.182C654.19 300.584 652.225 300.405 650.291 300.658C645.799 300.937 641.393 302.014 637.279 303.837C636.22 304.269 635.223 304.678 634.215 304.996C632.074 305.693 629.877 306.206 627.648 306.528L627.584 305.972C629.777 305.653 631.939 305.148 634.046 304.463C635.03 304.151 636.019 303.746 637.065 303.318C641.235 301.472 645.7 300.382 650.251 300.1C652.25 299.847 654.28 300.037 656.199 300.653C658.117 301.27 659.877 302.3 661.355 303.67C663.139 305.086 665.056 306.324 667.08 307.367C674.244 310.974 678.746 306.888 678.789 306.847L679.173 307.256C677.377 308.688 675.138 309.45 672.842 309.411Z" fill="white"/>
<path d="M614.837 296.179L614.78 295.623C614.804 295.623 617.356 295.359 623.472 294.951C626.454 294.752 627.926 293.495 630.153 291.592C633.66 288.484 637.628 285.939 641.914 284.047C650.791 279.963 654.58 282.258 658.235 284.477C659.707 285.498 661.353 286.241 663.093 286.667C669.113 287.82 677.32 284.085 677.412 284.047L677.646 284.555C677.299 284.713 669.183 288.405 662.987 287.217C661.181 286.783 659.47 286.018 657.942 284.961C654.408 282.819 650.758 280.6 642.145 284.56C637.909 286.433 633.988 288.95 630.521 292.021C628.21 293.997 626.682 295.302 623.514 295.513C617.407 295.914 614.861 296.176 614.837 296.179Z" fill="white"/>
<path d="M588.44 290.521L587.88 290.498C588.142 288.097 588.974 285.794 590.307 283.779C591.64 281.765 593.434 280.098 595.541 278.917C600.21 276.251 604.448 276.053 609.813 275.794C613.413 275.676 617.003 275.365 620.57 274.861C624.251 274.44 627.687 272.802 630.332 270.208C632.954 267.933 635.459 265.779 642.659 265.897C647.944 266.066 653.211 266.605 658.421 267.508C663.8 268.338 668.059 268.993 669.983 267.793C672.147 266.44 674.162 264.862 675.995 263.086L676.395 263.476C674.532 265.286 672.482 266.892 670.28 268.268C668.175 269.58 664.048 268.941 658.335 268.062C653.15 267.162 647.91 266.625 642.651 266.455C635.624 266.334 633.238 268.428 630.7 270.631C627.977 273.3 624.441 274.984 620.653 275.415C617.069 275.921 613.461 276.235 609.844 276.355C604.348 276.612 600.375 276.797 595.824 279.398C593.795 280.529 592.067 282.128 590.782 284.063C589.497 285.998 588.694 288.212 588.44 290.521Z" fill="white"/>
<path d="M737.726 463.157L741.038 514.201L764.541 510.267L767.647 514.201L769.097 507.576L792.807 505.919L780.383 463.157L768.787 468.851L765.266 466.056L764.231 469.162L737.726 463.157Z" fill="#2F2F38"/>
<path d="M723.867 477.426C723.867 477.252 723.917 473.244 731.466 471.135C738.831 469.075 747.081 473.709 747.428 473.911L746.872 474.884C746.791 474.837 738.671 470.286 731.778 472.216C725.13 474.076 724.998 477.393 724.998 477.421L723.867 477.426Z" fill="#FF249C"/>
<path d="M666.544 474.859C673.216 473.937 679.971 473.763 686.682 474.338C695.068 475.478 711.013 478.377 716.396 478.067C721.78 477.756 734.879 475.4 734.879 475.4C734.879 475.4 736.121 477.052 735.654 478.089C735.188 479.127 729.83 481.613 729.83 481.613C729.83 481.613 731.771 483.175 731.849 484.33C731.756 485.333 731.409 486.295 730.84 487.125C730.84 487.125 732.937 488.834 732.859 489.998C732.726 490.811 732.315 491.553 731.695 492.096C731.955 492.666 732.096 493.283 732.11 493.91C732.123 494.536 732.008 495.159 731.771 495.739C730.918 497.446 729.986 497.058 726.414 497.446C723.187 498.101 719.848 497.941 716.698 496.981C706.942 494.856 697.011 493.636 687.03 493.338C678.876 493.416 668.237 494.58 668.237 494.58L666.544 474.859Z" fill="#D7CCFF"/>
<path d="M703.061 476.806C702.63 480.671 702.415 484.558 702.419 488.447C702.651 491.787 703.061 494.62 703.061 494.62L707.213 495.191C706.64 491.599 706.336 487.969 706.302 484.332C706.534 480.994 707.213 477.373 707.213 477.373L703.061 476.806Z" fill="#2F2F38"/>
<path d="M705.041 489.74C707.829 489.74 710.088 487.48 710.088 484.692C710.088 481.905 707.829 479.646 705.041 479.646C702.254 479.646 699.994 481.905 699.994 484.692C699.994 487.48 702.254 489.74 705.041 489.74Z" fill="#5F61B2"/>
<path d="M705.041 489.003C707.42 489.003 709.349 487.075 709.349 484.696C709.349 482.316 707.42 480.388 705.041 480.388C702.662 480.388 700.733 482.316 700.733 484.696C700.733 487.075 702.662 489.003 705.041 489.003Z" fill="#D7CCFF"/>
<path d="M701.642 513.065C701.642 513.065 707.492 512.34 716.19 516.275C724.887 520.21 738.553 525.8 753.877 524.349C769.2 522.899 795.085 509.855 795.085 509.855L802.953 531.183C802.953 531.183 781.419 540.708 774.379 542.981C770.643 544.229 766.84 545.266 762.989 546.088L796.742 548.987L792.807 571.557C792.807 571.557 746.217 569.28 735.758 568.037C725.3 566.795 697.346 554.992 692.997 553.542C688.647 552.091 676.846 547.743 676.846 547.743L701.642 513.065Z" fill="#5F61B2"/>
<path d="M810.73 551.259C810.73 551.259 810.409 544.022 813.308 544.643C816.207 545.264 814.965 550.11 819.002 551.259C823.039 552.407 844.369 549.904 846.026 551.259C847.682 552.614 851.924 602.521 849.96 604.799C847.996 607.077 847.476 609.043 845.404 607.49C843.333 605.938 832.772 588.958 828.424 585.023C824.077 581.088 815.586 573.116 815.586 573.116L813.618 570.425L820.452 565.046L819.727 559.972L813.514 558.523L810.73 551.259Z" fill="#55498B"/>
<path d="M811.222 503.303C811.222 503.303 809.759 501.047 811.222 499.81C812.684 498.573 833.186 487.799 833.186 487.799C833.186 487.799 865.804 486.35 869.32 487.799C872.837 489.248 876.673 494.116 876.984 495.875C877.294 497.635 873.049 505.919 871.806 507.472C870.564 509.025 852.028 513.553 848.82 515.172C845.612 516.79 827.078 522.795 824.387 523.52C821.696 524.245 819.079 521.504 819.079 521.504L822.237 519.896L816.621 517.618L814.032 507.989L811.222 503.303Z" fill="#55498B"/>
<path d="M866.895 509.517C868.63 509.1 870.288 508.41 871.807 507.473C873.049 505.92 877.294 497.638 876.984 495.877C876.673 494.116 872.843 489.251 869.321 487.802C865.799 486.353 833.187 487.802 833.187 487.802C833.187 487.802 828.494 490.267 823.438 492.974C834.74 492.715 862.882 492.087 863.627 492.254C864.558 492.46 865.077 494.221 863.627 495.566C862.984 496.181 862.58 497.003 862.484 497.887C862.389 498.771 862.609 499.66 863.106 500.398C864.038 501.675 868.8 503.949 869.525 505.4C870.251 506.85 866.9 509.512 866.895 509.517Z" fill="#5F61B2"/>
<path d="M849.96 604.889C851.927 602.611 847.682 552.705 846.025 551.348C845.341 550.788 841.297 550.889 836.504 551.116C836.504 551.116 841.78 572.895 842.194 579.935C842.609 586.976 844.266 596.192 844.266 596.605C844.266 597.018 841.783 595.777 840.385 596.605C838.986 597.432 839.738 600.075 839.738 600.075C841.424 602.726 843.318 605.239 845.404 607.589C847.476 609.133 847.993 607.165 849.96 604.889Z" fill="#5F61B2"/>
<path d="M836.499 591.129C837.176 590.595 838.013 590.303 838.876 590.301L828.419 574.253C828.419 574.253 828.315 573.838 825.416 574.253C822.517 574.667 821.894 579.008 821.894 579.01C824.187 581.142 826.646 583.417 828.419 585.02C831.194 587.988 833.716 591.184 835.957 594.574C835.957 594.574 835.671 591.958 836.499 591.129Z" fill="white"/>
<path d="M828.14 505.397C828.14 505.397 826.819 509.561 828.14 511.975C829.193 513.606 830.669 514.921 832.411 515.779L853.298 507.471C853.857 506.51 854.051 505.379 853.843 504.287C853.454 502.578 851.357 502.346 851.357 502.346L828.14 505.397Z" fill="white"/>
<path d="M581.203 486.504C581.121 490.411 582.001 494.277 583.766 497.764C585.763 501.259 588.218 504.471 591.065 507.316L600.373 507.781L607.139 504.908L605.578 495.435L595.404 487.203L581.203 486.504Z" fill="#D7CCFF"/>
<path d="M605.818 514.618C605.818 514.618 603.488 515.006 598.674 512.52C593.859 510.034 591.064 508.561 591.064 507.315C591.064 506.069 595.102 502.966 596.422 503.122C597.742 503.278 603.645 506.227 604.344 503.587C605.043 500.946 606.051 496.909 604.033 495.278C602.015 493.647 597.898 490.62 597.898 490.62C597.898 490.62 595.643 491.938 590.754 490.62C587.42 489.634 584.216 488.252 581.212 486.503C581.212 486.503 579.839 475.89 590.71 475.062C592.994 474.732 595.324 475.15 597.351 476.254C599.377 477.359 600.991 479.09 601.951 481.188L605.827 491.267L619.932 500.238L621.591 500.792L620.659 509.722L606.526 515.468L605.818 514.618Z" fill="#2F2F38"/>
<path d="M619.174 496.129L614.127 493.644C614.127 493.644 618.01 480.054 607.217 479.978C596.424 479.902 601.625 488.597 601.625 488.597L619.924 500.235L620.651 497.217L619.174 496.129Z" fill="#D7CCFF"/>
<path d="M438.503 514.203L486.544 548.784L509.218 513.167L519.676 468.231L465.008 459.121L438.503 514.203Z" fill="#FF249C"/>
<path d="M586.976 517.928L599.606 543.399C599.606 543.399 614.723 541.95 620.729 539.464C626.736 536.978 641.229 536.358 646.407 537.807C651.584 539.256 676.846 547.746 676.846 547.746L701.642 513.063C701.642 513.063 689.529 511.198 682.695 507.004C677.434 503.412 672.59 499.245 668.251 494.58L666.544 474.857C666.544 474.857 642.005 478.119 632.539 484.02C627.291 487.083 622.74 491.209 619.18 496.133C620.176 499.47 620.23 503.018 619.336 506.383C617.783 511.508 605.824 514.616 605.824 514.616C605.824 514.616 597.748 516.944 594.797 517.411C592.202 517.73 589.59 517.903 586.976 517.928Z" fill="#5F61B2"/>
<path d="M815.586 573.115C815.586 573.115 814.86 570.215 816.627 569.492C818.393 568.769 822.005 567.627 822.735 565.453C823.466 563.279 821.347 559.138 819.092 558.621C816.837 558.104 815.594 558.206 814.352 556.445C813.544 554.917 813.15 553.204 813.212 551.476L796.572 550.014L793.003 570.486L815.586 573.115Z" fill="#D7CCFF"/>
<path d="M795.703 511.532C795.703 511.532 816.413 500.018 818.278 500.407C820.143 500.796 822.005 503.591 821.694 504.601C821.384 505.61 817.268 508.121 816.88 509.856C816.695 511.138 816.78 512.444 817.128 513.691C817.475 514.939 818.078 516.101 818.899 517.103C819.946 518.11 821.061 519.044 822.237 519.898L802.493 529.95L795.703 511.532Z" fill="#D7CCFF"/>
<path d="M796.563 550.014L798.921 571.177L792.994 570.488L796.563 550.014Z" fill="#D7CCFF"/>
<path d="M503.939 554.166L492.131 546.547L500.004 543.398L503.939 554.166Z" fill="#FF249C"/>
<path d="M531.894 476.93L520.165 473.628L521.331 486.507L531.894 476.93Z" fill="#FF249C"/>
<path d="M526.822 511.466L525.717 511.277C526.391 507.169 526.391 502.979 525.717 498.87C524.563 493.869 521.727 492.569 521.692 492.555L522.133 491.526C522.271 491.585 525.516 493.02 526.808 498.619C527.527 502.871 527.531 507.213 526.822 511.466Z" fill="#2F2F38"/>
<path d="M498.034 464.625C498.034 464.625 487.165 471.454 481.262 480.066C475.36 488.679 471.479 493.495 462.471 495.669C453.463 497.843 451.91 498.153 448.805 500.18C446.434 501.901 444.278 503.901 442.385 506.138L457.176 475.403C457.176 475.403 458.899 477.349 464.18 476.572C469.461 475.795 474.741 468.808 477.846 466.633C480.576 464.98 483.496 463.665 486.544 462.717L498.034 464.625Z" fill="#D7CCFF"/>
<path d="M514.152 491.963L509.218 513.161L498.761 529.585C497.592 526.989 495.52 524.905 492.93 523.722C490.34 522.539 487.409 522.336 484.681 523.152C474.43 525.793 470.211 537.021 470.211 537.021L455.861 526.692C455.861 526.692 457.915 508.978 470.211 506.125C482.507 503.273 492.592 502.498 498.813 500.632C505.035 498.767 514.152 491.963 514.152 491.963Z" fill="#D7CCFF"/>
<path d="M521.331 486.508L519.676 468.233C519.676 468.233 509.737 504.265 506.423 511.305C503.109 518.346 486.544 548.781 486.544 548.781L500.004 543.402L503.938 554.169L531.894 476.931L521.331 486.508Z" fill="#2F2F38"/>
<path d="M524.236 540.499C514.744 540.499 491.792 524.955 490.805 524.282L491.435 523.355C491.674 523.519 515.087 539.38 524.212 539.38C524.385 539.38 524.539 539.38 524.697 539.364C526.746 539.277 528.778 538.947 530.749 538.382C529.552 538.495 528.347 538.505 527.149 538.411C521.694 538.045 512.193 531.041 511.793 530.743L512.459 529.844C512.556 529.914 522.097 536.958 527.222 537.292C532.09 537.617 533.317 536.487 533.329 536.477L534.257 535.573L534.293 536.853C534.293 537.35 533.886 539.855 524.774 540.481C524.6 540.493 524.42 540.499 524.236 540.499Z" fill="#2F2F38"/>
<path d="M668.251 494.58L669.339 474.857H666.544L668.251 494.58Z" fill="#D7CCFF"/>
<path d="M647.44 494.934C650.299 494.934 652.617 493.194 652.617 491.046C652.617 488.899 650.299 487.158 647.44 487.158C644.581 487.158 642.263 488.899 642.263 491.046C642.263 493.194 644.581 494.934 647.44 494.934Z" fill="#D7CCFF"/>
<path d="M586.975 517.929C582.657 518.408 578.299 518.408 573.98 517.929C567.613 517.102 539.814 509.336 537.173 509.025C533.121 508.824 529.059 509.067 525.06 509.751C522.929 510.192 521.001 511.319 519.572 512.96C519.572 512.96 509.633 514.001 512.325 518.299C513.071 519.472 514.239 520.314 515.588 520.65C516.937 520.987 518.363 520.791 519.572 520.105C519.346 520.882 519.346 521.708 519.572 522.485C519.776 523.001 520.141 523.437 520.613 523.727C520.227 524.351 520.013 525.066 519.992 525.799C519.992 526.937 523.512 529.526 523.512 529.526C523.438 530.712 523.766 531.889 524.444 532.865C525.678 533.854 527.153 534.497 528.717 534.729C528.717 534.729 528.023 535.582 529.34 536.514C531.297 537.37 533.488 537.535 535.551 536.981C537.104 536.514 537.806 535.117 539.512 535.272C541.217 535.426 560.467 540.196 567.407 541.433C574.346 542.67 599.606 543.4 599.606 543.4L586.975 517.929Z" fill="#D7CCFF"/>
<path d="M668.251 494.583L658.157 497.146L673.159 499.453L668.251 494.583Z" fill="#2F2F38"/>
<path d="M788.392 513.025L795.958 534.235L802.953 531.183L795.085 509.855L788.392 513.025Z" fill="#FF249C"/>
<path d="M785.165 571.177L790.325 548.44L796.742 548.992L792.807 571.562L785.165 571.177Z" fill="#FF249C"/>
<path d="M658.157 504.471C658.157 504.471 660.487 510.295 658.83 513.026C657.173 515.757 654.585 513.026 654.585 513.026C654.585 513.026 657.173 514.414 657.794 511.874C658.181 509.426 658.302 506.944 658.157 504.471Z" fill="#D7CCFF"/>
<path d="M614.127 493.65C613.959 494.218 613.867 494.806 613.855 495.397L619.174 496.135L614.127 493.65Z" fill="#D7CCFF"/>
<path d="M605.781 483.363C605.468 483.509 605.188 483.716 604.957 483.972C604.726 484.228 604.549 484.529 604.436 484.855C604.324 485.181 604.279 485.526 604.303 485.87C604.327 486.214 604.42 486.55 604.577 486.857C605.586 489.38 612.108 489.46 612.108 489.46C612.108 489.46 607.916 489.344 607.139 487.829C606.362 486.314 608.848 484.918 608.848 484.918C608.028 484.901 607.229 485.176 606.593 485.693L605.777 486.509C605.422 486.061 605.229 485.507 605.23 484.935C605.23 484.364 605.424 483.81 605.781 483.363Z" fill="#D7CCFF"/>
<path d="M745.736 537.603C726.998 537.603 694.699 525.224 694.345 525.087L694.546 524.567C694.933 524.716 733.4 539.461 750.519 536.711C767.681 533.953 793.834 522.865 794.096 522.752L794.315 523.272C794.053 523.385 767.838 534.499 750.609 537.27C748.996 537.508 747.367 537.62 745.736 537.603Z" fill="#FF249C"/>
<path d="M789.682 561.843C789.549 561.843 775.985 561 760.467 559.002C751.435 558.006 742.964 554.127 736.31 547.94L736.721 547.56C743.286 553.651 751.638 557.468 760.54 558.446C776.035 560.442 789.582 561.278 789.719 561.285L789.682 561.843Z" fill="#FF249C"/>
<path d="M676.846 547.747L703.507 513.023L701.642 513.063L676.846 547.747Z" fill="#2F2F38"/>
<path d="M762.988 546.093C758.102 547.609 752.97 548.171 747.871 547.748C738.968 547.127 714.118 544.849 714.118 544.849C714.118 544.849 746.525 549.25 751.185 549.25C755.845 549.25 780.383 547.748 780.383 547.748L762.988 546.093Z" fill="#2F2F38"/>
<path d="M599.606 543.401L583.92 518.186L586.975 517.93L599.606 543.401Z" fill="#D7CCFF"/>
<path d="M755.742 475.688C755.742 475.688 776.041 485.627 775.206 492.876C774.372 500.124 763.816 497.836 763.816 497.836C763.816 497.836 771.277 496.188 771.065 492.668C770.853 489.147 755.742 475.688 755.742 475.688Z" fill="#FF249C"/>
<path d="M795.703 511.529L806.208 528.058L802.499 529.948L795.703 511.529Z" fill="#D7CCFF"/>
<path d="M842.571 584.323C841.689 584.67 840.864 585.15 840.127 585.746C839.606 586.367 838.883 587.298 838.883 587.298L836.917 584.323C837.485 583.484 838.144 582.711 838.883 582.019C839.965 581.552 841.106 581.232 842.273 581.066L842.571 584.323Z" fill="white"/>
<path d="M842.087 578.695C840.436 578.852 838.844 579.386 837.432 580.256C836.722 580.976 836.096 581.776 835.569 582.639L833.393 578.19C834.391 577.282 835.603 576.64 836.915 576.325C839.089 575.804 841.582 575.065 841.582 575.065L842.087 578.695Z" fill="white"/>
<path d="M841.145 572.537C839.558 572.789 838.003 573.208 836.504 573.787C834.98 574.615 833.531 575.576 832.177 576.66L830.39 571.561C831.543 570.807 832.799 570.223 834.118 569.826C836.167 569.232 838.247 568.754 840.349 568.393L841.145 572.537Z" fill="white"/>
<path d="M839.452 557.434C839.236 556.428 838.246 555.786 837.24 556.001C836.234 556.216 835.592 557.206 835.807 558.213L836.737 562.566C836.952 563.573 837.943 564.214 838.949 563.999C839.955 563.784 840.597 562.794 840.382 561.788L839.452 557.434Z" fill="white"/>
<path d="M834.04 492.737C834.04 492.737 830.003 495.982 829.615 498.933C829.346 500.318 829.346 501.741 829.615 503.126L835.284 502.349C834.864 501.222 834.864 499.982 835.284 498.855C836.289 496.556 837.682 494.448 839.401 492.621L834.04 492.737Z" fill="white"/>
<path d="M842.397 492.557C841.27 493.842 840.431 495.354 839.937 496.99C839.738 498.015 839.738 499.07 839.937 500.095L844.83 499.552C844.583 498.296 844.583 497.004 844.83 495.748C845.552 494.535 846.435 493.426 847.455 492.451L842.397 492.557Z" fill="white"/>
<path d="M850.218 492.456C849.3 493.542 848.708 494.865 848.51 496.273V498.334L853.48 497.869C853.239 496.855 853.065 495.825 852.96 494.788C852.909 493.7 854.826 492.315 854.826 492.315L850.218 492.456Z" fill="white"/>
<path d="M519.572 512.955C519.572 512.955 522.367 512.334 524.853 511.816C527.34 511.297 530.548 509.746 533.136 509.642C535.339 509.699 537.527 510.011 539.658 510.573C537.41 510.123 535.114 509.966 532.826 510.108C530.65 510.521 526.871 512.076 524.904 512.282C522.936 512.489 519.572 512.955 519.572 512.955Z" fill="#D7CCFF"/>
<path d="M519.573 520.103C519.573 520.103 524.904 519.3 527.002 520.103C529.099 520.906 531.894 522.692 534.767 522.532C536.019 522.587 537.267 522.35 538.411 521.838C538.004 522.311 537.505 522.695 536.944 522.966C536.383 523.238 535.772 523.391 535.149 523.417C533.079 523.469 528.109 520.988 526.141 521.037C524.174 521.085 519.387 521.293 519.387 521.293L519.573 520.103Z" fill="#D7CCFF"/>
<path d="M520.608 523.726C520.608 523.726 528.935 525.604 530.573 524.826C531.036 524.62 531.436 524.297 531.736 523.889C532.035 523.48 532.223 523.001 532.28 522.498C532.464 522.973 532.496 523.493 532.372 523.987C532.247 524.48 531.973 524.924 531.586 525.255C530.223 526.187 520.608 523.726 520.608 523.726Z" fill="#D7CCFF"/>
<path d="M523.512 529.526C523.512 529.526 528.521 531.197 530.773 530.768C533.025 530.339 534.07 529.137 533.763 527.43C533.627 526.907 533.354 526.429 532.972 526.047C532.589 525.665 532.112 525.392 531.589 525.256C532.045 525.193 532.508 525.281 532.91 525.505C533.312 525.729 533.63 526.078 533.816 526.498C534.694 528.06 534.965 530.249 533.218 530.836C531.233 531.361 529.146 531.361 527.161 530.836C525.888 530.576 524.659 530.135 523.512 529.526Z" fill="#D7CCFF"/>
<path d="M528.717 534.729C528.717 534.729 533.377 534.383 533.96 532.75C534.162 532.373 534.226 531.938 534.14 531.52C534.055 531.101 533.826 530.726 533.494 530.458C533.494 530.458 534.62 532.634 532.885 533.331C531.15 534.029 528.717 534.729 528.717 534.729Z" fill="#D7CCFF"/>
<path d="M537.566 535.827C537.566 535.827 538.338 535.892 538.416 534.534C538.494 533.176 533.732 533.111 533.732 533.111C533.732 533.111 537.722 533.899 537.833 534.47C537.866 534.938 537.774 535.406 537.566 535.827Z" fill="#D7CCFF"/>
<path d="M525.974 511.473C525.957 511.385 524.288 502.514 520.719 498.745C517.104 494.929 505.264 489.191 505.145 489.132L505.632 488.124C506.125 488.363 517.777 494.012 521.533 497.975C525.329 501.985 527.007 510.894 527.076 511.27L525.974 511.473Z" fill="#2F2F38"/>
<path d="M731.695 492.098C730.275 491.284 728.725 490.719 727.113 490.429C726.112 490.223 725.101 490.067 724.084 489.963C725.772 489.749 727.484 489.855 729.133 490.273C730.227 490.527 731.285 490.919 732.28 491.441L731.695 492.098Z" fill="#D7CCFF"/>
<path d="M730.839 487.127C729.633 486.577 728.37 486.162 727.073 485.888C725.093 485.497 723.813 485.379 723.813 485.379C725.252 485.068 726.742 485.068 728.181 485.379C729.175 485.766 730.141 486.222 731.072 486.743L730.839 487.127Z" fill="#D7CCFF"/>
<path d="M729.83 481.616C728.714 481.063 727.501 480.733 726.259 480.644C725.355 480.562 724.445 480.562 723.541 480.644L732.795 480.124L729.83 481.616Z" fill="#D7CCFF"/>
<path d="M741.612 505.881C738.359 506.008 735.113 505.509 732.049 504.412C727.211 502.219 725.891 495.081 725.837 494.779L726.939 494.583C726.951 494.651 728.213 501.443 732.51 503.391C736.943 505.402 745.685 504.595 745.774 504.587L745.881 505.701C745.718 505.716 743.947 505.881 741.612 505.881Z" fill="#FF249C"/>
<path d="M722.92 495.877C724.051 495.533 725.213 495.303 726.39 495.191C727.496 495.189 728.591 495.423 729.6 495.877C728.914 494.987 727.914 494.395 726.805 494.22C725.36 494.319 723.991 494.903 722.92 495.877Z" fill="#D7CCFF"/>
</svg>
