<svg width="1728" height="772" viewBox="0 0 1728 772" fill="none" xmlns="http://www.w3.org/2000/svg">
<path d="M286.287 518.213C298.003 506.497 316.997 506.497 328.713 518.213L428.787 618.287C440.503 630.003 440.503 648.997 428.787 660.713L328.713 760.787C316.997 772.503 298.003 772.503 286.287 760.787L186.213 660.713C174.497 648.997 174.497 630.003 186.213 618.287L286.287 518.213Z" fill="#595AA0"/>
<path d="M1294.76 620.838C1310.7 625.365 1319.95 641.956 1315.42 657.894L1289.32 749.758C1284.8 765.696 1268.21 774.946 1252.27 770.419L1160.4 744.324C1144.47 739.796 1135.21 723.206 1139.74 707.268L1165.84 615.404C1170.36 599.466 1186.96 590.216 1202.89 594.743L1294.76 620.838Z" fill="#595AA0"/>
<path d="M759.257 263.952C775.707 265.925 787.444 280.861 785.47 297.311L759.085 517.257C757.112 533.708 742.176 545.444 725.725 543.47L505.78 517.085C489.329 515.112 477.593 500.176 479.567 483.726L505.952 263.78C507.925 247.329 522.861 235.593 539.311 237.567L759.257 263.952Z" fill="#595AA0"/>
<path d="M1793.49 379.437C1809.94 381.41 1821.68 396.346 1819.71 412.796L1783.38 715.587C1781.41 732.037 1766.48 743.773 1750.02 741.8L1447.23 705.477C1430.78 703.503 1419.05 688.568 1421.02 672.117L1457.34 369.327C1459.32 352.876 1474.25 341.14 1490.7 343.113L1793.49 379.437Z" fill="#595AA0"/>
<path d="M558.936 74.2983C564.42 74.9561 568.332 79.9346 567.674 85.4182L562.454 128.937C561.796 134.42 556.817 138.332 551.334 137.674L507.815 132.454C502.332 131.796 498.42 126.817 499.078 121.334L504.298 77.8155C504.956 72.3319 509.934 68.4199 515.418 69.0777L558.936 74.2983Z" fill="#595AA0"/>
<path d="M1633.03 58.7881C1638.36 57.3219 1643.86 60.4498 1645.33 65.7745L1656.96 108.032C1658.43 113.357 1655.3 118.862 1649.98 120.328L1607.72 131.964C1602.39 133.43 1596.89 130.302 1595.42 124.978L1583.79 82.7198C1582.32 77.3951 1585.45 71.8901 1590.77 70.4239L1633.03 58.7881Z" fill="#595AA0"/>
<path d="M792.936 51.2983C798.42 51.9561 802.332 56.9346 801.674 62.4182L796.454 105.937C795.796 111.42 790.817 115.332 785.334 114.674L741.815 109.454C736.332 108.796 732.42 103.817 733.078 98.3339L738.298 54.8155C738.956 49.3319 743.934 45.4199 749.418 46.0777L792.936 51.2983Z" fill="#595AA0"/>
<path fill-rule="evenodd" clip-rule="evenodd" d="M247.745 80.1653C249.719 63.7146 237.983 48.779 221.532 46.8056L-166.835 0.216531C-183.285 -1.75691 -198.221 9.97915 -200.194 26.4297L-246.783 414.796C-248.757 431.247 -237.021 446.183 -220.57 448.156L167.796 494.745C184.247 496.719 199.183 484.982 201.156 468.532L247.745 80.1653Z" fill="#595AA0"/>
</svg>
