<svg width="256" height="739" viewBox="0 0 256 739" fill="none" xmlns="http://www.w3.org/2000/svg">
<path d="M125.625 526.758V501.367C125.625 475.326 128.066 453.027 132.949 434.473C137.832 415.592 146.296 398.014 158.34 381.738C170.71 365.462 187.799 348.21 209.609 329.98C235 308.822 255.02 290.918 269.668 276.27C284.642 261.296 295.384 246.322 301.895 231.348C308.405 216.374 311.66 198.307 311.66 177.148C311.66 143.294 300.755 117.415 278.945 99.5117C257.135 81.2826 226.374 72.168 186.66 72.168C154.434 72.168 125.788 76.237 100.723 84.375C75.6576 92.513 51.569 102.279 28.457 113.672L0.136719 48.2422C26.8294 34.2448 55.8008 22.8516 87.0508 14.0625C118.301 5.27344 153.132 0.878906 191.543 0.878906C254.368 0.878906 303.034 16.5039 337.539 47.7539C372.044 78.6784 389.297 121.322 389.297 175.684C389.297 205.957 384.414 231.836 374.648 253.32C364.883 274.479 351.048 294.01 333.145 311.914C315.241 329.492 294.082 348.21 269.668 368.066C248.184 386.296 231.745 402.409 220.352 416.406C208.958 430.078 201.146 444.238 196.914 458.887C192.682 473.21 190.566 490.462 190.566 510.645V526.758H125.625ZM104.141 674.219C104.141 651.432 109.512 635.319 120.254 625.879C130.996 616.113 144.831 611.23 161.758 611.23C177.708 611.23 191.217 616.113 202.285 625.879C213.678 635.319 219.375 651.432 219.375 674.219C219.375 696.68 213.678 713.118 202.285 723.535C191.217 733.626 177.708 738.672 161.758 738.672C144.831 738.672 130.996 733.626 120.254 723.535C109.512 713.118 104.141 696.68 104.141 674.219Z" fill="#5759A1" fill-opacity="0.1"/>
</svg>
