<svg width="723" height="646" viewBox="0 0 723 646" fill="none" xmlns="http://www.w3.org/2000/svg">
<path d="M710.405 639.266H551.63" stroke="#5F61B2" stroke-opacity="0.5" stroke-width="13" stroke-miterlimit="10" stroke-linecap="round"/>
<path d="M318.403 639.266H7" stroke="#5F61B2" stroke-opacity="0.5" stroke-width="13" stroke-miterlimit="10" stroke-linecap="round"/>
<path d="M615.262 31.6079H188.111L184.994 17.7563C183.176 9.70499 189.323 2 197.547 2H589.723C600.804 2 610.327 9.70499 612.751 20.5266L615.262 31.6079Z" fill="#2F2F38" stroke="#2F2F38" stroke-width="3" stroke-miterlimit="10"/>
<path d="M691.706 445.079H299.53C288.535 445.079 278.926 437.374 276.502 426.552L188.111 31.6064H615.262L704.259 429.323C706.077 437.374 700.017 445.079 691.706 445.079Z" fill="#D7CCFF" stroke="#2F2F38" stroke-width="3" stroke-miterlimit="10"/>
<path d="M545.57 14.8991C546.609 18.968 544.705 22.9504 541.328 23.7295C538.039 24.5087 534.489 21.9115 533.537 17.8426C532.498 13.7737 534.402 9.79129 537.779 9.01214C541.069 8.14641 544.532 10.8302 545.57 14.8991Z" fill="#D7CCFF"/>
<path d="M564.617 14.8991C565.655 18.968 563.751 22.9504 560.374 23.7295C557.085 24.5087 553.535 21.9115 552.583 17.8426C551.544 13.7737 553.449 9.79129 556.825 9.01214C560.115 8.14641 563.578 10.8302 564.617 14.8991Z" fill="#D7CCFF"/>
<path d="M583.663 14.8991C584.701 18.968 582.797 22.9504 579.42 23.7295C576.131 24.5087 572.581 21.9115 571.629 17.8426C570.59 13.7737 572.495 9.79129 575.871 9.01214C579.161 8.14641 582.71 10.8302 583.663 14.8991Z" fill="#FF249C"/>
<path d="M577.256 63.9895H463.499C461.335 63.9895 459.43 62.4312 458.911 60.2669L458.478 58.4488C457.785 55.5054 460.036 52.6484 463.066 52.6484H576.823C578.987 52.6484 580.892 54.2068 581.411 56.3711L581.844 58.1891C582.537 61.1326 580.286 63.9895 577.256 63.9895Z" fill="#5F61B2"/>
<path d="M584.009 90.1346H469.473C467.914 90.1346 466.529 89.0092 466.183 87.5375L465.923 86.2389C465.49 84.1611 467.048 82.1699 469.213 82.1699H583.835C585.394 82.1699 586.779 83.2954 587.125 84.7671L587.385 86.0657C587.731 88.1435 586.173 90.1346 584.009 90.1346Z" fill="#D7CCFF"/>
<path d="M504.794 107.796H472.935C471.377 107.796 469.992 106.67 469.646 105.199L469.386 103.9C468.953 101.822 470.511 99.8311 472.676 99.8311H504.535C506.093 99.8311 507.478 100.957 507.824 102.428L508.084 103.727C508.517 105.805 506.959 107.796 504.794 107.796Z" fill="#D7CCFF"/>
<path d="M584.009 107.796H525.052C523.494 107.796 522.109 106.67 521.763 105.199L521.503 103.9C521.07 101.822 522.628 99.8311 524.793 99.8311H583.749C585.307 99.8311 586.692 100.957 587.039 102.428L587.298 103.727C587.731 105.805 586.173 107.796 584.009 107.796Z" fill="#D7CCFF"/>
<path d="M590.934 125.543H476.398C474.84 125.543 473.455 124.417 473.109 122.946L472.849 121.647C472.416 119.569 473.974 117.578 476.139 117.578H590.761C592.32 117.578 593.705 118.704 594.051 120.175L594.311 121.474C594.657 123.552 593.099 125.543 590.934 125.543Z" fill="#D7CCFF"/>
<path d="M542.367 143.289H479.861C478.303 143.289 476.918 142.163 476.572 140.692L476.312 139.393C475.879 137.315 477.437 135.324 479.602 135.324H542.107C543.666 135.324 545.051 136.45 545.397 137.921L545.657 139.22C546.09 141.298 544.445 143.289 542.367 143.289Z" fill="#D7CCFF"/>
<path d="M592.752 143.289H559.249C557.69 143.289 556.305 142.163 555.959 140.692L555.699 139.393C555.266 137.315 556.825 135.324 558.989 135.324H592.493C594.051 135.324 595.436 136.45 595.782 137.921L596.042 139.22C596.475 141.298 594.917 143.289 592.752 143.289Z" fill="#D7CCFF"/>
<path d="M598.207 161.037H483.584C482.026 161.037 480.641 159.912 480.294 158.44L480.035 157.141C479.602 155.063 481.16 153.072 483.324 153.072H597.947C599.505 153.072 600.89 154.198 601.237 155.669L601.496 156.968C601.929 159.046 600.371 161.037 598.207 161.037Z" fill="#D7CCFF"/>
<path d="M601.323 178.785H486.701C485.142 178.785 483.757 177.66 483.411 176.188L483.151 174.889C482.718 172.812 484.277 170.82 486.441 170.82H601.063C602.622 170.82 604.007 171.946 604.353 173.418L604.613 174.716C605.046 176.794 603.401 178.785 601.323 178.785Z" fill="#D7CCFF"/>
<path d="M609.374 216.443H495.704C494.146 216.443 492.847 215.404 492.501 213.846L492.241 212.547C491.808 210.47 493.367 208.479 495.444 208.479H609.115C610.673 208.479 611.971 209.517 612.318 211.076L612.577 212.374C613.01 214.452 611.452 216.443 609.374 216.443Z" fill="#D7CCFF"/>
<path d="M530.679 234.018H499.08C497.522 234.018 496.223 232.98 495.877 231.421L495.617 230.123C495.185 228.045 496.743 226.054 498.821 226.054H530.42C531.978 226.054 533.277 227.093 533.623 228.651L533.883 229.949C534.402 232.027 532.844 234.018 530.679 234.018Z" fill="#FF249C"/>
<path d="M609.374 234.018H550.851C549.293 234.018 547.994 232.98 547.648 231.421L547.388 230.123C546.955 228.045 548.514 226.054 550.591 226.054H609.115C610.673 226.054 611.972 227.093 612.318 228.651L612.578 229.949C613.01 232.027 611.452 234.018 609.374 234.018Z" fill="#D7CCFF"/>
<path d="M616.214 251.592H502.543C500.985 251.592 499.687 250.553 499.34 248.994L499.081 247.696C498.648 245.618 500.206 243.627 502.284 243.627H615.954C617.512 243.627 618.811 244.666 619.157 246.224L619.417 247.523C619.936 249.6 618.291 251.592 616.214 251.592Z" fill="#D7CCFF"/>
<path d="M567.993 269.166H505.92C504.361 269.166 503.063 268.127 502.717 266.569L502.457 265.27C502.024 263.192 503.582 261.201 505.66 261.201H567.733C569.291 261.201 570.59 262.24 570.936 263.798L571.196 265.097C571.629 267.261 570.07 269.166 567.993 269.166Z" fill="#D7CCFF"/>
<path d="M618.032 269.166H584.788C583.23 269.166 581.931 268.127 581.585 266.569L581.325 265.27C580.892 263.192 582.45 261.201 584.528 261.201H617.772C619.33 261.201 620.629 262.24 620.975 263.798L621.235 265.097C621.668 267.261 620.11 269.166 618.032 269.166Z" fill="#FF249C"/>
<path d="M623.399 286.828H509.729C508.17 286.828 506.872 285.789 506.525 284.231L506.266 282.932C505.833 280.854 507.391 278.863 509.469 278.863H623.139C624.697 278.863 625.996 279.902 626.342 281.46L626.602 282.759C627.122 284.837 625.477 286.828 623.399 286.828Z" fill="#FF249C"/>
<path d="M626.429 304.401H512.759C511.2 304.401 509.902 303.362 509.556 301.804L509.296 300.505C508.863 298.428 510.421 296.437 512.499 296.437H626.169C627.728 296.437 629.026 297.475 629.373 299.034L629.632 300.332C630.152 302.41 628.593 304.401 626.429 304.401Z" fill="#D7CCFF"/>
<path d="M632.143 331.153H518.473C516.914 331.153 515.616 330.114 515.27 328.556L515.01 327.257C514.577 325.18 516.135 323.188 518.213 323.188H631.883C633.442 323.188 634.74 324.227 635.086 325.786L635.346 327.084C635.866 329.162 634.307 331.153 632.143 331.153Z" fill="#D7CCFF"/>
<path d="M553.535 348.728H521.936C520.378 348.728 519.079 347.69 518.733 346.131L518.473 344.833C518.04 342.755 519.598 340.764 521.676 340.764H553.189C554.747 340.764 556.046 341.803 556.392 343.361L556.652 344.659C557.171 346.737 555.613 348.728 553.535 348.728Z" fill="#D7CCFF"/>
<path d="M632.143 348.728H573.62C572.061 348.728 570.763 347.69 570.416 346.131L570.157 344.833C569.724 342.755 571.282 340.764 573.36 340.764H631.883C633.442 340.764 634.74 341.803 635.086 343.361L635.346 344.659C635.866 346.737 634.307 348.728 632.143 348.728Z" fill="#FF249C"/>
<path d="M638.982 366.3H525.312C523.754 366.3 522.455 365.261 522.109 363.702L521.849 362.404C521.416 360.326 522.975 358.335 525.052 358.335H638.723C640.281 358.335 641.579 359.374 641.926 360.932L642.185 362.231C642.705 364.308 641.147 366.3 638.982 366.3Z" fill="#D7CCFF"/>
<path d="M590.761 383.876H528.688C527.13 383.876 525.831 382.837 525.485 381.279L525.225 379.98C524.793 377.902 526.351 375.911 528.429 375.911H590.501C592.06 375.911 593.358 376.95 593.705 378.508L593.964 379.807C594.484 381.971 592.925 383.876 590.761 383.876Z" fill="#FF249C"/>
<path d="M640.8 383.876H607.556C605.998 383.876 604.699 382.837 604.353 381.279L604.093 379.98C603.661 377.902 605.219 375.911 607.297 375.911H640.541C642.099 375.911 643.398 376.95 643.744 378.508L644.004 379.807C644.523 381.971 642.878 383.876 640.8 383.876Z" fill="#D7CCFF"/>
<path d="M646.168 401.536H532.497C530.939 401.536 529.641 400.497 529.294 398.939L529.035 397.64C528.602 395.562 530.16 393.571 532.238 393.571H645.908C647.466 393.571 648.765 394.61 649.111 396.168L649.371 397.467C649.89 399.545 648.332 401.536 646.168 401.536Z" fill="#D7CCFF"/>
<path d="M649.285 419.111H535.614C534.056 419.111 532.757 418.072 532.411 416.514L532.151 415.215C531.718 413.138 533.277 411.146 535.355 411.146H649.025C650.583 411.146 651.882 412.185 652.228 413.744L652.488 415.042C653.007 417.12 651.362 419.111 649.285 419.111Z" fill="#D7CCFF"/>
<path d="M567.3 445.599H540.376C538.818 445.599 537.519 444.561 537.173 443.002L536.913 441.704C536.48 439.626 538.039 437.635 540.116 437.635H567.04C568.599 437.635 569.897 438.674 570.244 440.232L570.503 441.531C571.023 443.608 569.464 445.599 567.3 445.599Z" fill="#FF249C"/>
<path d="M651.709 445.599H581.325C579.767 445.599 578.468 444.561 578.122 443.002L577.862 441.704C577.429 439.626 578.987 437.635 581.065 437.635H651.449C653.007 437.635 654.306 438.674 654.652 440.232L654.912 441.531C655.345 443.608 653.786 445.599 651.709 445.599Z" fill="#D7CCFF"/>
<path d="M657.509 463.175H543.839C542.28 463.175 540.982 462.136 540.636 460.577L540.376 459.279C539.943 457.201 541.501 455.21 543.579 455.21H657.249C658.808 455.21 660.106 456.249 660.452 457.807L660.712 459.106C661.145 461.183 659.587 463.175 657.509 463.175Z" fill="#D7CCFF"/>
<path d="M621.408 480.751H547.215C545.657 480.751 544.358 479.712 544.012 478.154L543.752 476.855C543.319 474.777 544.877 472.786 546.955 472.786H621.148C622.707 472.786 624.005 473.825 624.351 475.383L624.611 476.682C625.131 478.76 623.572 480.751 621.408 480.751Z" fill="#FF249C"/>
<path d="M658.374 480.751H635.26C633.701 480.751 632.403 479.712 632.056 478.154L631.797 476.855C631.364 474.777 632.922 472.786 635 472.786H658.115C659.673 472.786 660.972 473.825 661.318 475.383L661.578 476.682C662.097 478.76 660.452 480.751 658.374 480.751Z" fill="#FF249C"/>
<path d="M664.348 498.324H550.678C549.12 498.324 547.821 497.285 547.475 495.727L547.215 494.428C546.782 492.351 548.341 490.359 550.418 490.359H664.089C665.647 490.359 666.945 491.398 667.292 492.957L667.551 494.255C668.071 496.419 666.426 498.324 664.348 498.324Z" fill="#D7CCFF"/>
<path d="M668.071 515.986H554.401C552.842 515.986 551.544 514.947 551.197 513.389L550.938 512.09C550.505 510.013 552.063 508.021 554.141 508.021H667.811C669.369 508.021 670.668 509.06 671.014 510.619L671.274 511.917C671.794 513.995 670.235 515.986 668.071 515.986Z" fill="#D7CCFF"/>
<path d="M647.986 533.562H557.517C555.959 533.562 554.66 532.524 554.314 530.965L554.054 529.667C553.621 527.589 555.18 525.598 557.257 525.598H647.726C649.285 525.598 650.583 526.637 650.929 528.195L651.189 529.493C651.709 531.571 650.064 533.562 647.986 533.562Z" fill="#FF249C"/>
<path d="M222.566 183.806H429.129C431.467 183.806 433.198 181.642 432.679 179.391L406.794 63.7295C406.101 60.6995 403.417 58.5352 400.301 58.5352H194.43L222.566 183.806Z" fill="#5F61B2" stroke="#5F61B2" stroke-width="3" stroke-miterlimit="10"/>
<path d="M442.548 175.061H193.478C190.361 175.061 187.677 172.896 186.985 169.866L161.013 54.1184C160.493 51.8675 162.225 49.7031 164.562 49.7031H413.633C416.749 49.7031 419.433 51.8674 420.126 54.8975L446.098 170.559C446.617 172.81 444.886 175.061 442.548 175.061Z" fill="#D7CCFF"/>
<path d="M318.027 89.6824L318.025 89.6707L318.022 89.6592C317.758 88.6047 318.539 87.5967 319.701 87.5967H357.36C358.156 87.5967 358.827 88.1187 359.037 88.9385L359.206 89.786C359.207 89.7869 359.207 89.7878 359.207 89.7887C359.41 90.881 358.589 91.8776 357.533 91.8776H319.874C319.078 91.8776 318.407 91.3556 318.198 90.5358L318.027 89.6824Z" fill="#5F61B2" stroke="#55498B"/>
<path d="M369.798 89.6824L369.795 89.6707L369.793 89.6592C369.529 88.6047 370.31 87.5967 371.472 87.5967H409.131C409.927 87.5967 410.598 88.1187 410.808 88.9385L410.977 89.786C410.977 89.7869 410.977 89.7878 410.978 89.7887C411.181 90.881 410.36 91.8776 409.304 91.8776H371.645C370.849 91.8776 370.178 91.3556 369.969 90.5358L369.798 89.6824Z" fill="#5F61B2" stroke="#55498B"/>
<path d="M375.4 68.5108L375.4 68.5102L374.967 66.6072L375.4 68.5108ZM375.4 68.5108C376.021 71.2285 373.92 73.8729 371.126 73.8729H317.191M375.4 68.5108L317.191 73.8729M317.191 73.8729C315.173 73.8729 313.384 72.4753 312.917 70.4521M317.191 73.8729L312.917 70.4521M312.917 70.4521C312.917 70.4518 312.916 70.4515 312.916 70.4513M312.917 70.4521L312.916 70.4513M312.916 70.4513L312.484 68.5506C312.484 68.5502 312.484 68.5498 312.484 68.5495C311.862 65.7467 313.96 63.1855 316.758 63.1855H370.693C372.711 63.1855 374.499 64.5827 374.967 66.6056L312.916 70.4513Z" fill="#5F61B2" stroke="#55498B"/>
<path d="M320.278 101.371L320.276 101.359L320.273 101.348C320.009 100.293 320.79 99.2852 321.952 99.2852H411.815C412.611 99.2852 413.281 99.8072 413.491 100.627L413.661 101.474C413.661 101.475 413.661 101.476 413.661 101.477C413.864 102.569 413.043 103.566 411.988 103.566H322.125C321.329 103.566 320.658 103.044 320.449 102.224L320.278 101.371Z" fill="#5F61B2" stroke="#55498B"/>
<path d="M322.529 112.972L322.527 112.961L322.524 112.949C322.261 111.895 323.041 110.887 324.203 110.887H414.066C414.862 110.887 415.533 111.409 415.743 112.229L415.913 113.082L415.916 113.094L415.919 113.105C416.179 114.146 415.329 115.168 414.239 115.168H324.377C323.581 115.168 322.91 114.646 322.7 113.826L322.529 112.972Z" fill="#5F61B2" stroke="#55498B"/>
<path d="M324.78 124.661L324.778 124.649L324.775 124.638C324.511 123.583 325.292 122.575 326.454 122.575H386.449C387.245 122.575 387.916 123.097 388.126 123.917L388.295 124.765C388.295 124.765 388.295 124.766 388.296 124.767C388.499 125.859 387.678 126.856 386.622 126.856H326.627C325.831 126.856 325.16 126.334 324.951 125.514L324.78 124.661Z" fill="#5F61B2" stroke="#55498B"/>
<path d="M395.683 124.661L395.681 124.649L395.678 124.638C395.415 123.583 396.195 122.575 397.357 122.575H416.144C416.94 122.575 417.611 123.097 417.82 123.917L417.99 124.767C418.193 125.86 417.372 126.856 416.317 126.856H397.531C396.735 126.856 396.064 126.334 395.854 125.514L395.683 124.661Z" fill="#5F61B2" stroke="#55498B"/>
<path d="M327.29 136.347L327.288 136.336L327.285 136.324C327.022 135.27 327.802 134.262 328.965 134.262H418.827C419.623 134.262 420.294 134.784 420.504 135.604L420.674 136.457L420.678 136.472L420.682 136.488C420.936 137.443 420.084 138.543 419 138.543H329.138C328.342 138.543 327.671 138.021 327.461 137.201L327.29 136.347Z" fill="#5F61B2" stroke="#55498B"/>
<path d="M329.282 147.947L329.279 147.935L329.276 147.924C329.013 146.869 329.794 145.861 330.956 145.861H420.818C421.614 145.861 422.285 146.383 422.495 147.203L422.666 148.057L422.668 148.068L422.671 148.08C422.938 149.148 422.139 150.142 421.078 150.142H331.129C330.333 150.142 329.662 149.62 329.452 148.8L329.282 147.947Z" fill="#5F61B2" stroke="#55498B"/>
<path d="M325.068 160.258H197.114L170.449 41.3936H298.491L325.068 160.258Z" fill="#5F61B2" stroke="#55498B" stroke-width="2" stroke-miterlimit="10"/>
<path d="M298.491 41.3936L197.114 160.258" stroke="#55498B" stroke-width="2" stroke-miterlimit="10"/>
<path d="M170.449 41.3936L325.068 160.258" stroke="#55498B" stroke-width="2" stroke-miterlimit="10"/>
<path d="M506.989 472.373L506.987 472.364L487.249 372.893C486.767 370.483 484.859 368.793 482.805 368.793H293.037C291.7 368.793 290.54 370.24 290.845 372.011L310.582 471.476L506.989 472.373ZM506.989 472.373C507.369 474.119 506.229 475.576 504.794 475.576H315.026M506.989 472.373L315.026 475.576M315.026 475.576C312.972 475.576 311.064 473.887 310.582 471.477L315.026 475.576Z" fill="#FF249C" stroke="#2F2F38"/>
<path d="M372.511 403.617L382.64 443.786C383.765 448.202 388.96 450.02 392.596 447.249L423.069 424.048C426.965 421.104 426.186 415.044 421.684 413.226L381.081 396.258C376.233 394.267 371.212 398.595 372.511 403.617Z" fill="#D7CCFF"/>
<path d="M489.298 340.329H244.123C241.007 340.329 238.409 337.905 237.717 334.529L212.178 205.968C211.658 203.457 213.39 201.033 215.641 201.033H460.902C464.019 201.033 466.616 203.457 467.308 206.834L492.847 335.394C493.28 337.905 491.635 340.329 489.298 340.329Z" fill="#D7CCFF"/>
<path d="M237.197 219.647L257.715 323.189" stroke="#FF249C" stroke-miterlimit="10"/>
<path d="M267.411 219.647L287.929 323.189" stroke="#FF249C" stroke-miterlimit="10"/>
<path d="M297.712 219.647L318.23 323.189" stroke="#FF249C" stroke-miterlimit="10"/>
<path d="M327.926 219.647L348.444 323.189" stroke="#FF249C" stroke-miterlimit="10"/>
<path d="M358.14 219.647L378.658 323.189" stroke="#FF249C" stroke-miterlimit="10"/>
<path d="M388.441 219.647L408.958 323.189" stroke="#FF249C" stroke-miterlimit="10"/>
<path d="M418.654 219.647L439.172 323.189" stroke="#FF249C" stroke-miterlimit="10"/>
<path d="M448.868 219.647L469.472 323.189" stroke="#FF249C" stroke-miterlimit="10"/>
<path d="M234.081 320.503L247.846 277.217L284.553 310.028L305.677 263.971L336.15 265.096L372.078 292.973L392.076 241.981L425.753 257.824H455.708L469.646 214.538L529.468 196.098" stroke="#E0218A" stroke-width="4" stroke-miterlimit="10"/>
<path d="M529.467 205.795C534.823 205.795 539.164 201.454 539.164 196.099C539.164 190.743 534.823 186.402 529.467 186.402C524.112 186.402 519.771 190.743 519.771 196.099C519.771 201.454 524.112 205.795 529.467 205.795Z" fill="#E0218A" stroke="#E0218A" stroke-width="4" stroke-miterlimit="10"/>
<path d="M456.746 264.925C460.476 264.925 463.499 261.902 463.499 258.173C463.499 254.443 460.476 251.42 456.746 251.42C453.017 251.42 449.994 254.443 449.994 258.173C449.994 261.902 453.017 264.925 456.746 264.925Z" fill="#E0218A"/>
<path d="M474.612 221.563C477.132 218.814 476.947 214.542 474.198 212.022C471.449 209.501 467.177 209.687 464.657 212.436C462.136 215.185 462.322 219.456 465.071 221.977C467.82 224.497 472.091 224.312 474.612 221.563Z" fill="#E0218A"/>
<path d="M427.571 265.617C431.301 265.617 434.324 262.593 434.324 258.864C434.324 255.135 431.301 252.111 427.571 252.111C423.842 252.111 420.819 255.135 420.819 258.864C420.819 262.593 423.842 265.617 427.571 265.617Z" fill="#E0218A"/>
<path d="M398.759 244.843C399.356 241.161 396.857 237.693 393.175 237.095C389.494 236.498 386.025 238.998 385.428 242.679C384.83 246.36 387.33 249.829 391.012 250.427C394.693 251.024 398.162 248.524 398.759 244.843Z" fill="#E0218A"/>
<path d="M379.085 294.873C379.682 291.192 377.182 287.723 373.501 287.126C369.82 286.528 366.351 289.028 365.754 292.709C365.156 296.391 367.656 299.859 371.337 300.457C375.019 301.054 378.487 298.554 379.085 294.873Z" fill="#E0218A"/>
<path d="M286.04 317.239C289.742 316.787 292.376 313.42 291.925 309.719C291.473 306.017 288.106 303.382 284.404 303.834C280.703 304.285 278.068 307.652 278.519 311.354C278.971 315.056 282.338 317.691 286.04 317.239Z" fill="#E0218A"/>
<path d="M305.244 271.677C308.973 271.677 311.996 268.654 311.996 264.925C311.996 261.195 308.973 258.172 305.244 258.172C301.514 258.172 298.491 261.195 298.491 264.925C298.491 268.654 301.514 271.677 305.244 271.677Z" fill="#E0218A"/>
<path d="M340.858 270.454C343.495 267.816 343.495 263.541 340.858 260.904C338.221 258.267 333.945 258.267 331.308 260.904C328.671 263.541 328.671 267.817 331.308 270.454C333.945 273.091 338.221 273.091 340.858 270.454Z" fill="#E0218A"/>
<path d="M249.521 282.503C253.123 281.539 255.262 277.837 254.298 274.234C253.334 270.631 249.632 268.493 246.029 269.457C242.427 270.421 240.288 274.123 241.252 277.725C242.216 281.328 245.918 283.467 249.521 282.503Z" fill="#E0218A"/>
<path d="M234.081 327.255C237.81 327.255 240.834 324.232 240.834 320.503C240.834 316.773 237.81 313.75 234.081 313.75C230.351 313.75 227.328 316.773 227.328 320.503C227.328 324.232 230.351 327.255 234.081 327.255Z" fill="#E0218A"/>
<path d="M704.864 63.2955H657.855L648.073 19.5762H695.082L704.864 63.2955Z" stroke="#D7CCFF" stroke-width="3" stroke-miterlimit="10"/>
<path d="M695.082 19.5762L657.855 63.2955" stroke="#D7CCFF" stroke-width="3" stroke-miterlimit="10"/>
<path d="M648.073 19.5762L704.864 63.2955" stroke="#D7CCFF" stroke-width="3" stroke-miterlimit="10"/>
<path d="M196.854 255.662H135.561L122.835 198.783H184.128L196.854 255.662Z" stroke="#D7CCFF" stroke-width="3" stroke-miterlimit="10"/>
<path d="M184.128 198.783L135.561 255.662" stroke="#D7CCFF" stroke-width="3" stroke-miterlimit="10"/>
<path d="M122.835 198.783L196.854 255.662" stroke="#D7CCFF" stroke-width="3" stroke-miterlimit="10"/>
<path d="M340.219 552.865H278.926L266.2 495.9H327.493L340.219 552.865Z" stroke="#FF249C" stroke-width="2" stroke-miterlimit="10"/>
<path d="M327.493 495.9L278.926 552.865" stroke="#FF249C" stroke-width="2" stroke-miterlimit="10"/>
<path d="M266.2 495.9L340.219 552.865" stroke="#FF249C" stroke-width="2" stroke-miterlimit="10"/>
<path d="M596.561 257.653L669.889 263.021C681.576 263.887 691.099 272.804 692.744 284.491L698.717 327.864C699.67 334.53 696.986 341.196 691.705 345.352L673.265 360.156L596.561 343.101V314.618L588.597 303.71L557.084 274.362L522.715 225.448L536.566 212.809L568.252 246.312L596.561 257.653Z" fill="#F0ECFF"/>
<path d="M656.297 551.913L680.451 400.411C681.489 391.84 680.71 383.182 678.113 374.958L666.166 337.299L596.648 343.013L585.394 374.179C583.056 380.672 581.844 387.598 581.844 394.524V472.006C581.844 482.655 584.441 493.217 589.376 502.653L618.984 559.099L623.139 624.375L604.266 633.119C601.15 634.59 602.189 639.179 605.565 639.179H631.883H651.276C655.344 639.179 658.981 636.582 660.279 632.772L668.504 609.398L660.279 598.663L656.297 551.913Z" fill="#5F61B2"/>
<path d="M653.094 624.291V639.181H605.565C602.189 639.181 601.15 634.593 604.266 633.121L623.139 624.377C630.325 623.079 625.044 632.429 630.931 627.754C636.731 623.165 653.094 624.291 653.094 624.291Z" fill="#2F2F38"/>
<path d="M668.504 609.486L660.279 598.751C660.279 598.751 650.583 598.491 647.9 602.387C645.129 606.283 643.744 624.376 643.744 624.376L634.567 634.072C631.797 635.717 629.892 639.353 633.096 639.353H651.362C655.431 639.353 659.067 636.756 660.366 632.947L668.504 609.486Z" fill="#2F2F38"/>
<path d="M655.345 395.481C645.043 402.84 632.663 405.956 620.716 409.506C619.937 409.765 620.283 410.978 621.062 410.718C633.096 407.168 645.649 403.965 656.037 396.52C656.73 396.087 656.037 394.961 655.345 395.481Z" fill="#2F2F38"/>
<path d="M632.057 406.992C630.152 439.283 628.507 471.575 627.036 503.867C627.036 504.732 628.334 504.732 628.334 503.867C629.719 471.575 631.364 439.283 633.355 406.992C633.442 406.212 632.143 406.212 632.057 406.992Z" fill="#2F2F38"/>
<path d="M619.763 561.178C627.555 578.926 635.433 596.673 643.225 614.507C643.571 615.287 644.696 614.594 644.35 613.815C636.559 596.067 628.68 578.32 620.889 560.486C620.543 559.793 619.417 560.399 619.763 561.178Z" fill="#2F2F38"/>
<path d="M627.468 504.303C644.09 514.518 654.392 533.132 654.392 552.611C654.392 553.476 655.691 553.476 655.691 552.611C655.778 532.699 645.129 513.653 628.161 503.177C627.468 502.745 626.776 503.87 627.468 504.303Z" fill="#2F2F38"/>
<path d="M604.353 371.671C610.587 370.805 616.82 369.939 623.14 369.074C624.005 368.987 623.573 367.688 622.793 367.862C616.56 368.727 610.327 369.593 604.007 370.459C603.228 370.459 603.574 371.757 604.353 371.671Z" fill="#2F2F38"/>
<path d="M649.284 365.436C653.786 364.657 658.288 364.051 662.876 363.705C664.781 363.531 667.118 363.878 668.936 363.445C669.716 363.272 669.802 363.531 670.235 362.839C670.668 362.146 669.542 361.454 669.11 362.146C668.936 362.493 664.781 362.233 664.088 362.319C662.27 362.406 660.452 362.579 658.721 362.752C655.431 363.099 652.228 363.531 649.025 364.137C648.159 364.311 648.505 365.523 649.284 365.436Z" fill="#2F2F38"/>
<path d="M595.263 349.855C619.07 347.95 642.878 346.132 666.686 344.228C667.551 344.141 667.551 342.842 666.686 342.929C642.878 344.834 619.07 346.652 595.263 348.556C594.484 348.643 594.484 349.941 595.263 349.855Z" fill="#2F2F38"/>
<path d="M634.74 349.077C638.376 366.479 640.541 384.14 641.06 401.974C641.06 402.839 642.359 402.839 642.359 401.974C641.753 384.053 639.675 366.305 635.952 348.731C635.779 347.952 634.567 348.298 634.74 349.077Z" fill="#2F2F38"/>
<path d="M666.513 337.735C670.668 321.286 673.438 304.578 674.737 287.609C674.824 286.744 673.525 286.744 673.438 287.609C672.14 304.404 669.456 321.026 665.301 337.389C665.041 338.168 666.253 338.514 666.513 337.735Z" fill="#2F2F38"/>
<path d="M590.934 303.106C597.947 298.344 604.353 292.804 609.98 286.397C610.5 285.791 609.634 284.839 609.028 285.445C603.487 291.678 597.168 297.219 590.242 301.894C589.549 302.413 590.242 303.539 590.934 303.106Z" fill="#2F2F38"/>
<path d="M596.215 314.878C598.553 318.514 601.323 321.804 604.353 324.92C604.959 325.526 605.825 324.574 605.305 323.968C602.275 321.025 599.678 317.735 597.34 314.185C596.908 313.493 595.782 314.185 596.215 314.878Z" fill="#2F2F38"/>
<path d="M628.507 259.992L656.21 262.416L655.085 223.198C654.912 216.618 650.237 210.991 643.744 209.693L634.913 207.875C628.94 206.663 623.226 210.818 622.533 216.878L620.023 238.435C619.417 243.543 624.351 247.612 629.286 246.14L631.364 245.534L628.507 259.992Z" fill="#5F61B2"/>
<path d="M618.292 217.743L630.498 220.6L635.952 227.266L634.048 254.104H657.163C662.444 254.104 666.772 249.862 666.772 244.494V221.812C666.772 215.839 664.089 210.125 659.5 206.229C654.652 202.16 648.332 200.083 642.012 200.602L635.606 201.035C626.516 201.641 619.244 208.653 618.292 217.743Z" fill="#2F2F38"/>
<path d="M596.129 315.314C596.995 321.288 598.726 327.088 601.41 332.456C601.756 333.235 602.882 332.542 602.535 331.763C599.938 326.396 598.207 320.768 597.428 314.881C597.341 314.102 596.042 314.448 596.129 315.314Z" fill="#2F2F38"/>
<path d="M551.804 263.885C556.305 261.98 560.721 266.135 563.145 269.512C565.655 273.061 567.387 277.736 566.088 282.065C565.828 282.844 567.127 283.19 567.3 282.411C569.811 274.273 560.98 258.604 551.111 262.759C550.332 263.105 551.024 264.231 551.804 263.885Z" fill="#2F2F38"/>
<path d="M697.593 322.151C691.013 327.519 688.502 336.436 691.359 344.487C691.619 345.266 692.918 344.92 692.571 344.141C689.888 336.522 692.225 328.211 698.458 323.104C699.151 322.584 698.199 321.632 697.593 322.151Z" fill="#2F2F38"/>
<path d="M567.993 246.831C566.694 248.649 565.482 250.467 564.183 252.285C563.664 252.977 564.789 253.583 565.309 252.977C566.607 251.159 567.819 249.341 569.118 247.523C569.638 246.744 568.512 246.138 567.993 246.831Z" fill="#2F2F38"/>
<path d="M619.936 341.109L668.937 346.39L666.08 337.387L619.936 341.109Z" fill="#2F2F38"/>
<path d="M525.831 222.678L518.3 212.809L516.395 204.844C515.876 202.593 516.049 200.256 516.914 198.091L520.031 190.386C520.724 188.568 523.148 188.395 524.273 189.953C525.485 191.858 526.351 193.936 526.697 196.1L527.996 203.372L532.411 205.969L533.45 202.074C534.056 199.996 535.354 198.264 537.086 197.139C538.211 196.36 539.77 197.226 539.77 198.611V198.957C539.77 203.545 538.817 208.047 536.826 212.203L536.653 212.636L525.831 222.678Z" fill="#5F61B2"/>
<path d="M625.304 502.133C622.187 501.441 619.07 500.662 615.954 499.969C615.175 499.796 614.828 501.008 615.608 501.181C618.724 501.874 621.841 502.653 624.957 503.345C625.737 503.605 626.083 502.393 625.304 502.133Z" fill="#2F2F38"/>
<path d="M660.712 509.929C656.124 508.284 651.535 506.639 646.947 504.994C646.168 504.735 645.822 505.947 646.601 506.206C651.189 507.851 655.777 509.496 660.366 511.141C661.145 511.401 661.491 510.189 660.712 509.929Z" fill="#2F2F38"/>
<path d="M658.375 511.313C655.258 511.313 652.142 511.313 649.025 511.313C648.159 511.313 648.159 512.612 649.025 512.612C652.142 512.612 655.258 512.612 658.375 512.612C659.241 512.612 659.241 511.313 658.375 511.313Z" fill="#2F2F38"/>
<path d="M624.439 502.572C619.59 502.918 615.175 504.476 611.106 507.073C610.414 507.506 611.106 508.632 611.799 508.199C615.608 505.688 619.85 504.216 624.439 503.87C625.304 503.784 625.304 502.485 624.439 502.572Z" fill="#2F2F38"/>
<path d="M643.051 624.29C642.964 628.013 637.856 629.398 635.432 631.389C633.268 633.207 631.623 635.372 631.883 638.315C631.97 639.181 633.268 639.181 633.182 638.315C632.402 630.697 644.09 631.216 644.349 624.29C644.349 623.511 643.051 623.511 643.051 624.29Z" fill="white"/>
<path d="M664.781 609.659C651.795 611.477 656.47 630.436 647.726 636.669C647.034 637.189 647.726 638.314 648.419 637.795C652.574 634.851 654.046 630.003 655.171 625.242C656.47 619.528 658.375 611.823 665.214 610.871C665.906 610.784 665.56 609.572 664.781 609.659Z" fill="white"/>
<path d="M520.983 190.04C520.983 195.235 521.676 200.343 523.061 205.45C523.321 206.23 524.533 205.883 524.273 205.104C522.888 200.169 522.195 195.148 522.195 190.04C522.282 189.261 520.983 189.261 520.983 190.04Z" fill="#2F2F38"/>
<path d="M518.3 195.059C518.04 199.388 518.56 203.63 519.772 207.786C520.031 208.565 521.243 208.219 520.984 207.439C519.772 203.37 519.339 199.215 519.512 195.059C519.685 194.194 518.386 194.194 518.3 195.059Z" fill="#2F2F38"/>
<path d="M120.411 322.754L75.739 357.989C72.4493 360.587 70.9775 364.742 71.8432 368.811L74.6136 382.057L48.7283 426.815L147.248 448.545L181.098 395.908L215.987 429.845C222.134 435.818 230.964 438.329 239.275 436.338L285.505 425.603L280.311 405.951L236.851 401.795L204.819 356.777C202.222 353.055 198.846 350.025 194.95 347.687L149.499 320.676C140.322 315.395 128.722 316.175 120.411 322.754Z" fill="#5F61B2"/>
<path d="M93.2269 639.265H48.6418L51.6719 624.374C59.8098 619.439 62.7532 627.577 72.8823 623.855L94.4389 633.378C97.5556 634.676 96.6033 639.265 93.2269 639.265Z" fill="#2F2F38"/>
<path d="M248.279 603.337H216.68L170.104 537.282L97.8152 478.066L113.139 525.508C115.736 533.646 115.043 542.563 111.061 550.181L83.4441 603.337H55.8273L69.5058 534.858L45.4386 474.43C43.1011 468.63 42.4951 462.31 43.534 456.163L48.6418 426.901L147.162 448.631L201.356 509.232C203.001 511.05 204.386 513.128 205.425 515.292L248.279 603.337Z" fill="#D7CCFF"/>
<path d="M279.186 639.265H242.046L231.138 623.768C238.756 621.431 251.569 628.53 258.321 623.768L280.484 633.291C283.514 634.59 282.562 639.265 279.186 639.265Z" fill="#2F2F38"/>
<path d="M83.5307 603.338L72.8822 623.769C62.7532 627.492 59.7232 619.354 51.6719 624.289L55.8274 603.338H83.5307Z" fill="#F0ECFF"/>
<path d="M258.235 623.769C251.569 628.531 238.756 621.432 231.051 623.769L216.593 603.338H248.192L258.235 623.769Z" fill="#F0ECFF"/>
<path d="M159.888 326.997L175.99 314.185V305.874C175.99 297.736 182.57 291.156 190.708 291.156H202.309C209.235 291.156 215.295 296.091 216.68 302.844L221.182 324.833C222.48 331.24 217.632 337.3 211.053 337.3H200.837L189.063 344.312L159.888 326.997Z" fill="#F0ECFF"/>
<path d="M280.311 406.125L292.172 395.131C293.211 394.178 294.942 394.611 295.461 395.91C296.327 398.247 296.241 400.845 295.375 403.182L294.509 405.519H315.979C317.797 405.519 318.75 407.684 317.538 408.982L311.304 415.908C308.794 418.679 305.417 420.497 301.695 421.016L284.986 423.353L280.311 406.125Z" fill="#F0ECFF"/>
<path d="M196.854 318.426C198.066 320.763 200.664 321.975 203.261 321.456C204.04 321.283 203.694 320.071 202.915 320.244C200.923 320.677 198.932 319.638 197.98 317.82C197.547 317.041 196.422 317.733 196.854 318.426Z" fill="#2F2F38"/>
<path d="M219.191 325.261C217.026 325.348 215.122 324.136 214.256 322.231C213.91 321.452 212.784 322.145 213.13 322.924C214.256 325.261 216.68 326.733 219.191 326.646C220.056 326.473 220.056 325.175 219.191 325.261Z" fill="#2F2F38"/>
<path d="M200.837 312.975C200.577 312.196 202.049 312.11 202.395 312.542C203.174 313.235 203.174 314.534 203.174 315.399C203.521 315.226 203.954 315.053 204.3 314.967C203.088 313.668 200.837 314.187 200.231 315.832C199.885 316.611 201.183 316.958 201.443 316.179C201.789 315.399 202.828 315.399 203.348 315.919C203.694 316.352 204.473 316.005 204.473 315.486C204.386 313.928 204.127 311.504 202.222 311.071C200.837 310.724 199.106 311.85 199.538 313.408C199.798 314.101 201.097 313.755 200.837 312.975Z" fill="#2F2F38"/>
<path d="M181.704 394.612C176.942 390.457 172.181 386.301 167.419 382.146C166.813 381.626 165.861 382.492 166.467 383.098C171.229 387.253 175.99 391.409 180.752 395.564C181.358 396.084 182.31 395.132 181.704 394.612Z" fill="#2F2F38"/>
<path d="M179.627 395.737C173.134 396.084 166.814 397.123 160.581 398.854C159.802 399.114 160.148 400.326 160.927 400.066C167.074 398.334 173.307 397.296 179.627 397.036C180.493 397.036 180.493 395.737 179.627 395.737Z" fill="#2F2F38"/>
<path d="M97.9885 477.977C88.4655 474.947 78.8559 472.436 69.1597 470.359C68.3806 470.186 68.0343 471.398 68.8135 471.571C78.5096 473.648 88.2058 476.159 97.6423 479.189C98.4214 479.449 98.7677 478.237 97.9885 477.977Z" fill="#2F2F38"/>
<path d="M87.5126 477.891C90.7158 487.933 93.919 498.062 97.0357 508.105C98.6805 513.213 100.672 518.407 101.711 523.601C102.836 529.488 101.018 535.202 99.4597 540.83C93.919 561.001 86.82 580.74 78.3359 599.872C77.9896 600.651 79.1151 601.257 79.4613 600.565C88.2052 580.999 95.4773 560.741 101.105 540.05C102.49 535.029 103.961 529.921 103.269 524.64C102.576 519.706 100.585 514.858 99.1134 510.183C95.6505 499.274 92.2741 488.453 88.8112 477.545C88.4649 476.765 87.2529 477.112 87.5126 477.891Z" fill="#2F2F38"/>
<path d="M135.388 448.195C152.183 464.817 168.372 482.131 183.263 500.571C190.448 509.488 197.201 518.838 203.001 528.708C209.148 539.096 213.736 550.264 218.152 561.519C223.346 574.764 228.54 588.01 233.648 601.256C233.908 602.035 235.207 601.689 234.86 600.909C230.185 588.876 225.424 576.756 220.749 564.722C216.507 553.814 212.265 542.906 206.638 532.603C195.556 512.432 180.492 494.684 165.169 477.63C155.819 467.241 146.21 457.112 136.254 447.329C135.734 446.636 134.782 447.589 135.388 448.195Z" fill="#2F2F38"/>
<path d="M171.488 537.888C174.345 536.936 177.202 536.416 180.232 536.33C181.098 536.33 181.098 535.031 180.232 535.031C177.116 535.118 174.086 535.637 171.142 536.676C170.363 536.936 170.623 538.148 171.488 537.888Z" fill="#2F2F38"/>
<path d="M70.3717 536.33C74.0078 537.11 77.5572 538.149 81.0202 539.534C81.7993 539.88 82.1456 538.581 81.3665 538.322C77.9035 536.936 74.354 535.811 70.718 535.118C69.9388 534.945 69.5925 536.157 70.3717 536.33Z" fill="#2F2F38"/>
<path d="M46.6508 446.204C50.46 446.29 54.096 447.156 57.4724 448.801C58.2515 449.147 58.8575 448.022 58.165 447.676C54.5289 445.858 50.7197 444.905 46.6508 444.905C45.785 444.905 45.785 446.204 46.6508 446.204Z" fill="#2F2F38"/>
<path d="M88.9849 455.731C94.8718 455.385 100.586 456.164 106.213 457.982C106.992 458.242 107.338 457.03 106.559 456.77C100.845 454.865 95.045 454.086 88.9849 454.432C88.1191 454.519 88.1191 455.818 88.9849 455.731Z" fill="#2F2F38"/>
<path d="M48.7281 426.901L46.6504 438.589L106.386 439.628L48.7281 426.901Z" fill="#2F2F38"/>
<path d="M57.8184 598.66C66.9085 598.66 75.9987 598.66 85.0888 598.66C85.9546 598.66 85.9546 597.361 85.0888 597.361C75.9987 597.361 66.9085 597.361 57.8184 597.361C56.9526 597.361 56.9526 598.66 57.8184 598.66Z" fill="#2F2F38"/>
<path d="M214.169 599.79C224.385 599.79 234.6 599.79 244.816 599.79C245.682 599.79 245.682 598.491 244.816 598.491C234.6 598.491 224.385 598.491 214.169 598.491C213.303 598.491 213.303 599.79 214.169 599.79Z" fill="#2F2F38"/>
<path d="M143.439 449.495C147.421 454.43 150.711 459.711 153.395 465.424C153.741 466.204 154.866 465.511 154.52 464.732C151.836 458.931 148.373 453.564 144.391 448.543C143.785 447.937 142.833 448.889 143.439 449.495Z" fill="#2F2F38"/>
<path d="M168.719 397.289C154.954 411.14 143.093 426.637 133.397 443.432C132.964 444.125 134.09 444.817 134.523 444.125C144.219 427.33 155.993 411.92 169.671 398.241C170.191 397.635 169.325 396.683 168.719 397.289Z" fill="#2F2F38"/>
<path d="M174.778 391.666C173.393 393.311 172.095 394.955 170.709 396.514C170.19 397.12 171.056 398.072 171.662 397.466C173.047 395.821 174.345 394.176 175.731 392.618C176.25 391.925 175.298 391.06 174.778 391.666Z" fill="#2F2F38"/>
<path d="M76.3451 379.804C87.4265 363.615 99.6332 348.205 112.879 333.661C113.398 333.055 112.533 332.103 111.927 332.709C98.6809 347.34 86.3876 362.836 75.2197 379.112C74.7868 379.804 75.9123 380.497 76.3451 379.804Z" fill="#2F2F38"/>
<path d="M272.173 403.872C272.519 410.625 273.904 417.205 276.155 423.525C276.415 424.304 277.714 423.957 277.367 423.178C275.116 416.945 273.818 410.539 273.385 403.872C273.385 403.093 272.086 403.093 272.173 403.872Z" fill="#2F2F38"/>
<path d="M216.68 288.039L213.217 282.238L204.127 285.701L188.803 283.104C185.514 282.498 182.051 283.45 179.453 285.615L172.961 291.069C169.844 293.666 168.372 297.648 168.978 301.631L171.489 317.733L189.063 325.871L197.461 317.733L196.162 312.279C195.383 309.249 198.5 306.652 201.356 307.864L204.127 309.076L203.607 300.072H215.641L221.268 295.311L225.251 285.788L216.68 288.039Z" fill="#2F2F38"/>
<path d="M317.191 409.418C313.381 410.197 309.572 410.456 305.677 410.456C304.811 410.456 304.811 411.755 305.677 411.755C309.659 411.842 313.555 411.495 317.537 410.716C318.316 410.543 317.97 409.331 317.191 409.418Z" fill="#2F2F38"/>
<path d="M314.68 413.048C311.477 414.346 308.274 414.866 304.811 414.606C303.945 414.52 303.945 415.818 304.811 415.905C308.36 416.164 311.737 415.645 315.026 414.346C315.806 413.913 315.459 412.701 314.68 413.048Z" fill="#2F2F38"/>
<path d="M95.8238 284.49C101.753 284.49 106.559 279.683 106.559 273.755C106.559 267.826 101.753 263.02 95.8238 263.02C89.895 263.02 85.0887 267.826 85.0887 273.755C85.0887 279.683 89.895 284.49 95.8238 284.49Z" stroke="#2F2F38" stroke-width="3" stroke-miterlimit="10"/>
<path d="M110.281 154.369C113.772 154.369 116.601 151.54 116.601 148.049C116.601 144.559 113.772 141.729 110.281 141.729C106.791 141.729 103.962 144.559 103.962 148.049C103.962 151.54 106.791 154.369 110.281 154.369Z" stroke="#2F2F38" stroke-width="3" stroke-miterlimit="10"/>
<path d="M69.0748 312.931C71.8927 305.974 68.5373 298.05 61.5801 295.232C54.623 292.414 46.6987 295.769 43.8807 302.726C41.0628 309.683 44.4182 317.608 51.3753 320.426C58.3324 323.244 66.2568 319.888 69.0748 312.931Z" stroke="#2F2F38" stroke-width="3" stroke-miterlimit="10"/>
<path d="M714.738 238.944C719.301 234.245 719.191 226.736 714.492 222.173C709.793 217.61 702.284 217.721 697.721 222.42C693.158 227.119 693.268 234.628 697.968 239.191C702.667 243.754 710.175 243.643 714.738 238.944Z" stroke="#2F2F38" stroke-width="3" stroke-miterlimit="10"/>
<path d="M718.017 185.046C718.613 181.364 716.111 177.896 712.43 177.3C708.748 176.704 705.28 179.206 704.684 182.887C704.088 186.569 706.59 190.037 710.272 190.633C713.953 191.229 717.421 188.727 718.017 185.046Z" stroke="#2F2F38" stroke-width="3" stroke-miterlimit="10"/>
<path d="M435.127 542.653C438.44 539.34 438.44 533.968 435.127 530.655C431.813 527.342 426.442 527.342 423.128 530.655C419.815 533.968 419.815 539.34 423.128 542.653C426.442 545.967 431.813 545.967 435.127 542.653Z" stroke="#2F2F38" stroke-width="3" stroke-miterlimit="10"/>
<path d="M517.694 558.751C528.213 558.751 536.74 550.224 536.74 539.705C536.74 529.186 528.213 520.659 517.694 520.659C507.175 520.659 498.648 529.186 498.648 539.705C498.648 550.224 507.175 558.751 517.694 558.751Z" stroke="#2F2F38" stroke-width="3" stroke-miterlimit="10"/>
<path d="M458.305 588.103C463.086 588.103 466.962 584.227 466.962 579.445C466.962 574.664 463.086 570.788 458.305 570.788C453.524 570.788 449.648 574.664 449.648 579.445C449.648 584.227 453.524 588.103 458.305 588.103Z" stroke="#2F2F38" stroke-width="3" stroke-miterlimit="10"/>
</svg>
